SplineFontDB: 3.0
FontName: Lobster
FullName: Lobster
FamilyName: Lobster
Weight: Book
Copyright: Copyright (c) 2010 by Pablo Impallari. www.impallari.com. All rights reserved.
Version: 1.004
ItalicAngle: 0
UnderlinePosition: -103
UnderlineWidth: 102
Ascent: 1638
Descent: 410
LayerCount: 2
Layer: 0 1 "Back"  1
Layer: 1 1 "Fore"  0
XUID: [1021 230 1610532706 642760]
FSType: 0
OS2Version: 3
OS2_WeightWidthSlopeOnly: 0
OS2_UseTypoMetrics: 1
CreationTime: 1277146138
ModificationTime: 1298923435
PfmFamily: 17
TTFWeight: 400
TTFWidth: 5
LineGap: 0
VLineGap: 0
Panose: 2 0 5 6 0 0 0 2 0 3
OS2TypoAscent: 2048
OS2TypoAOffset: 0
OS2TypoDescent: -512
OS2TypoDOffset: 0
OS2TypoLinegap: 0
OS2WinAscent: 2048
OS2WinAOffset: 0
OS2WinDescent: 512
OS2WinDOffset: 0
HheadAscent: 2048
HheadAOffset: 0
HheadDescent: -512
HheadDOffset: 0
OS2SubXSize: 1434
OS2SubYSize: 1331
OS2SubXOff: 0
OS2SubYOff: 287
OS2SupXSize: 1434
OS2SupYSize: 1331
OS2SupXOff: 0
OS2SupYOff: 977
OS2StrikeYSize: 102
OS2StrikeYPos: 512
OS2FamilyClass: 2562
OS2Vendor: '    '
OS2CodePages: 00000005.00000000
OS2UnicodeRanges: 8000002f.4000004a.00000000.00000000
Lookup: 1 0 0 "'aalt' Access All Alternates in Latin lookup 0"  {"'aalt' Access All Alternates in Latin lookup 0 subtable"  } ['aalt' ('latn' <'dflt' > ) ]
Lookup: 3 0 0 "'aalt' Access All Alternates in Latin lookup 1"  {"'aalt' Access All Alternates in Latin lookup 1 subtable"  } ['aalt' ('latn' <'dflt' > ) ]
Lookup: 4 0 1 "'liga' Standard Ligatures in Latin lookup 2"  {"'liga' Standard Ligatures in Latin lookup 2 subtable"  } ['liga' ('latn' <'dflt' > ) ]
Lookup: 6 0 0 "'liga' Standard Ligatures in Latin lookup 3"  {"'liga' Standard Ligatures in Latin lookup 3 contextual 0"  "'liga' Standard Ligatures in Latin lookup 3 contextual 1"  } ['liga' ('latn' <'dflt' > ) ]
Lookup: 4 0 1 "'liga' Standard Ligatures in Latin lookup 4"  {"'liga' Standard Ligatures in Latin lookup 4 subtable"  } ['liga' ('latn' <'dflt' > ) ]

StartChar: A
Encoding: 65 65 1
Width: 1368
Flags: W
LayerCount: 2
Fore
SplineSet
438 70 m 0,0,1
 418 -39 418 -39 418 -116.5 c 128,-1,2
 418 -194 418 -194 446 -233 c 1,3,4
 325 -233 325 -233 276 -208 c 0,5,6
 172 -156 172 -156 172 -16 c 0,7,8
 172 196 172 196 350 580 c 0,9,10
 406 700 406 700 473 817 c 1,11,12
 377 811 377 811 315.5 787.5 c 128,-1,13
 254 764 254 764 233 711 c 1,14,15
 242 711 242 711 251 690.5 c 128,-1,16
 260 670 260 670 260 640 c 128,-1,17
 260 610 260 610 226.5 588.5 c 128,-1,18
 193 567 193 567 156 567 c 0,19,20
 89 567 89 567 53.5 598.5 c 128,-1,21
 18 630 18 630 18 684 c 0,22,23
 18 790 18 790 137 864 c 1,24,25
 258 938 258 938 436 938 c 0,26,27
 477 938 477 938 543 932 c 1,28,29
 709 1193 709 1193 895.5 1364.5 c 128,-1,30
 1082 1536 1082 1536 1255 1536 c 0,31,32
 1359 1536 1359 1536 1417 1507 c 1,33,-1
 1096 0 l 1,34,-1
 801 0 l 1,35,-1
 958 743 l 1,36,37
 822 805 822 805 684 817 c 1,38,39
 500 410 500 410 438 70 c 0,0,1
727 905 m 1,40,41
 870 877 870 877 977 834 c 1,42,-1
 1096 1391 l 1,43,44
 920 1295 920 1295 727 905 c 1,40,41
EndSplineSet
Validated: 1
Substitution2: "'salt' Stylistic Alternatives in Latin lookup 8 subtable" A.salt
Substitution2: "'aalt' Access All Alternates in Latin lookup 0 subtable" A.salt
EndChar

StartChar: A.salt
Encoding: 257 -1 2
Width: 1208
Flags: W
LayerCount: 2
Fore
SplineSet
645 0 m 1,0,-1
 803 750 l 1,1,-1
 479 750 l 1,2,3
 328 382 328 382 278 58 c 0,4,5
 262 -43 262 -43 262 -99.5 c 128,-1,6
 262 -156 262 -156 266.5 -176.5 c 128,-1,7
 271 -197 271 -197 276.5 -207 c 128,-1,8
 282 -217 282 -217 286.5 -221 c 128,-1,9
 291 -225 291 -225 291 -231 c 1,10,11
 151 -226 151 -226 107 -200 c 0,12,13
 16 -147 16 -147 16 -2 c 0,14,15
 16 144 16 144 116 402 c 0,16,17
 277 814 277 814 542 1154 c 0,18,19
 726 1390 726 1390 912 1488 c 0,20,21
 1007 1538 1007 1538 1098 1538 c 0,22,23
 1190 1538 1190 1538 1262 1509 c 1,24,-1
 1260 1507 l 1,25,-1
 1262 1507 l 1,26,-1
 940 0 l 1,27,-1
 645 0 l 1,0,-1
940 1397 m 1,28,29
 730 1299 730 1299 524 856 c 1,30,-1
 825 856 l 1,31,-1
 940 1397 l 1,28,29
EndSplineSet
Validated: 1
EndChar

StartChar: AE
Encoding: 258 198 3
Width: 1565
Flags: W
LayerCount: 2
Fore
SplineSet
958 743 m 1,0,1
 810 809 810 809 682 817 c 1,2,3
 502 423 502 423 438 73 c 0,4,5
 418 -36 418 -36 418 -96 c 128,-1,6
 418 -156 418 -156 422.5 -176.5 c 128,-1,7
 427 -197 427 -197 432 -207 c 128,-1,8
 437 -217 437 -217 441.5 -221 c 128,-1,9
 446 -225 446 -225 446 -231 c 1,10,11
 307 -226 307 -226 263 -200 c 0,12,13
 172 -147 172 -147 172 -2 c 0,14,15
 172 202 172 202 350 582 c 0,16,17
 406 700 406 700 473 817 c 1,18,19
 381 811 381 811 318.5 788.5 c 128,-1,20
 256 766 256 766 233 711 c 1,21,22
 242 711 242 711 251 690.5 c 128,-1,23
 260 670 260 670 260 642 c 128,-1,24
 260 614 260 614 230.5 590.5 c 128,-1,25
 201 567 201 567 145.5 567 c 128,-1,26
 90 567 90 567 54 597 c 256,27,28
 18 627 18 627 18 685 c 0,29,30
 18 790 18 790 139 861 c 128,-1,31
 260 932 260 932 418 932 c 0,32,33
 471 932 471 932 539 926 c 1,34,35
 797 1347 797 1347 1069 1489 c 0,36,37
 1163 1538 1163 1538 1253 1538 c 0,38,39
 1295 1538 1295 1538 1338 1532 c 2,40,-1
 1426 1518 l 1,41,42
 1550 1497 1550 1497 1622 1497 c 256,43,44
 1745 1497 1745 1497 1862 1536 c 1,45,-1
 1839 1462 l 2,46,47
 1793 1311 1793 1311 1642 1311 c 0,48,49
 1564 1311 1564 1311 1506 1332 c 2,50,-1
 1389 1376 l 1,51,-1
 1278 858 l 1,52,-1
 1595 858 l 1,53,-1
 1554 707 l 1,54,-1
 1245 707 l 1,55,-1
 1141 217 l 1,56,-1
 1599 217 l 1,57,-1
 1556 0 l 1,58,-1
 801 0 l 1,59,-1
 958 743 l 1,0,1
723 903 m 1,60,61
 854 879 854 879 977 834 c 1,62,-1
 1096 1391 l 1,63,64
 912 1289 912 1289 723 903 c 1,60,61
EndSplineSet
Validated: 1
EndChar

StartChar: Aacute
Encoding: 259 193 4
Width: 1368
Flags: W
LayerCount: 2
Fore
SplineSet
438 70 m 0,0,1
 418 -39 418 -39 418 -116.5 c 128,-1,2
 418 -194 418 -194 446 -233 c 1,3,4
 325 -233 325 -233 276 -208 c 0,5,6
 172 -156 172 -156 172 -16 c 0,7,8
 172 196 172 196 350 580 c 0,9,10
 406 700 406 700 473 817 c 1,11,12
 377 811 377 811 315.5 787.5 c 128,-1,13
 254 764 254 764 233 711 c 1,14,15
 242 711 242 711 251 690.5 c 128,-1,16
 260 670 260 670 260 640 c 128,-1,17
 260 610 260 610 226.5 588.5 c 128,-1,18
 193 567 193 567 156 567 c 0,19,20
 89 567 89 567 53.5 598.5 c 128,-1,21
 18 630 18 630 18 684 c 0,22,23
 18 790 18 790 137 864 c 1,24,25
 258 938 258 938 436 938 c 0,26,27
 477 938 477 938 543 932 c 1,28,29
 709 1193 709 1193 895.5 1364.5 c 128,-1,30
 1082 1536 1082 1536 1255 1536 c 0,31,32
 1359 1536 1359 1536 1417 1507 c 1,33,-1
 1096 0 l 1,34,-1
 801 0 l 1,35,-1
 958 743 l 1,36,37
 822 805 822 805 684 817 c 1,38,39
 500 410 500 410 438 70 c 0,0,1
727 905 m 1,40,41
 870 877 870 877 977 834 c 1,42,-1
 1096 1391 l 1,43,44
 920 1295 920 1295 727 905 c 1,40,41
996 1661 m 1,45,-1
 1182 2048 l 1,46,-1
 1397 2048 l 1,47,-1
 1149 1661 l 1,48,-1
 996 1661 l 1,45,-1
EndSplineSet
Validated: 1
EndChar

StartChar: Acircumflex
Encoding: 260 194 5
Width: 1368
Flags: W
LayerCount: 2
Fore
SplineSet
438 70 m 0,0,1
 418 -39 418 -39 418 -116.5 c 128,-1,2
 418 -194 418 -194 446 -233 c 1,3,4
 325 -233 325 -233 276 -208 c 0,5,6
 172 -156 172 -156 172 -16 c 0,7,8
 172 196 172 196 350 580 c 0,9,10
 406 700 406 700 473 817 c 1,11,12
 377 811 377 811 315.5 787.5 c 128,-1,13
 254 764 254 764 233 711 c 1,14,15
 242 711 242 711 251 690.5 c 128,-1,16
 260 670 260 670 260 640 c 128,-1,17
 260 610 260 610 226.5 588.5 c 128,-1,18
 193 567 193 567 156 567 c 0,19,20
 89 567 89 567 53.5 598.5 c 128,-1,21
 18 630 18 630 18 684 c 0,22,23
 18 790 18 790 137 864 c 1,24,25
 258 938 258 938 436 938 c 0,26,27
 477 938 477 938 543 932 c 1,28,29
 709 1193 709 1193 895.5 1364.5 c 128,-1,30
 1082 1536 1082 1536 1255 1536 c 0,31,32
 1359 1536 1359 1536 1417 1507 c 1,33,-1
 1096 0 l 1,34,-1
 801 0 l 1,35,-1
 958 743 l 1,36,37
 822 805 822 805 684 817 c 1,38,39
 500 410 500 410 438 70 c 0,0,1
727 905 m 1,40,41
 870 877 870 877 977 834 c 1,42,-1
 1096 1391 l 1,43,44
 920 1295 920 1295 727 905 c 1,40,41
1369 1661 m 1,45,-1
 1246 1825 l 1,46,-1
 924 1661 l 1,47,-1
 834 1661 l 1,48,-1
 1268 2048 l 1,49,-1
 1311 2048 l 1,50,-1
 1434 1661 l 1,51,-1
 1369 1661 l 1,45,-1
EndSplineSet
Validated: 1
EndChar

StartChar: Adieresis
Encoding: 261 196 6
Width: 1368
Flags: W
LayerCount: 2
Fore
SplineSet
438 70 m 0,0,1
 418 -39 418 -39 418 -116.5 c 128,-1,2
 418 -194 418 -194 446 -233 c 1,3,4
 325 -233 325 -233 276 -208 c 0,5,6
 172 -156 172 -156 172 -16 c 0,7,8
 172 196 172 196 350 580 c 0,9,10
 406 700 406 700 473 817 c 1,11,12
 377 811 377 811 315.5 787.5 c 128,-1,13
 254 764 254 764 233 711 c 1,14,15
 242 711 242 711 251 690.5 c 128,-1,16
 260 670 260 670 260 640 c 128,-1,17
 260 610 260 610 226.5 588.5 c 128,-1,18
 193 567 193 567 156 567 c 0,19,20
 89 567 89 567 53.5 598.5 c 128,-1,21
 18 630 18 630 18 684 c 0,22,23
 18 790 18 790 137 864 c 1,24,25
 258 938 258 938 436 938 c 0,26,27
 477 938 477 938 543 932 c 1,28,29
 709 1193 709 1193 895.5 1364.5 c 128,-1,30
 1082 1536 1082 1536 1255 1536 c 0,31,32
 1359 1536 1359 1536 1417 1507 c 1,33,-1
 1096 0 l 1,34,-1
 801 0 l 1,35,-1
 958 743 l 1,36,37
 822 805 822 805 684 817 c 1,38,39
 500 410 500 410 438 70 c 0,0,1
727 905 m 1,40,41
 870 877 870 877 977 834 c 1,42,-1
 1096 1391 l 1,43,44
 920 1295 920 1295 727 905 c 1,40,41
1094 1721 m 1,45,46
 1056 1686 1056 1686 1018 1686 c 0,47,48
 952 1686 952 1686 916.5 1721.5 c 128,-1,49
 881 1757 881 1757 881 1809 c 128,-1,50
 881 1861 881 1861 916 1898 c 0,51,52
 952 1935 952 1935 1004.5 1935 c 128,-1,53
 1057 1935 1057 1935 1094 1898.5 c 128,-1,54
 1131 1862 1131 1862 1131 1809.5 c 128,-1,55
 1131 1757 1131 1757 1094 1721 c 1,45,46
1462 1721 m 1,56,57
 1424 1686 1424 1686 1386 1686 c 0,58,59
 1321 1686 1321 1686 1285 1721 c 128,-1,60
 1249 1756 1249 1756 1249 1809 c 128,-1,61
 1249 1862 1249 1862 1285 1898.5 c 128,-1,62
 1321 1935 1321 1935 1373 1935 c 128,-1,63
 1425 1935 1425 1935 1462 1898.5 c 128,-1,64
 1499 1862 1499 1862 1499 1809.5 c 128,-1,65
 1499 1757 1499 1757 1462 1721 c 1,56,57
EndSplineSet
Validated: 1
EndChar

StartChar: Agrave
Encoding: 262 192 7
Width: 1368
Flags: W
LayerCount: 2
Fore
SplineSet
438 70 m 0,0,1
 418 -39 418 -39 418 -116.5 c 128,-1,2
 418 -194 418 -194 446 -233 c 1,3,4
 325 -233 325 -233 276 -208 c 0,5,6
 172 -156 172 -156 172 -16 c 0,7,8
 172 196 172 196 350 580 c 0,9,10
 406 700 406 700 473 817 c 1,11,12
 377 811 377 811 315.5 787.5 c 128,-1,13
 254 764 254 764 233 711 c 1,14,15
 242 711 242 711 251 690.5 c 128,-1,16
 260 670 260 670 260 640 c 128,-1,17
 260 610 260 610 226.5 588.5 c 128,-1,18
 193 567 193 567 156 567 c 0,19,20
 89 567 89 567 53.5 598.5 c 128,-1,21
 18 630 18 630 18 684 c 0,22,23
 18 790 18 790 137 864 c 1,24,25
 258 938 258 938 436 938 c 0,26,27
 477 938 477 938 543 932 c 1,28,29
 709 1193 709 1193 895.5 1364.5 c 128,-1,30
 1082 1536 1082 1536 1255 1536 c 0,31,32
 1359 1536 1359 1536 1417 1507 c 1,33,-1
 1096 0 l 1,34,-1
 801 0 l 1,35,-1
 958 743 l 1,36,37
 822 805 822 805 684 817 c 1,38,39
 500 410 500 410 438 70 c 0,0,1
727 905 m 1,40,41
 870 877 870 877 977 834 c 1,42,-1
 1096 1391 l 1,43,44
 920 1295 920 1295 727 905 c 1,40,41
1016 1661 m 1,45,-1
 895 2048 l 1,46,-1
 1110 2048 l 1,47,-1
 1170 1661 l 1,48,-1
 1016 1661 l 1,45,-1
EndSplineSet
Validated: 1
EndChar

StartChar: Aogonek
Encoding: 263 260 8
Width: 1368
Flags: W
LayerCount: 2
Fore
SplineSet
739 -236 m 0,0,1
 739 -116 739 -116 884 0 c 1,2,-1
 801 0 l 1,3,-1
 958 743 l 1,4,5
 822 805 822 805 684 817 c 1,6,7
 500 410 500 410 438 70 c 0,8,9
 418 -39 418 -39 418 -116.5 c 128,-1,10
 418 -194 418 -194 446 -233 c 1,11,12
 325 -233 325 -233 276 -208 c 0,13,14
 172 -156 172 -156 172 -16 c 0,15,16
 172 196 172 196 350 580 c 0,17,18
 406 700 406 700 473 817 c 1,19,20
 377 811 377 811 315.5 787.5 c 128,-1,21
 254 764 254 764 233 711 c 1,22,23
 242 711 242 711 251 690.5 c 128,-1,24
 260 670 260 670 260 640 c 128,-1,25
 260 610 260 610 226.5 588.5 c 128,-1,26
 193 567 193 567 156 567 c 0,27,28
 89 567 89 567 53.5 598.5 c 128,-1,29
 18 630 18 630 18 684 c 0,30,31
 18 790 18 790 137 864 c 1,32,33
 258 938 258 938 436 938 c 0,34,35
 477 938 477 938 543 932 c 1,36,37
 709 1193 709 1193 895.5 1364.5 c 128,-1,38
 1082 1536 1082 1536 1255 1536 c 0,39,40
 1359 1536 1359 1536 1417 1507 c 1,41,-1
 1096 0 l 1,42,-1
 1018 0 l 1,43,44
 955 -32 955 -32 921 -113 c 0,45,46
 909 -142 909 -142 909 -174.5 c 128,-1,47
 909 -207 909 -207 927.5 -240.5 c 128,-1,48
 946 -274 946 -274 986.5 -274 c 128,-1,49
 1027 -274 1027 -274 1062 -249 c 1,50,-1
 1128 -205 l 1,51,52
 1124 -241 1124 -241 1124 -268 c 1,53,-1
 1084 -308 l 2,54,55
 996 -395 996 -395 910 -395 c 128,-1,56
 824 -395 824 -395 781.5 -346 c 128,-1,57
 739 -297 739 -297 739 -236 c 0,0,1
727 905 m 1,58,59
 870 877 870 877 977 834 c 1,60,-1
 1096 1391 l 1,61,62
 920 1295 920 1295 727 905 c 1,58,59
EndSplineSet
Validated: 1
EndChar

StartChar: Aring
Encoding: 264 197 9
Width: 1368
Flags: W
LayerCount: 2
Fore
SplineSet
438 70 m 0,0,1
 418 -39 418 -39 418 -116.5 c 128,-1,2
 418 -194 418 -194 446 -233 c 1,3,4
 325 -233 325 -233 276 -208 c 0,5,6
 172 -156 172 -156 172 -16 c 0,7,8
 172 196 172 196 350 580 c 0,9,10
 406 700 406 700 473 817 c 1,11,12
 377 811 377 811 315.5 787.5 c 128,-1,13
 254 764 254 764 233 711 c 1,14,15
 242 711 242 711 251 690.5 c 128,-1,16
 260 670 260 670 260 640 c 128,-1,17
 260 610 260 610 226.5 588.5 c 128,-1,18
 193 567 193 567 156 567 c 0,19,20
 89 567 89 567 53.5 598.5 c 128,-1,21
 18 630 18 630 18 684 c 0,22,23
 18 790 18 790 137 864 c 1,24,25
 258 938 258 938 436 938 c 0,26,27
 477 938 477 938 543 932 c 1,28,29
 709 1193 709 1193 895.5 1364.5 c 128,-1,30
 1082 1536 1082 1536 1255 1536 c 0,31,32
 1359 1536 1359 1536 1417 1507 c 1,33,-1
 1096 0 l 1,34,-1
 801 0 l 1,35,-1
 958 743 l 1,36,37
 822 805 822 805 684 817 c 1,38,39
 500 410 500 410 438 70 c 0,0,1
727 905 m 1,40,41
 870 877 870 877 977 834 c 1,42,-1
 1096 1391 l 1,43,44
 920 1295 920 1295 727 905 c 1,40,41
993 1770 m 0,45,46
 993 1899 993 1899 1087 1953 c 0,47,48
 1120 1972 1120 1972 1181.5 1972 c 128,-1,49
 1243 1972 1243 1972 1279 1925.5 c 128,-1,50
 1315 1879 1315 1879 1315 1813 c 128,-1,51
 1315 1747 1315 1747 1274.5 1694.5 c 128,-1,52
 1234 1642 1234 1642 1152.5 1642 c 128,-1,53
 1071 1642 1071 1642 1032 1684 c 256,54,55
 993 1726 993 1726 993 1770 c 0,45,46
1145 1714 m 0,56,57
 1239 1714 1239 1714 1239 1808 c 0,58,59
 1239 1875 1239 1875 1209 1896 c 0,60,61
 1195 1905 1195 1905 1171 1905 c 0,62,63
 1119 1905 1119 1905 1097 1867 c 128,-1,64
 1075 1829 1075 1829 1075 1790 c 0,65,66
 1075 1714 1075 1714 1145 1714 c 0,56,57
EndSplineSet
Validated: 1
EndChar

StartChar: Atilde
Encoding: 265 195 10
Width: 1368
Flags: W
LayerCount: 2
Fore
SplineSet
438 70 m 0,0,1
 418 -39 418 -39 418 -116.5 c 128,-1,2
 418 -194 418 -194 446 -233 c 1,3,4
 325 -233 325 -233 276 -208 c 0,5,6
 172 -156 172 -156 172 -16 c 0,7,8
 172 196 172 196 350 580 c 0,9,10
 406 700 406 700 473 817 c 1,11,12
 377 811 377 811 315.5 787.5 c 128,-1,13
 254 764 254 764 233 711 c 1,14,15
 242 711 242 711 251 690.5 c 128,-1,16
 260 670 260 670 260 640 c 128,-1,17
 260 610 260 610 226.5 588.5 c 128,-1,18
 193 567 193 567 156 567 c 0,19,20
 89 567 89 567 53.5 598.5 c 128,-1,21
 18 630 18 630 18 684 c 0,22,23
 18 790 18 790 137 864 c 1,24,25
 258 938 258 938 436 938 c 0,26,27
 477 938 477 938 543 932 c 1,28,29
 709 1193 709 1193 895.5 1364.5 c 128,-1,30
 1082 1536 1082 1536 1255 1536 c 0,31,32
 1359 1536 1359 1536 1417 1507 c 1,33,-1
 1096 0 l 1,34,-1
 801 0 l 1,35,-1
 958 743 l 1,36,37
 822 805 822 805 684 817 c 1,38,39
 500 410 500 410 438 70 c 0,0,1
727 905 m 1,40,41
 870 877 870 877 977 834 c 1,42,-1
 1096 1391 l 1,43,44
 920 1295 920 1295 727 905 c 1,40,41
1436 1847.5 m 128,-1,46
 1474 1837 1474 1837 1536 1837 c 128,-1,47
 1598 1837 1598 1837 1647 1884 c 1,48,-1
 1659 1882 l 1,49,50
 1642 1808 1642 1808 1541.5 1742.5 c 128,-1,51
 1441 1677 1441 1677 1329 1677 c 0,52,53
 1260 1677 1260 1677 1184 1703 c 128,-1,54
 1108 1729 1108 1729 1068 1741 c 128,-1,55
 1028 1753 1028 1753 985 1753 c 0,56,57
 908 1753 908 1753 850 1700 c 1,58,-1
 838 1704 l 1,59,60
 937 1905 937 1905 1180 1905 c 0,61,62
 1259 1905 1259 1905 1328.5 1881.5 c 128,-1,45
 1398 1858 1398 1858 1436 1847.5 c 128,-1,46
EndSplineSet
Validated: 1
EndChar

StartChar: B
Encoding: 66 66 11
Width: 1313
Flags: W
LayerCount: 2
Fore
SplineSet
956 530 m 0,0,1
 956 791 956 791 762 791 c 0,2,3
 717 791 717 791 668 784 c 1,4,-1
 500 0 l 1,5,-1
 205 0 l 1,6,-1
 483 1303 l 1,7,-1
 786 1343 l 1,8,-1
 690 889 l 1,9,-1
 702 889 l 2,10,11
 820 889 820 889 908.5 995 c 128,-1,12
 997 1101 997 1101 997 1221 c 0,13,14
 997 1371 997 1371 852 1424 c 0,15,16
 800 1442 800 1442 733.5 1442 c 128,-1,17
 667 1442 667 1442 605.5 1428.5 c 128,-1,18
 544 1415 544 1415 488 1388 c 0,19,20
 363 1327 363 1327 289 1214.5 c 128,-1,21
 215 1102 215 1102 215 944 c 0,22,23
 215 863 215 863 240 819 c 0,24,25
 244 811 244 811 244 805 c 1,26,27
 82 805 82 805 40 905 c 0,28,29
 25 941 25 941 25 993 c 0,30,31
 25 1101 25 1101 86 1197.5 c 128,-1,32
 147 1294 147 1294 250 1370 c 1,33,34
 479 1536 479 1536 768 1536 c 0,35,36
 982 1536 982 1536 1093 1441.5 c 128,-1,37
 1204 1347 1204 1347 1204 1210 c 0,38,39
 1204 1118 1204 1118 1152 1030 c 256,40,41
 1100 942 1100 942 999 885 c 1,42,43
 1123 860 1123 860 1182 770 c 128,-1,44
 1241 680 1241 680 1241 555 c 0,45,46
 1241 482 1241 482 1220 380 c 0,47,48
 1172 154 1172 154 1008 29 c 0,49,50
 923 -35 923 -35 790.5 -35 c 128,-1,51
 658 -35 658 -35 610 40 c 0,52,53
 590 70 590 70 590 118.5 c 128,-1,54
 590 167 590 167 616 236 c 1,55,56
 685 162 685 162 748 162 c 0,57,58
 856 162 856 162 911 288 c 0,59,60
 956 390 956 390 956 530 c 0,0,1
EndSplineSet
Validated: 1
Substitution2: "'salt' Stylistic Alternatives in Latin lookup 8 subtable" B.salt
Substitution2: "'aalt' Access All Alternates in Latin lookup 0 subtable" B.salt
EndChar

StartChar: B.salt
Encoding: 266 -1 12
Width: 1296
Flags: W
LayerCount: 2
Fore
SplineSet
743 -57 m 0,0,1
 612 -57 612 -57 500 61 c 1,2,-1
 487 0 l 1,3,-1
 193 0 l 1,4,-1
 471 1303 l 1,5,-1
 774 1343 l 1,6,-1
 678 889 l 1,7,-1
 690 889 l 2,8,9
 814 889 814 889 898 996 c 0,10,11
 981 1104 981 1104 981 1233 c 0,12,13
 981 1442 981 1442 723 1442 c 0,14,15
 503 1442 503 1442 353 1306 c 0,16,17
 203 1170 203 1170 203 944 c 0,18,19
 203 861 203 861 226 819 c 0,20,21
 231 811 231 811 231 805 c 1,22,23
 69 805 69 805 27 905 c 0,24,25
 12 941 12 941 12 993 c 0,26,27
 12 1100 12 1100 75 1198.5 c 128,-1,28
 138 1297 138 1297 242 1372 c 0,29,30
 470 1536 470 1536 750 1536 c 0,31,32
 961 1536 961 1536 1078 1440 c 0,33,34
 1196 1343 1196 1343 1196 1206 c 0,35,36
 1196 1115 1196 1115 1143.5 1030 c 128,-1,37
 1091 945 1091 945 991 885 c 1,38,39
 1115 863 1115 863 1170 777 c 128,-1,40
 1225 691 1225 691 1225 582 c 0,41,42
 1225 359 1225 359 1080 156 c 0,43,44
 1014 63 1014 63 927 3 c 256,45,46
 840 -57 840 -57 743 -57 c 0,0,1
528 190 m 1,47,48
 585 131 585 131 648 131 c 0,49,50
 758 131 758 131 839 274 c 0,51,52
 920 416 920 416 920 570 c 0,53,54
 920 725 920 725 829 774 c 0,55,56
 796 791 796 791 751 791 c 0,57,58
 706 791 706 791 655 784 c 1,59,-1
 528 190 l 1,47,48
EndSplineSet
Validated: 1
EndChar

StartChar: C
Encoding: 67 67 13
Width: 1018
Flags: W
LayerCount: 2
Fore
SplineSet
1096 1262 m 0,0,1
 1096 1073 1096 1073 952 1073 c 0,2,3
 880 1073 880 1073 836 1126 c 1,4,5
 873 1146 873 1146 901.5 1201 c 128,-1,6
 930 1256 930 1256 930 1310.5 c 128,-1,7
 930 1365 930 1365 901.5 1402.5 c 128,-1,8
 873 1440 873 1440 810.5 1440 c 128,-1,9
 748 1440 748 1440 694.5 1398 c 128,-1,10
 641 1356 641 1356 594 1284 c 0,11,12
 499 1140 499 1140 439 916 c 128,-1,13
 379 692 379 692 379 509.5 c 128,-1,14
 379 327 379 327 432.5 245.5 c 128,-1,15
 486 164 486 164 616 164 c 0,16,17
 872 164 872 164 1024 369 c 1,18,-1
 1071 348 l 1,19,20
 973 100 973 100 698 4 c 0,21,22
 590 -34 590 -34 486 -34 c 0,23,24
 483 -34 483 -34 480 -34 c 0,25,26
 253 -32 253 -32 146 84 c 128,-1,27
 39 200 39 200 39 457 c 128,-1,28
 39 714 39 714 124 970 c 1,29,30
 223 1272 223 1272 416 1422 c 0,31,32
 564 1536 564 1536 754 1536 c 0,33,34
 992 1536 992 1536 1069 1387 c 0,35,36
 1096 1335 1096 1335 1096 1262 c 0,0,1
EndSplineSet
Validated: 1
EndChar

StartChar: Cacute
Encoding: 267 262 14
Width: 1018
Flags: W
LayerCount: 2
Fore
SplineSet
1096 1262 m 0,0,1
 1096 1073 1096 1073 952 1073 c 0,2,3
 880 1073 880 1073 836 1126 c 1,4,5
 873 1146 873 1146 901.5 1201 c 128,-1,6
 930 1256 930 1256 930 1310.5 c 128,-1,7
 930 1365 930 1365 901.5 1402.5 c 128,-1,8
 873 1440 873 1440 810.5 1440 c 128,-1,9
 748 1440 748 1440 694.5 1398 c 128,-1,10
 641 1356 641 1356 594 1284 c 0,11,12
 499 1140 499 1140 439 916 c 128,-1,13
 379 692 379 692 379 509.5 c 128,-1,14
 379 327 379 327 432.5 245.5 c 128,-1,15
 486 164 486 164 616 164 c 0,16,17
 872 164 872 164 1024 369 c 1,18,-1
 1071 348 l 1,19,20
 973 100 973 100 698 4 c 0,21,22
 590 -34 590 -34 486 -34 c 0,23,24
 483 -34 483 -34 480 -34 c 0,25,26
 253 -32 253 -32 146 84 c 128,-1,27
 39 200 39 200 39 457 c 128,-1,28
 39 714 39 714 124 970 c 1,29,30
 223 1272 223 1272 416 1422 c 0,31,32
 564 1536 564 1536 754 1536 c 0,33,34
 992 1536 992 1536 1069 1387 c 0,35,36
 1096 1335 1096 1335 1096 1262 c 0,0,1
690 1661 m 1,37,-1
 876 2048 l 1,38,-1
 1091 2048 l 1,39,-1
 843 1661 l 1,40,-1
 690 1661 l 1,37,-1
EndSplineSet
Validated: 1
EndChar

StartChar: Ccaron
Encoding: 268 268 15
Width: 1018
Flags: W
LayerCount: 2
Fore
SplineSet
1096 1262 m 0,0,1
 1096 1073 1096 1073 952 1073 c 0,2,3
 880 1073 880 1073 836 1126 c 1,4,5
 873 1146 873 1146 901.5 1201 c 128,-1,6
 930 1256 930 1256 930 1310.5 c 128,-1,7
 930 1365 930 1365 901.5 1402.5 c 128,-1,8
 873 1440 873 1440 810.5 1440 c 128,-1,9
 748 1440 748 1440 694.5 1398 c 128,-1,10
 641 1356 641 1356 594 1284 c 0,11,12
 499 1140 499 1140 439 916 c 128,-1,13
 379 692 379 692 379 509.5 c 128,-1,14
 379 327 379 327 432.5 245.5 c 128,-1,15
 486 164 486 164 616 164 c 0,16,17
 872 164 872 164 1024 369 c 1,18,-1
 1071 348 l 1,19,20
 973 100 973 100 698 4 c 0,21,22
 590 -34 590 -34 486 -34 c 0,23,24
 483 -34 483 -34 480 -34 c 0,25,26
 253 -32 253 -32 146 84 c 128,-1,27
 39 200 39 200 39 457 c 128,-1,28
 39 714 39 714 124 970 c 1,29,30
 223 1272 223 1272 416 1422 c 0,31,32
 564 1536 564 1536 754 1536 c 0,33,34
 992 1536 992 1536 1069 1387 c 0,35,36
 1096 1335 1096 1335 1096 1262 c 0,0,1
764 1661 m 1,37,-1
 721 1661 l 1,38,-1
 598 2048 l 1,39,-1
 663 2048 l 1,40,-1
 786 1884 l 1,41,-1
 1108 2048 l 1,42,-1
 1198 2048 l 1,43,-1
 764 1661 l 1,37,-1
EndSplineSet
Validated: 1
EndChar

StartChar: Ccedilla
Encoding: 269 199 16
Width: 1018
Flags: W
LayerCount: 2
Fore
SplineSet
1096 1262 m 0,0,1
 1096 1073 1096 1073 952 1073 c 0,2,3
 880 1073 880 1073 836 1126 c 1,4,5
 873 1146 873 1146 901.5 1201 c 128,-1,6
 930 1256 930 1256 930 1310.5 c 128,-1,7
 930 1365 930 1365 901.5 1402.5 c 128,-1,8
 873 1440 873 1440 810.5 1440 c 128,-1,9
 748 1440 748 1440 694.5 1398 c 128,-1,10
 641 1356 641 1356 594 1284 c 0,11,12
 499 1140 499 1140 439 916 c 128,-1,13
 379 692 379 692 379 509.5 c 128,-1,14
 379 327 379 327 432.5 245.5 c 128,-1,15
 486 164 486 164 616 164 c 0,16,17
 872 164 872 164 1024 369 c 1,18,-1
 1071 348 l 1,19,20
 973 100 973 100 698 4 c 0,21,22
 624 -22 624 -22 547 -30 c 1,23,-1
 505 -135 l 1,24,25
 569 -119 569 -119 614 -119 c 0,26,27
 741 -119 741 -119 741 -222 c 128,-1,28
 741 -325 741 -325 666.5 -385.5 c 128,-1,29
 592 -446 592 -446 505 -446 c 128,-1,30
 418 -446 418 -446 381.5 -433.5 c 128,-1,31
 345 -421 345 -421 322 -410 c 2,32,-1
 276 -389 l 1,33,34
 314 -324 314 -324 352 -324 c 0,35,36
 405 -324 405 -324 443.5 -351.5 c 128,-1,37
 482 -379 482 -379 509 -379 c 128,-1,38
 536 -379 536 -379 553.5 -352.5 c 128,-1,39
 571 -326 571 -326 571 -295 c 128,-1,40
 571 -264 571 -264 552.5 -241.5 c 128,-1,41
 534 -219 534 -219 484.5 -219 c 128,-1,42
 435 -219 435 -219 385 -244 c 1,43,-1
 460 -32 l 1,44,45
 250 -28 250 -28 144.5 86 c 128,-1,46
 39 200 39 200 39 457 c 128,-1,47
 39 714 39 714 124 970 c 1,48,49
 223 1272 223 1272 416 1422 c 0,50,51
 564 1536 564 1536 754 1536 c 0,52,53
 992 1536 992 1536 1069 1387 c 0,54,55
 1096 1335 1096 1335 1096 1262 c 0,0,1
EndSplineSet
Validated: 1
EndChar

StartChar: Ccircumflex
Encoding: 270 264 17
Width: 1018
Flags: W
LayerCount: 2
Fore
SplineSet
1096 1262 m 0,0,1
 1096 1073 1096 1073 952 1073 c 0,2,3
 880 1073 880 1073 836 1126 c 1,4,5
 873 1146 873 1146 901.5 1201 c 128,-1,6
 930 1256 930 1256 930 1310.5 c 128,-1,7
 930 1365 930 1365 901.5 1402.5 c 128,-1,8
 873 1440 873 1440 810.5 1440 c 128,-1,9
 748 1440 748 1440 694.5 1398 c 128,-1,10
 641 1356 641 1356 594 1284 c 0,11,12
 499 1140 499 1140 439 916 c 128,-1,13
 379 692 379 692 379 509.5 c 128,-1,14
 379 327 379 327 432.5 245.5 c 128,-1,15
 486 164 486 164 616 164 c 0,16,17
 872 164 872 164 1024 369 c 1,18,-1
 1071 348 l 1,19,20
 973 100 973 100 698 4 c 0,21,22
 590 -34 590 -34 486 -34 c 0,23,24
 483 -34 483 -34 480 -34 c 0,25,26
 253 -32 253 -32 146 84 c 128,-1,27
 39 200 39 200 39 457 c 128,-1,28
 39 714 39 714 124 970 c 1,29,30
 223 1272 223 1272 416 1422 c 0,31,32
 564 1536 564 1536 754 1536 c 0,33,34
 992 1536 992 1536 1069 1387 c 0,35,36
 1096 1335 1096 1335 1096 1262 c 0,0,1
949 1661 m 1,37,-1
 826 1825 l 1,38,-1
 504 1661 l 1,39,-1
 414 1661 l 1,40,-1
 848 2048 l 1,41,-1
 891 2048 l 1,42,-1
 1014 1661 l 1,43,-1
 949 1661 l 1,37,-1
EndSplineSet
Validated: 1
EndChar

StartChar: D
Encoding: 68 68 18
Width: 1358
Flags: W
LayerCount: 2
Fore
SplineSet
969 59 m 256,0,1
 865 -27 865 -27 747.5 -27 c 128,-1,2
 630 -27 630 -27 504 82 c 1,3,-1
 487 0 l 1,4,-1
 193 0 l 1,5,-1
 471 1303 l 1,6,-1
 774 1343 l 1,7,-1
 528 195 l 1,8,9
 584 154 584 154 645 154 c 0,10,11
 737 154 737 154 810 236 c 256,12,13
 951 395 951 395 1010 739 c 0,14,15
 1038 897 1038 897 1038 1055 c 0,16,17
 1038 1442 1038 1442 739 1442 c 0,18,19
 505 1442 505 1442 354 1307 c 128,-1,20
 203 1172 203 1172 203 944 c 0,21,22
 203 861 203 861 226 819 c 0,23,24
 231 811 231 811 231 805 c 1,25,26
 69 805 69 805 27 906 c 0,27,28
 12 943 12 943 12 1004 c 128,-1,29
 12 1065 12 1065 39.5 1132.5 c 128,-1,30
 67 1200 67 1200 117 1260 c 0,31,32
 219 1383 219 1383 395 1459.5 c 128,-1,33
 571 1536 571 1536 774 1536 c 0,34,35
 1143 1536 1143 1536 1268 1238 c 0,36,37
 1321 1111 1321 1111 1321 939.5 c 128,-1,38
 1321 768 1321 768 1274 594 c 0,39,40
 1177 231 1177 231 969 59 c 256,0,1
EndSplineSet
Validated: 1
EndChar

StartChar: E
Encoding: 69 69 19
Width: 940
Flags: W
LayerCount: 2
Fore
SplineSet
393 854 m 1,0,1
 268 945 268 945 268 1105 c 128,-1,2
 268 1265 268 1265 398 1402.5 c 128,-1,3
 528 1540 528 1540 717 1540 c 0,4,5
 844 1540 844 1540 927 1473.5 c 128,-1,6
 1010 1407 1010 1407 1010 1299.5 c 128,-1,7
 1010 1192 1010 1192 965 1131.5 c 128,-1,8
 920 1071 920 1071 861 1071 c 128,-1,9
 802 1071 802 1071 762 1126 c 1,10,11
 798 1140 798 1140 825 1194 c 128,-1,12
 852 1248 852 1248 852 1307.5 c 128,-1,13
 852 1367 852 1367 816 1393 c 0,14,15
 779 1419 779 1419 736 1419 c 0,16,17
 650 1419 650 1419 590 1330.5 c 128,-1,18
 530 1242 530 1242 530 1130 c 0,19,20
 530 976 530 976 642 898 c 0,21,22
 682 870 682 870 737 856 c 1,23,24
 581 822 581 822 476 669 c 128,-1,25
 371 516 371 516 371 367 c 0,26,27
 371 281 371 281 416 220.5 c 128,-1,28
 461 160 461 160 564 160 c 128,-1,29
 667 160 667 160 777.5 215 c 128,-1,30
 888 270 888 270 944 369 c 1,31,-1
 991 348 l 1,32,33
 910 170 910 170 744.5 66.5 c 128,-1,34
 579 -37 579 -37 391.5 -37 c 128,-1,35
 204 -37 204 -37 109 66.5 c 128,-1,36
 14 170 14 170 14 332 c 128,-1,37
 14 494 14 494 119 653 c 128,-1,38
 224 812 224 812 393 854 c 1,0,1
EndSplineSet
Validated: 1
Substitution2: "'salt' Stylistic Alternatives in Latin lookup 8 subtable" E.salt
Substitution2: "'aalt' Access All Alternates in Latin lookup 0 subtable" E.salt
EndChar

StartChar: E.salt
Encoding: 271 -1 20
Width: 1135
Flags: W
LayerCount: 2
Fore
SplineSet
1047 1290 m 1,0,1
 936 1290 936 1290 760 1329 c 1,2,-1
 659 858 l 1,3,-1
 975 858 l 1,4,-1
 934 707 l 1,5,-1
 627 707 l 1,6,-1
 518 207 l 1,7,-1
 977 207 l 1,8,-1
 936 0 l 1,9,-1
 180 0 l 1,10,-1
 475 1368 l 1,11,12
 345 1364 345 1364 277 1270 c 0,13,14
 209 1177 209 1177 209 944 c 0,15,16
 209 863 209 863 234 819 c 0,17,18
 238 811 238 811 238 805 c 1,19,20
 73 805 73 805 32 910 c 0,21,22
 18 948 18 948 18 1027 c 128,-1,23
 18 1106 18 1106 56 1202 c 128,-1,24
 94 1298 94 1298 178 1372 c 0,25,26
 363 1536 363 1536 717 1536 c 0,27,28
 784 1536 784 1536 871 1523.5 c 128,-1,29
 958 1511 958 1511 1061 1511 c 0,30,31
 1164 1511 1164 1511 1241 1536 c 1,32,-1
 1222 1467 l 1,33,34
 1185 1320 1185 1320 1047 1290 c 1,0,1
EndSplineSet
Validated: 1
EndChar

StartChar: E_x
Encoding: 272 -1 21
Width: 1632
Flags: W
LayerCount: 2
Fore
SplineSet
1348 1042 m 0,0,1
 1348 1139 1348 1139 1473 1139 c 0,2,3
 1532 1139 1532 1139 1567 1085.5 c 128,-1,4
 1602 1032 1602 1032 1602 944.5 c 128,-1,5
 1602 857 1602 857 1531 743 c 128,-1,6
 1460 629 1460 629 1309 469 c 1,7,-1
 1327 367 l 1,8,-1
 1340 306 l 1,9,10
 1364 186 1364 186 1448 186 c 0,11,12
 1507 186 1507 186 1558 237 c 256,13,14
 1609 288 1609 288 1632 367 c 1,15,-1
 1718 367 l 1,16,17
 1586 -12 1586 -12 1296 -12 c 0,18,19
 1198 -12 1198 -12 1146.5 52 c 128,-1,20
 1095 116 1095 116 1061 258 c 1,21,22
 953 131 953 131 766 49 c 128,-1,23
 579 -33 579 -33 403 -33 c 0,24,25
 133 -33 133 -33 45 159 c 0,26,27
 14 227 14 227 14 316 c 0,28,29
 14 494 14 494 119 653 c 128,-1,30
 224 812 224 812 393 854 c 1,31,32
 268 945 268 945 268 1105 c 128,-1,33
 268 1265 268 1265 398 1402.5 c 128,-1,34
 528 1540 528 1540 717 1540 c 0,35,36
 844 1540 844 1540 927 1473.5 c 128,-1,37
 1010 1407 1010 1407 1010 1299.5 c 128,-1,38
 1010 1192 1010 1192 965 1131.5 c 128,-1,39
 920 1071 920 1071 861 1071 c 128,-1,40
 802 1071 802 1071 762 1126 c 1,41,42
 798 1140 798 1140 825 1194 c 128,-1,43
 852 1248 852 1248 852 1307.5 c 128,-1,44
 852 1367 852 1367 816 1393 c 0,45,46
 779 1419 779 1419 736 1419 c 0,47,48
 650 1419 650 1419 590 1330.5 c 128,-1,49
 530 1242 530 1242 530 1130 c 0,50,51
 530 976 530 976 642 898 c 0,52,53
 682 870 682 870 737 856 c 1,54,55
 581 822 581 822 476 669 c 128,-1,56
 371 516 371 516 371 386.5 c 128,-1,57
 371 257 371 257 429.5 207.5 c 128,-1,58
 488 158 488 158 562 158 c 0,59,60
 690 158 690 158 816.5 220 c 128,-1,61
 943 282 943 282 1034 385 c 1,62,-1
 932 946 l 1,63,-1
 1221 946 l 1,64,-1
 1286 582 l 1,65,66
 1481 790 1481 790 1481 907 c 0,67,68
 1481 922 1481 922 1479 932 c 1,69,70
 1459 928 1459 928 1444 928 c 0,71,72
 1348 928 1348 928 1348 1042 c 0,0,1
EndSplineSet
Validated: 1
Ligature2: "'liga' Standard Ligatures in Latin lookup 2 subtable" E x
EndChar

StartChar: Eacute
Encoding: 273 201 22
Width: 940
Flags: W
LayerCount: 2
Fore
SplineSet
393 854 m 1,0,1
 268 945 268 945 268 1105 c 128,-1,2
 268 1265 268 1265 398 1402.5 c 128,-1,3
 528 1540 528 1540 717 1540 c 0,4,5
 844 1540 844 1540 927 1473.5 c 128,-1,6
 1010 1407 1010 1407 1010 1299.5 c 128,-1,7
 1010 1192 1010 1192 965 1131.5 c 128,-1,8
 920 1071 920 1071 861 1071 c 128,-1,9
 802 1071 802 1071 762 1126 c 1,10,11
 798 1140 798 1140 825 1194 c 128,-1,12
 852 1248 852 1248 852 1307.5 c 128,-1,13
 852 1367 852 1367 816 1393 c 0,14,15
 779 1419 779 1419 736 1419 c 0,16,17
 650 1419 650 1419 590 1330.5 c 128,-1,18
 530 1242 530 1242 530 1130 c 0,19,20
 530 976 530 976 642 898 c 0,21,22
 682 870 682 870 737 856 c 1,23,24
 581 822 581 822 476 669 c 128,-1,25
 371 516 371 516 371 367 c 0,26,27
 371 281 371 281 416 220.5 c 128,-1,28
 461 160 461 160 564 160 c 128,-1,29
 667 160 667 160 777.5 215 c 128,-1,30
 888 270 888 270 944 369 c 1,31,-1
 991 348 l 1,32,33
 910 170 910 170 744.5 66.5 c 128,-1,34
 579 -37 579 -37 391.5 -37 c 128,-1,35
 204 -37 204 -37 109 66.5 c 128,-1,36
 14 170 14 170 14 332 c 128,-1,37
 14 494 14 494 119 653 c 128,-1,38
 224 812 224 812 393 854 c 1,0,1
676 1661 m 1,39,-1
 862 2048 l 1,40,-1
 1077 2048 l 1,41,-1
 829 1661 l 1,42,-1
 676 1661 l 1,39,-1
EndSplineSet
Validated: 1
EndChar

StartChar: Ecircumflex
Encoding: 274 202 23
Width: 940
Flags: W
LayerCount: 2
Fore
SplineSet
393 854 m 1,0,1
 268 945 268 945 268 1105 c 128,-1,2
 268 1265 268 1265 398 1402.5 c 128,-1,3
 528 1540 528 1540 717 1540 c 0,4,5
 844 1540 844 1540 927 1473.5 c 128,-1,6
 1010 1407 1010 1407 1010 1299.5 c 128,-1,7
 1010 1192 1010 1192 965 1131.5 c 128,-1,8
 920 1071 920 1071 861 1071 c 128,-1,9
 802 1071 802 1071 762 1126 c 1,10,11
 798 1140 798 1140 825 1194 c 128,-1,12
 852 1248 852 1248 852 1307.5 c 128,-1,13
 852 1367 852 1367 816 1393 c 0,14,15
 779 1419 779 1419 736 1419 c 0,16,17
 650 1419 650 1419 590 1330.5 c 128,-1,18
 530 1242 530 1242 530 1130 c 0,19,20
 530 976 530 976 642 898 c 0,21,22
 682 870 682 870 737 856 c 1,23,24
 581 822 581 822 476 669 c 128,-1,25
 371 516 371 516 371 367 c 0,26,27
 371 281 371 281 416 220.5 c 128,-1,28
 461 160 461 160 564 160 c 128,-1,29
 667 160 667 160 777.5 215 c 128,-1,30
 888 270 888 270 944 369 c 1,31,-1
 991 348 l 1,32,33
 910 170 910 170 744.5 66.5 c 128,-1,34
 579 -37 579 -37 391.5 -37 c 128,-1,35
 204 -37 204 -37 109 66.5 c 128,-1,36
 14 170 14 170 14 332 c 128,-1,37
 14 494 14 494 119 653 c 128,-1,38
 224 812 224 812 393 854 c 1,0,1
949 1661 m 1,39,-1
 826 1825 l 1,40,-1
 504 1661 l 1,41,-1
 414 1661 l 1,42,-1
 848 2048 l 1,43,-1
 891 2048 l 1,44,-1
 1014 1661 l 1,45,-1
 949 1661 l 1,39,-1
EndSplineSet
Validated: 1
EndChar

StartChar: Edieresis
Encoding: 275 203 24
Width: 940
Flags: W
LayerCount: 2
Fore
SplineSet
393 854 m 1,0,1
 268 945 268 945 268 1105 c 128,-1,2
 268 1265 268 1265 398 1402.5 c 128,-1,3
 528 1540 528 1540 717 1540 c 0,4,5
 844 1540 844 1540 927 1473.5 c 128,-1,6
 1010 1407 1010 1407 1010 1299.5 c 128,-1,7
 1010 1192 1010 1192 965 1131.5 c 128,-1,8
 920 1071 920 1071 861 1071 c 128,-1,9
 802 1071 802 1071 762 1126 c 1,10,11
 798 1140 798 1140 825 1194 c 128,-1,12
 852 1248 852 1248 852 1307.5 c 128,-1,13
 852 1367 852 1367 816 1393 c 0,14,15
 779 1419 779 1419 736 1419 c 0,16,17
 650 1419 650 1419 590 1330.5 c 128,-1,18
 530 1242 530 1242 530 1130 c 0,19,20
 530 976 530 976 642 898 c 0,21,22
 682 870 682 870 737 856 c 1,23,24
 581 822 581 822 476 669 c 128,-1,25
 371 516 371 516 371 367 c 0,26,27
 371 281 371 281 416 220.5 c 128,-1,28
 461 160 461 160 564 160 c 128,-1,29
 667 160 667 160 777.5 215 c 128,-1,30
 888 270 888 270 944 369 c 1,31,-1
 991 348 l 1,32,33
 910 170 910 170 744.5 66.5 c 128,-1,34
 579 -37 579 -37 391.5 -37 c 128,-1,35
 204 -37 204 -37 109 66.5 c 128,-1,36
 14 170 14 170 14 332 c 128,-1,37
 14 494 14 494 119 653 c 128,-1,38
 224 812 224 812 393 854 c 1,0,1
701 1721 m 1,39,40
 663 1686 663 1686 624 1686 c 0,41,42
 558 1686 558 1686 523 1721.5 c 128,-1,43
 488 1757 488 1757 488 1809 c 128,-1,44
 488 1861 488 1861 523 1898 c 0,45,46
 559 1935 559 1935 611.5 1935 c 128,-1,47
 664 1935 664 1935 701 1898.5 c 128,-1,48
 738 1862 738 1862 738 1809.5 c 128,-1,49
 738 1757 738 1757 701 1721 c 1,39,40
1069 1721 m 1,50,51
 1031 1686 1031 1686 992 1686 c 0,52,53
 928 1686 928 1686 892 1721 c 128,-1,54
 856 1756 856 1756 856 1809 c 128,-1,55
 856 1862 856 1862 892 1898.5 c 128,-1,56
 928 1935 928 1935 980 1935 c 128,-1,57
 1032 1935 1032 1935 1069 1898.5 c 128,-1,58
 1106 1862 1106 1862 1106 1809.5 c 128,-1,59
 1106 1757 1106 1757 1069 1721 c 1,50,51
EndSplineSet
Validated: 1
EndChar

StartChar: Egrave
Encoding: 276 200 25
Width: 940
Flags: W
LayerCount: 2
Fore
SplineSet
393 854 m 1,0,1
 268 945 268 945 268 1105 c 128,-1,2
 268 1265 268 1265 398 1402.5 c 128,-1,3
 528 1540 528 1540 717 1540 c 0,4,5
 844 1540 844 1540 927 1473.5 c 128,-1,6
 1010 1407 1010 1407 1010 1299.5 c 128,-1,7
 1010 1192 1010 1192 965 1131.5 c 128,-1,8
 920 1071 920 1071 861 1071 c 128,-1,9
 802 1071 802 1071 762 1126 c 1,10,11
 798 1140 798 1140 825 1194 c 128,-1,12
 852 1248 852 1248 852 1307.5 c 128,-1,13
 852 1367 852 1367 816 1393 c 0,14,15
 779 1419 779 1419 736 1419 c 0,16,17
 650 1419 650 1419 590 1330.5 c 128,-1,18
 530 1242 530 1242 530 1130 c 0,19,20
 530 976 530 976 642 898 c 0,21,22
 682 870 682 870 737 856 c 1,23,24
 581 822 581 822 476 669 c 128,-1,25
 371 516 371 516 371 367 c 0,26,27
 371 281 371 281 416 220.5 c 128,-1,28
 461 160 461 160 564 160 c 128,-1,29
 667 160 667 160 777.5 215 c 128,-1,30
 888 270 888 270 944 369 c 1,31,-1
 991 348 l 1,32,33
 910 170 910 170 744.5 66.5 c 128,-1,34
 579 -37 579 -37 391.5 -37 c 128,-1,35
 204 -37 204 -37 109 66.5 c 128,-1,36
 14 170 14 170 14 332 c 128,-1,37
 14 494 14 494 119 653 c 128,-1,38
 224 812 224 812 393 854 c 1,0,1
637 1661 m 1,39,-1
 516 2048 l 1,40,-1
 731 2048 l 1,41,-1
 791 1661 l 1,42,-1
 637 1661 l 1,39,-1
EndSplineSet
Validated: 1
EndChar

StartChar: Eogonek
Encoding: 277 280 26
Width: 940
Flags: W
LayerCount: 2
Fore
SplineSet
1022 1262 m 0,0,1
 1022 1073 1022 1073 879 1073 c 0,2,3
 807 1073 807 1073 762 1126 c 1,4,5
 796 1137 796 1137 824 1194.5 c 128,-1,6
 852 1252 852 1252 852 1280 c 0,7,8
 852 1446 852 1446 717 1446 c 0,9,10
 608 1446 608 1446 537.5 1372 c 128,-1,11
 467 1298 467 1298 467 1201.5 c 128,-1,12
 467 1105 467 1105 529 1013 c 1,13,14
 592 922 592 922 737 856 c 1,15,16
 553 779 553 779 467 670.5 c 128,-1,17
 381 562 381 562 381 447 c 128,-1,18
 381 332 381 332 451.5 252 c 128,-1,19
 522 172 522 172 631 172 c 128,-1,20
 740 172 740 172 814 221.5 c 128,-1,21
 888 271 888 271 944 369 c 1,22,-1
 991 348 l 1,23,24
 951 227 951 227 853 140 c 0,25,26
 812 103 812 103 771 73.5 c 128,-1,27
 730 44 730 44 697 10 c 0,28,29
 623 -65 623 -65 623 -172 c 0,30,31
 623 -207 623 -207 641 -240.5 c 128,-1,32
 659 -274 659 -274 699.5 -274 c 128,-1,33
 740 -274 740 -274 775 -249 c 1,34,-1
 842 -205 l 1,35,36
 838 -241 838 -241 838 -268 c 1,37,-1
 797 -308 l 2,38,39
 709 -395 709 -395 622.5 -395 c 128,-1,40
 536 -395 536 -395 494.5 -346 c 128,-1,41
 453 -297 453 -297 453 -238 c 0,42,43
 453 -114 453 -114 600 2 c 1,44,45
 532 -12 532 -12 436 -12 c 0,46,47
 246 -12 246 -12 134.5 109 c 128,-1,48
 23 230 23 230 23 394 c 128,-1,49
 23 558 23 558 120 688 c 128,-1,50
 217 818 217 818 393 854 c 1,51,52
 190 963 190 963 190 1165 c 0,53,54
 190 1313 190 1313 314 1424.5 c 128,-1,55
 438 1536 438 1536 645 1536 c 0,56,57
 802 1536 802 1536 912 1467.5 c 128,-1,58
 1022 1399 1022 1399 1022 1262 c 0,0,1
EndSplineSet
Validated: 1
EndChar

StartChar: Eth
Encoding: 278 208 27
Width: 1358
Flags: W
LayerCount: 2
Fore
SplineSet
1275 602 m 0,0,1
 1178 223 1178 223 968 56 c 0,2,3
 865 -27 865 -27 747.5 -27 c 128,-1,4
 630 -27 630 -27 504 82 c 1,5,-1
 487 0 l 1,6,-1
 193 0 l 1,7,-1
 344 707 l 1,8,-1
 264 707 l 1,9,-1
 305 858 l 1,10,-1
 377 858 l 1,11,-1
 471 1303 l 1,12,-1
 774 1343 l 1,13,-1
 670 858 l 1,14,-1
 831 858 l 1,15,-1
 791 707 l 1,16,-1
 637 707 l 1,17,-1
 528 195 l 1,18,19
 584 154 584 154 645 154 c 0,20,21
 737 154 737 154 810 236 c 256,22,23
 950 393 950 393 1010 736 c 0,24,25
 1038 891 1038 891 1038 1014 c 128,-1,26
 1038 1137 1038 1137 1027 1212 c 128,-1,27
 1016 1287 1016 1287 985 1338 c 0,28,29
 922 1442 922 1442 756 1442 c 0,30,31
 504 1442 504 1442 354 1308 c 0,32,33
 203 1174 203 1174 203 944 c 0,34,35
 203 861 203 861 226 819 c 0,36,37
 231 811 231 811 231 805 c 1,38,39
 67 805 67 805 26 910 c 0,40,41
 12 948 12 948 12 1004 c 0,42,43
 12 1107 12 1107 76.5 1202.5 c 128,-1,44
 141 1298 141 1298 243 1372 c 1,45,46
 476 1536 476 1536 731 1536 c 0,47,48
 1321 1536 1321 1536 1321 983 c 0,49,50
 1321 782 1321 782 1275 602 c 0,0,1
EndSplineSet
Validated: 1
EndChar

StartChar: Euro
Encoding: 279 8364 28
Width: 1174
Flags: W
LayerCount: 2
Fore
SplineSet
1214 1262 m 0,0,1
 1214 1073 1214 1073 1071 1073 c 0,2,3
 999 1073 999 1073 954 1126 c 1,4,5
 1009 1146 1009 1146 1037 1249 c 0,6,7
 1044 1275 1044 1275 1044 1291 c 0,8,9
 1044 1344 1044 1344 1023 1380 c 0,10,11
 988 1440 988 1440 913 1440 c 0,12,13
 781 1440 781 1440 684.5 1291.5 c 128,-1,14
 588 1143 588 1143 535 920 c 1,15,-1
 948 920 l 1,16,-1
 920 817 l 1,17,-1
 512 817 l 1,18,19
 506 782 506 782 503 749.5 c 128,-1,20
 500 717 500 717 496 684 c 1,21,-1
 897 684 l 1,22,-1
 868 582 l 1,23,-1
 489 582 l 1,24,-1
 489 555 l 2,25,26
 489 344 489 344 544 258 c 128,-1,27
 599 172 599 172 766 172 c 128,-1,28
 933 172 933 172 1014 214 c 0,29,30
 1045 230 1045 230 1075 254 c 1,31,-1
 1079 195 l 1,32,33
 989 75 989 75 875.5 31.5 c 128,-1,34
 762 -12 762 -12 597.5 -12 c 128,-1,35
 433 -12 433 -12 315 92 c 0,36,37
 168 220 168 220 168 510 c 2,38,-1
 168 582 l 1,39,-1
 -6 582 l 1,40,-1
 23 684 l 1,41,-1
 174 684 l 1,42,43
 186 786 186 786 190 817 c 1,44,-1
 45 817 l 1,45,-1
 74 920 l 1,46,-1
 211 920 l 1,47,48
 312 1349 312 1349 605 1486 c 0,49,50
 713 1536 713 1536 858 1536 c 0,51,52
 1104 1536 1104 1536 1186 1387 c 0,53,54
 1214 1335 1214 1335 1214 1262 c 0,0,1
EndSplineSet
Validated: 1
EndChar

StartChar: F
Encoding: 70 70 29
Width: 940
Flags: W
LayerCount: 2
Fore
SplineSet
1047 1290 m 1,0,1
 936 1290 936 1290 760 1329 c 1,2,-1
 674 922 l 1,3,-1
 973 922 l 1,4,-1
 940 770 l 1,5,-1
 641 770 l 1,6,-1
 475 0 l 1,7,-1
 180 0 l 1,8,-1
 475 1368 l 1,9,10
 345 1364 345 1364 277 1270 c 0,11,12
 209 1177 209 1177 209 944 c 0,13,14
 209 863 209 863 234 819 c 0,15,16
 238 811 238 811 238 805 c 1,17,18
 73 805 73 805 32 910 c 0,19,20
 18 948 18 948 18 1027 c 128,-1,21
 18 1106 18 1106 56 1202 c 128,-1,22
 94 1298 94 1298 178 1372 c 0,23,24
 363 1536 363 1536 717 1536 c 0,25,26
 784 1536 784 1536 871 1523.5 c 128,-1,27
 958 1511 958 1511 1061 1511 c 0,28,29
 1164 1511 1164 1511 1241 1536 c 1,30,-1
 1222 1467 l 1,31,32
 1185 1320 1185 1320 1047 1290 c 1,0,1
EndSplineSet
Validated: 1
EndChar

StartChar: F_i
Encoding: 280 -1 30
Width: 1487
Flags: W
LayerCount: 2
Fore
SplineSet
221 0 m 1,0,-1
 516 1368 l 1,1,-1
 494 1368 l 2,2,3
 357 1368 357 1368 283 1274.5 c 128,-1,4
 209 1181 209 1181 209 944 c 0,5,6
 209 863 209 863 234 819 c 0,7,8
 238 811 238 811 238 805 c 1,9,10
 73 805 73 805 32 910 c 0,11,12
 18 948 18 948 18 1027 c 128,-1,13
 18 1106 18 1106 56 1202 c 128,-1,14
 94 1298 94 1298 178 1372 c 0,15,16
 363 1536 363 1536 717 1536 c 0,17,18
 769 1536 769 1536 824 1530 c 2,19,-1
 936 1516 l 2,20,21
 1096 1495 1096 1495 1219.5 1495 c 128,-1,22
 1343 1495 1343 1495 1487 1534 c 1,23,24
 1449 1319 1449 1319 1336 1246 c 1,25,26
 1293 1217 1293 1217 1231 1217 c 128,-1,27
 1169 1217 1169 1217 1118 1229 c 128,-1,28
 1067 1241 1067 1241 1018 1258 c 128,-1,29
 969 1275 969 1275 918 1295 c 128,-1,30
 867 1315 867 1315 803 1331 c 1,31,-1
 715 922 l 1,32,-1
 973 922 l 1,33,-1
 940 770 l 1,34,-1
 682 770 l 1,35,-1
 516 0 l 1,36,-1
 221 0 l 1,0,-1
1573 367 m 1,37,38
 1441 -12 1441 -12 1132 -12 c 0,39,40
 1051 -12 1051 -12 987 46 c 0,41,42
 924 104 924 104 924 233 c 0,43,44
 924 291 924 291 940 367 c 2,45,-1
 1079 1024 l 1,46,-1
 1374 1024 l 1,47,-1
 1227 328 l 2,48,49
 1219 291 1219 291 1219 255 c 0,50,51
 1219 186 1219 186 1302 186 c 0,52,53
 1362 186 1362 186 1413.5 238 c 128,-1,54
 1465 290 1465 290 1487 367 c 1,55,-1
 1573 367 l 1,37,38
EndSplineSet
Validated: 1
Ligature2: "'liga' Standard Ligatures in Latin lookup 2 subtable" F i
EndChar

StartChar: G
Encoding: 71 71 31
Width: 1184
Flags: W
LayerCount: 2
Fore
SplineSet
950 1279 m 0,0,1
 950 1440 950 1440 809 1440 c 0,2,3
 726 1440 726 1440 642.5 1375 c 128,-1,4
 559 1310 559 1310 495.5 1209 c 128,-1,5
 432 1108 432 1108 393 981 c 128,-1,6
 354 854 354 854 354 759 c 0,7,8
 354 585 354 585 413 489 c 128,-1,9
 472 393 472 393 590 393 c 128,-1,10
 708 393 708 393 766 469 c 1,11,-1
 854 858 l 1,12,-1
 1118 856 l 1,13,-1
 950 86 l 1,14,15
 898 -167 898 -167 781 -295.5 c 128,-1,16
 664 -424 664 -424 426 -424 c 0,17,18
 290 -424 290 -424 215.5 -341 c 128,-1,19
 141 -258 141 -258 141 -144 c 128,-1,20
 141 -30 141 -30 208.5 54.5 c 128,-1,21
 276 139 276 139 377.5 139 c 128,-1,22
 479 139 479 139 515 122 c 1,23,24
 592 88 592 88 592 2 c 0,25,26
 592 -35 592 -35 580 -80 c 1,27,28
 517 -27 517 -27 451 -27 c 128,-1,29
 385 -27 385 -27 349 -76.5 c 128,-1,30
 313 -126 313 -126 313 -180.5 c 128,-1,31
 313 -235 313 -235 344.5 -278.5 c 128,-1,32
 376 -322 376 -322 427 -322 c 128,-1,33
 478 -322 478 -322 508 -312 c 0,34,35
 600 -283 600 -283 647 -70 c 2,36,-1
 729 297 l 1,37,38
 593 223 593 223 473 223 c 0,39,40
 244 223 244 223 133 379 c 0,41,42
 39 512 39 512 39 748 c 0,43,44
 39 896 39 896 88 1038 c 0,45,46
 163 1251 163 1251 339.5 1393.5 c 128,-1,47
 516 1536 516 1536 767.5 1536 c 128,-1,48
 1019 1536 1019 1536 1112 1387 c 0,49,50
 1145 1335 1145 1335 1145 1262 c 0,51,52
 1145 1073 1145 1073 1001 1073 c 0,53,54
 906 1073 906 1073 860 1126 c 1,55,56
 894 1139 894 1139 922 1195 c 128,-1,57
 950 1251 950 1251 950 1279 c 0,0,1
EndSplineSet
Validated: 1
EndChar

StartChar: H
Encoding: 72 72 32
Width: 1362
Flags: W
LayerCount: 2
Fore
SplineSet
801 0 m 1,0,-1
 965 770 l 1,1,-1
 664 770 l 1,2,-1
 500 0 l 1,3,-1
 205 0 l 1,4,-1
 502 1393 l 1,5,6
 366 1335 366 1335 290.5 1222 c 128,-1,7
 215 1109 215 1109 215 944 c 0,8,9
 215 863 215 863 240 819 c 0,10,11
 244 811 244 811 244 805 c 1,12,13
 78 805 78 805 39 910 c 0,14,15
 25 948 25 948 25 1004 c 0,16,17
 25 1107 25 1107 90 1202 c 0,18,19
 221 1397 221 1397 486 1491 c 256,20,21
 613 1536 613 1536 743 1536 c 0,22,23
 785 1536 785 1536 825 1532 c 1,24,-1
 694 922 l 1,25,-1
 995 922 l 1,26,-1
 1126 1532 l 1,27,-1
 1421 1532 l 1,28,-1
 1096 0 l 1,29,-1
 801 0 l 1,0,-1
EndSplineSet
Validated: 1
EndChar

StartChar: I
Encoding: 73 73 33
Width: 768
Flags: W
LayerCount: 2
Fore
SplineSet
489 1391 m 1,0,1
 203 1271 203 1271 203 944 c 0,2,3
 203 861 203 861 226 819 c 0,4,5
 231 811 231 811 231 805 c 1,6,7
 67 805 67 805 26 910 c 0,8,9
 12 948 12 948 12 1004 c 0,10,11
 12 1107 12 1107 76.5 1202.5 c 128,-1,12
 141 1298 141 1298 243 1372 c 1,13,14
 476 1536 476 1536 731 1536 c 0,15,16
 773 1536 773 1536 813 1532 c 1,17,-1
 487 0 l 1,18,-1
 193 0 l 1,19,-1
 489 1391 l 1,0,1
EndSplineSet
Validated: 1
EndChar

StartChar: IJ
Encoding: 281 306 34
Width: 1358
Flags: W
LayerCount: 2
Fore
SplineSet
559 -424 m 0,0,1
 229 -424 229 -424 229 -132 c 0,2,3
 229 -61 229 -61 261 0 c 1,4,-1
 193 0 l 1,5,-1
 489 1391 l 1,6,7
 203 1271 203 1271 203 944 c 0,8,9
 203 861 203 861 226 819 c 0,10,11
 231 811 231 811 231 805 c 1,12,13
 67 805 67 805 26 910 c 0,14,15
 12 948 12 948 12 1004 c 0,16,17
 12 1107 12 1107 76.5 1202.5 c 128,-1,18
 141 1298 141 1298 243 1372 c 1,19,20
 476 1536 476 1536 731 1536 c 0,21,22
 773 1536 773 1536 813 1532 c 1,23,-1
 512 118 l 1,24,25
 566 111 566 111 607.5 79.5 c 128,-1,26
 649 48 649 48 649 -12 c 0,27,28
 649 -40 649 -40 635 -80 c 1,29,30
 588 -33 588 -33 533.5 -33 c 128,-1,31
 479 -33 479 -33 440 -77 c 256,32,33
 401 -121 401 -121 401 -166 c 0,34,35
 401 -243 401 -243 440.5 -282.5 c 128,-1,36
 480 -322 480 -322 546.5 -322 c 128,-1,37
 613 -322 613 -322 659 -267.5 c 128,-1,38
 705 -213 705 -213 735 -70 c 1,39,-1
 1071 1468 l 1,40,-1
 1378 1536 l 1,41,-1
 1071 82 l 1,42,43
 967 -424 967 -424 559 -424 c 0,0,1
EndSplineSet
Validated: 1
Ligature2: "'liga' Standard Ligatures in Latin lookup 2 subtable" I J
EndChar

StartChar: Iacute
Encoding: 282 205 35
Width: 768
Flags: W
LayerCount: 2
Fore
SplineSet
489 1391 m 1,0,1
 203 1271 203 1271 203 944 c 0,2,3
 203 861 203 861 226 819 c 0,4,5
 231 811 231 811 231 805 c 1,6,7
 67 805 67 805 26 910 c 0,8,9
 12 948 12 948 12 1004 c 0,10,11
 12 1107 12 1107 76.5 1202.5 c 128,-1,12
 141 1298 141 1298 243 1372 c 1,13,14
 476 1536 476 1536 731 1536 c 0,15,16
 773 1536 773 1536 813 1532 c 1,17,-1
 487 0 l 1,18,-1
 193 0 l 1,19,-1
 489 1391 l 1,0,1
551 1661 m 1,20,-1
 737 2048 l 1,21,-1
 952 2048 l 1,22,-1
 704 1661 l 1,23,-1
 551 1661 l 1,20,-1
EndSplineSet
Validated: 1
EndChar

StartChar: Icircumflex
Encoding: 283 206 36
Width: 768
Flags: W
LayerCount: 2
Fore
SplineSet
489 1391 m 1,0,1
 203 1271 203 1271 203 944 c 0,2,3
 203 861 203 861 226 819 c 0,4,5
 231 811 231 811 231 805 c 1,6,7
 67 805 67 805 26 910 c 0,8,9
 12 948 12 948 12 1004 c 0,10,11
 12 1107 12 1107 76.5 1202.5 c 128,-1,12
 141 1298 141 1298 243 1372 c 1,13,14
 476 1536 476 1536 731 1536 c 0,15,16
 773 1536 773 1536 813 1532 c 1,17,-1
 487 0 l 1,18,-1
 193 0 l 1,19,-1
 489 1391 l 1,0,1
844 1661 m 1,20,-1
 721 1825 l 1,21,-1
 399 1661 l 1,22,-1
 309 1661 l 1,23,-1
 743 2048 l 1,24,-1
 786 2048 l 1,25,-1
 909 1661 l 1,26,-1
 844 1661 l 1,20,-1
EndSplineSet
Validated: 1
EndChar

StartChar: Idieresis
Encoding: 284 207 37
Width: 768
Flags: W
LayerCount: 2
Fore
SplineSet
489 1391 m 1,0,1
 203 1271 203 1271 203 944 c 0,2,3
 203 861 203 861 226 819 c 0,4,5
 231 811 231 811 231 805 c 1,6,7
 67 805 67 805 26 910 c 0,8,9
 12 948 12 948 12 1004 c 0,10,11
 12 1107 12 1107 76.5 1202.5 c 128,-1,12
 141 1298 141 1298 243 1372 c 1,13,14
 476 1536 476 1536 731 1536 c 0,15,16
 773 1536 773 1536 813 1532 c 1,17,-1
 487 0 l 1,18,-1
 193 0 l 1,19,-1
 489 1391 l 1,0,1
555 1721 m 1,20,21
 517 1686 517 1686 478 1686 c 0,22,23
 412 1686 412 1686 377 1721.5 c 128,-1,24
 342 1757 342 1757 342 1809 c 128,-1,25
 342 1861 342 1861 377 1898 c 0,26,27
 413 1935 413 1935 465.5 1935 c 128,-1,28
 518 1935 518 1935 555 1898.5 c 128,-1,29
 592 1862 592 1862 592 1809.5 c 128,-1,30
 592 1757 592 1757 555 1721 c 1,20,21
923 1721 m 1,31,32
 885 1686 885 1686 846 1686 c 0,33,34
 782 1686 782 1686 746 1721 c 128,-1,35
 710 1756 710 1756 710 1809 c 128,-1,36
 710 1862 710 1862 746 1898.5 c 128,-1,37
 782 1935 782 1935 834 1935 c 128,-1,38
 886 1935 886 1935 923 1898.5 c 128,-1,39
 960 1862 960 1862 960 1809.5 c 128,-1,40
 960 1757 960 1757 923 1721 c 1,31,32
EndSplineSet
Validated: 1
EndChar

StartChar: Igrave
Encoding: 285 204 38
Width: 768
Flags: W
LayerCount: 2
Fore
SplineSet
489 1391 m 1,0,1
 203 1271 203 1271 203 944 c 0,2,3
 203 861 203 861 226 819 c 0,4,5
 231 811 231 811 231 805 c 1,6,7
 67 805 67 805 26 910 c 0,8,9
 12 948 12 948 12 1004 c 0,10,11
 12 1107 12 1107 76.5 1202.5 c 128,-1,12
 141 1298 141 1298 243 1372 c 1,13,14
 476 1536 476 1536 731 1536 c 0,15,16
 773 1536 773 1536 813 1532 c 1,17,-1
 487 0 l 1,18,-1
 193 0 l 1,19,-1
 489 1391 l 1,0,1
471 1661 m 1,20,-1
 350 2048 l 1,21,-1
 565 2048 l 1,22,-1
 625 1661 l 1,23,-1
 471 1661 l 1,20,-1
EndSplineSet
Validated: 1
EndChar

StartChar: J
Encoding: 74 74 39
Width: 1098
Flags: W
LayerCount: 2
Fore
SplineSet
862 1393 m 1,0,1
 727 1337 727 1337 650 1223.5 c 128,-1,2
 573 1110 573 1110 573 944 c 0,3,4
 573 863 573 863 598 819 c 0,5,6
 602 811 602 811 602 805 c 1,7,8
 438 805 438 805 398 910 c 0,9,10
 383 948 383 948 383 1004 c 0,11,12
 383 1107 383 1107 447.5 1202.5 c 128,-1,13
 512 1298 512 1298 614 1372 c 1,14,15
 847 1536 847 1536 1102 1536 c 2,16,-1
 1184 1536 l 1,17,-1
 877 82 l 1,18,19
 823 -168 823 -168 700.5 -296 c 128,-1,20
 578 -424 578 -424 338 -424 c 0,21,22
 190 -424 190 -424 112 -344 c 0,23,24
 35 -264 35 -264 35 -144.5 c 128,-1,25
 35 -25 35 -25 102 57 c 128,-1,26
 169 139 169 139 270.5 139 c 128,-1,27
 372 139 372 139 408 122 c 1,28,29
 485 88 485 88 485 2 c 0,30,31
 485 -35 485 -35 473 -80 c 1,32,33
 416 -34 416 -34 390.5 -30.5 c 128,-1,34
 365 -27 365 -27 350 -27 c 0,35,36
 279 -27 279 -27 243 -74 c 256,37,38
 207 -121 207 -121 207 -170 c 0,39,40
 207 -252 207 -252 249.5 -287 c 128,-1,41
 292 -322 292 -322 336 -322 c 0,42,43
 419 -322 419 -322 462 -272.5 c 128,-1,44
 505 -223 505 -223 541 -70 c 1,45,-1
 862 1393 l 1,0,1
EndSplineSet
Validated: 1
EndChar

StartChar: K
Encoding: 75 75 40
Width: 1231
Flags: W
LayerCount: 2
Fore
SplineSet
842 641 m 1,0,1
 842 780 842 780 719 780 c 0,2,3
 691 780 691 780 651 772 c 1,4,-1
 487 0 l 1,5,-1
 193 0 l 1,6,-1
 489 1393 l 1,7,8
 353 1335 353 1335 278 1222 c 128,-1,9
 203 1109 203 1109 203 944 c 0,10,11
 203 861 203 861 226 819 c 0,12,13
 231 811 231 811 231 805 c 1,14,15
 67 805 67 805 26 910 c 0,16,17
 12 948 12 948 12 1004 c 0,18,19
 12 1107 12 1107 76.5 1202.5 c 128,-1,20
 141 1298 141 1298 243 1372 c 1,21,22
 476 1536 476 1536 731 1536 c 0,23,24
 773 1536 773 1536 813 1532 c 1,25,-1
 680 905 l 1,26,27
 1130 1508 l 1,28,-1
 1145 1526 l 1,29,-1
 1360 1526 l 1,30,-1
 791 870 l 1,31,-1
 862 872 l 1,32,33
 1067 872 1067 872 1104 740 c 0,34,35
 1116 700 1116 700 1116 645 c 0,36,37
 1116 562 1116 562 1066 380 c 128,-1,38
 1016 198 1016 198 1016 143 c 0,39,40
 1016 30 1016 30 1096 0 c 1,41,42
 968 -35 968 -35 893 -35 c 0,43,44
 733 -35 733 -35 733 102 c 1,45,46
 734 174 734 174 787.5 364.5 c 128,-1,47
 841 555 841 555 842 641 c 1,0,1
EndSplineSet
Validated: 1
EndChar

StartChar: L
Encoding: 76 76 41
Width: 776
Flags: W
LayerCount: 2
Fore
SplineSet
489 1370 m 1,0,1
 353 1315 353 1315 278 1203 c 128,-1,2
 203 1091 203 1091 203 924 c 0,3,4
 203 841 203 841 226 799 c 0,5,6
 231 791 231 791 231 784 c 1,7,8
 67 784 67 784 26 889 c 0,9,10
 12 927 12 927 12 983 c 0,11,12
 12 1183 12 1183 243 1351 c 1,13,14
 477 1516 477 1516 731 1516 c 0,15,16
 763 1516 763 1516 813 1511 c 1,17,-1
 498 41 l 1,18,19
 582 22 582 22 675 -28 c 2,20,-1
 824 -109 l 1,21,22
 1031 -223 1031 -223 1186 -223 c 0,23,24
 1280 -223 1280 -223 1358 -190 c 1,25,26
 1342 -336 1342 -336 1285.5 -424 c 128,-1,27
 1229 -512 1229 -512 1145 -512 c 0,28,29
 1013 -512 1013 -512 832 -372 c 1,30,31
 598 -192 l 1,32,33
 400 -47 400 -47 231 -47 c 2,34,-1
 208 -47 l 2,35,36
 197 -47 197 -47 184 -49 c 1,37,-1
 489 1370 l 1,0,1
EndSplineSet
Validated: 1
EndChar

StartChar: Lslash
Encoding: 286 321 42
Width: 803
GlyphClass: 2
Flags: W
LayerCount: 2
Fore
SplineSet
328 604 m 1,0,-1
 195 524 l 1,1,-1
 199 633 l 1,2,-1
 354 733 l 1,3,-1
 489 1370 l 1,4,5
 353 1315 353 1315 278 1203 c 128,-1,6
 203 1091 203 1091 203 924 c 0,7,8
 203 841 203 841 226 799 c 0,9,10
 231 791 231 791 231 784 c 1,11,12
 67 784 67 784 26 889 c 0,13,14
 12 927 12 927 12 983 c 0,15,16
 12 1183 12 1183 243 1351 c 1,17,18
 477 1516 477 1516 731 1516 c 0,19,20
 763 1516 763 1516 813 1511 c 1,21,-1
 700 973 l 1,22,-1
 938 1114 l 1,23,-1
 930 989 l 1,24,-1
 670 829 l 1,25,-1
 498 41 l 1,26,27
 582 22 582 22 675 -28 c 2,28,-1
 823 -109 l 1,29,30
 1029 -223 1029 -223 1186 -223 c 0,31,32
 1280 -223 1280 -223 1358 -190 c 1,33,34
 1342 -336 1342 -336 1285.5 -424 c 128,-1,35
 1229 -512 1229 -512 1145 -512 c 0,36,37
 1013 -512 1013 -512 832 -372 c 1,38,39
 598 -192 l 1,40,41
 400 -47 400 -47 231 -47 c 2,42,-1
 208 -47 l 2,43,44
 197 -47 197 -47 184 -49 c 1,45,-1
 328 604 l 1,0,-1
EndSplineSet
Validated: 1
EndChar

StartChar: M
Encoding: 77 77 43
Width: 1612
Flags: W
LayerCount: 2
Fore
SplineSet
360 805 m 1,0,1
 141 805 141 805 141 991 c 0,2,3
 141 1185 141 1185 350 1362 c 0,4,5
 441 1440 441 1440 558.5 1488 c 128,-1,6
 676 1536 676 1536 773 1536 c 128,-1,7
 870 1536 870 1536 948 1507 c 1,8,-1
 901 428 l 1,9,-1
 1352 1507 l 1,10,-1
 1647 1507 l 1,11,-1
 1432 0 l 1,12,-1
 1137 0 l 1,13,-1
 1268 920 l 1,14,-1
 883 0 l 1,15,-1
 602 0 l 1,16,-1
 643 924 l 1,17,-1
 301 0 l 1,18,-1
 137 0 l 1,19,-1
 657 1407 l 1,20,21
 504 1356 504 1356 418 1239 c 128,-1,22
 332 1122 332 1122 332 946 c 0,23,24
 332 858 332 858 356 818 c 0,25,26
 360 811 360 811 360 805 c 1,0,1
EndSplineSet
Validated: 1
EndChar

StartChar: N
Encoding: 78 78 44
Width: 1368
Flags: W
LayerCount: 2
Fore
SplineSet
889 0 m 1,0,-1
 715 1071 l 1,1,-1
 487 0 l 1,2,-1
 193 0 l 1,3,-1
 487 1391 l 1,4,5
 351 1334 351 1334 277 1221.5 c 128,-1,6
 203 1109 203 1109 203 944 c 0,7,8
 203 861 203 861 226 819 c 0,9,10
 231 811 231 811 231 805 c 1,11,12
 67 805 67 805 26 910 c 0,13,14
 12 948 12 948 12 1005.5 c 128,-1,15
 12 1063 12 1063 30.5 1125 c 128,-1,16
 49 1187 49 1187 84 1246 c 0,17,18
 160 1375 160 1375 292 1455.5 c 128,-1,19
 424 1536 424 1536 592 1536 c 0,20,21
 640 1536 640 1536 688.5 1533 c 128,-1,22
 737 1530 737 1530 782 1507 c 1,23,-1
 944 422 l 1,24,-1
 1167 1532 l 1,25,-1
 1462 1532 l 1,26,-1
 1137 0 l 1,27,-1
 889 0 l 1,0,-1
EndSplineSet
Validated: 1
Substitution2: "'salt' Stylistic Alternatives in Latin lookup 8 subtable" N.salt
Substitution2: "'aalt' Access All Alternates in Latin lookup 0 subtable" N.salt
EndChar

StartChar: N.salt
Encoding: 287 -1 45
Width: 1370
Flags: W
LayerCount: 2
Fore
SplineSet
1096 -12 m 0,0,1
 834 -12 834 -12 834 219 c 0,2,3
 834 286 834 286 874 459 c 1,4,5
 1010 1031 1010 1031 1022 1102 c 128,-1,6
 1034 1173 1034 1173 1034 1198 c 0,7,8
 1034 1350 1034 1350 909 1350 c 0,9,10
 859 1350 859 1350 812.5 1306.5 c 128,-1,11
 766 1263 766 1263 741 1200 c 1,12,-1
 741 1198 l 1,13,-1
 487 0 l 1,14,-1
 166 0 l 1,15,-1
 461 1378 l 1,16,17
 203 1253 203 1253 203 944 c 0,18,19
 203 861 203 861 226 819 c 0,20,21
 231 811 231 811 231 805 c 1,22,23
 67 805 67 805 26 910 c 0,24,25
 12 948 12 948 12 1004 c 0,26,27
 12 1107 12 1107 76.5 1202.5 c 128,-1,28
 141 1298 141 1298 243 1372 c 1,29,30
 476 1536 476 1536 731 1536 c 0,31,32
 773 1536 773 1536 813 1532 c 1,33,-1
 788 1419 l 1,34,35
 897 1536 897 1536 1044 1536 c 0,36,37
 1154 1536 1154 1536 1238.5 1461 c 128,-1,38
 1323 1386 1323 1386 1323 1243 c 0,39,40
 1323 1138 1323 1138 1219.5 736 c 128,-1,41
 1116 334 1116 334 1116 283.5 c 128,-1,42
 1116 233 1116 233 1133.5 209.5 c 128,-1,43
 1151 186 1151 186 1191 186 c 0,44,45
 1260 186 1260 186 1297 230 c 128,-1,46
 1334 274 1334 274 1370 367 c 1,47,-1
 1456 367 l 1,48,49
 1380 141 1380 141 1264 50 c 0,50,51
 1184 -12 1184 -12 1096 -12 c 0,0,1
EndSplineSet
Validated: 1
EndChar

StartChar: Nacute
Encoding: 288 323 46
Width: 1438
Flags: W
LayerCount: 2
Fore
SplineSet
889 0 m 1,0,-1
 715 1071 l 1,1,-1
 487 0 l 1,2,-1
 193 0 l 1,3,-1
 487 1391 l 1,4,5
 351 1334 351 1334 277 1221.5 c 128,-1,6
 203 1109 203 1109 203 944 c 0,7,8
 203 861 203 861 226 819 c 0,9,10
 231 811 231 811 231 805 c 1,11,12
 67 805 67 805 26 910 c 0,13,14
 12 948 12 948 12 1005.5 c 128,-1,15
 12 1063 12 1063 30.5 1125 c 128,-1,16
 49 1187 49 1187 84 1246 c 0,17,18
 160 1375 160 1375 292 1455.5 c 128,-1,19
 424 1536 424 1536 592 1536 c 0,20,21
 640 1536 640 1536 688.5 1533 c 128,-1,22
 737 1530 737 1530 782 1507 c 1,23,-1
 944 422 l 1,24,-1
 1167 1532 l 1,25,-1
 1462 1532 l 1,26,-1
 1137 0 l 1,27,-1
 889 0 l 1,0,-1
1016 1661 m 1,28,-1
 1202 2048 l 1,29,-1
 1417 2048 l 1,30,-1
 1169 1661 l 1,31,-1
 1016 1661 l 1,28,-1
EndSplineSet
Validated: 1
EndChar

StartChar: O
Encoding: 79 79 47
Width: 1362
Flags: W
LayerCount: 2
Fore
SplineSet
858 1536 m 0,0,1
 1343 1536 1343 1536 1343 1012 c 0,2,3
 1343 659 1343 659 1166 352 c 1,4,5
 1040 131 1040 131 830 36 c 0,6,7
 722 -12 722 -12 614.5 -12 c 128,-1,8
 507 -12 507 -12 440 10 c 0,9,10
 221 84 221 84 221 399 c 0,11,12
 221 610 221 610 300 848 c 0,13,14
 426 1232 426 1232 646 1332 c 0,15,16
 707 1360 707 1360 772.5 1360 c 128,-1,17
 838 1360 838 1360 883 1343 c 1,18,19
 794 1290 794 1290 707 1116 c 0,20,21
 581 867 581 867 538 564 c 0,22,23
 524 470 524 470 524 391 c 0,24,25
 524 154 524 154 643 154 c 0,26,27
 644 154 644 154 645 154 c 0,28,29
 744 154 744 154 843 298 c 128,-1,30
 942 442 942 442 1006.5 661.5 c 128,-1,31
 1071 881 1071 881 1071 1077.5 c 128,-1,32
 1071 1274 1071 1274 1017 1358 c 128,-1,33
 963 1442 963 1442 809 1442 c 0,34,35
 563 1442 563 1442 391 1296.5 c 128,-1,36
 219 1151 219 1151 219 915 c 0,37,38
 219 855 219 855 229.5 835.5 c 128,-1,39
 240 816 240 816 240 805 c 1,40,41
 140 805 140 805 86.5 844 c 128,-1,42
 33 883 33 883 33 983 c 128,-1,43
 33 1083 33 1083 101 1184 c 0,44,45
 246 1396 246 1396 548 1490 c 0,46,47
 698 1536 698 1536 858 1536 c 0,0,1
EndSplineSet
Validated: 1
EndChar

StartChar: OE
Encoding: 289 338 48
Width: 1733
Flags: W
LayerCount: 2
Fore
SplineSet
1253 1364 m 1,0,1
 1343 1236 1343 1236 1343 1012 c 0,2,3
 1343 939 1343 939 1333 858 c 1,4,-1
 1606 858 l 1,5,-1
 1565 707 l 1,6,-1
 1306 707 l 1,7,8
 1262 518 1262 518 1166 351 c 0,9,10
 1124 278 1124 278 1071 217 c 1,11,-1
 1569 217 l 1,12,-1
 1526 0 l 1,13,-1
 733 0 l 1,14,15
 666 -12 666 -12 586 -12 c 0,16,17
 418 -12 418 -12 319.5 86.5 c 128,-1,18
 221 185 221 185 221 397.5 c 128,-1,19
 221 610 221 610 300 848 c 0,20,21
 426 1232 426 1232 646 1332 c 0,22,23
 707 1360 707 1360 772.5 1360 c 128,-1,24
 838 1360 838 1360 883 1343 c 1,25,26
 794 1290 794 1290 707 1116 c 0,27,28
 581 867 581 867 538 564 c 0,29,30
 524 470 524 470 524 391 c 0,31,32
 524 154 524 154 643 154 c 0,33,34
 644 154 644 154 645 154 c 0,35,36
 744 154 744 154 843 298 c 128,-1,37
 942 442 942 442 1006.5 661.5 c 128,-1,38
 1071 881 1071 881 1071 1077.5 c 128,-1,39
 1071 1274 1071 1274 1017 1358 c 128,-1,40
 963 1442 963 1442 809 1442 c 0,41,42
 563 1442 563 1442 391 1296.5 c 128,-1,43
 219 1151 219 1151 219 915 c 0,44,45
 219 855 219 855 229.5 835.5 c 128,-1,46
 240 816 240 816 240 805 c 1,47,48
 140 805 140 805 86.5 844 c 128,-1,49
 33 883 33 883 33 983 c 128,-1,50
 33 1083 33 1083 101 1184 c 0,51,52
 246 1396 246 1396 548 1490 c 0,53,54
 698 1536 698 1536 844.5 1536 c 128,-1,55
 991 1536 991 1536 1083 1498 c 1,56,57
 1201 1536 1201 1536 1308 1536 c 128,-1,58
 1415 1536 1415 1536 1502 1523.5 c 128,-1,59
 1589 1511 1589 1511 1692 1511 c 128,-1,60
 1795 1511 1795 1511 1872 1536 c 1,61,-1
 1853 1466 l 2,62,63
 1814 1320 1814 1320 1677 1290 c 1,64,65
 1579 1290 1579 1290 1445 1324 c 128,-1,66
 1311 1358 1311 1358 1253 1364 c 1,0,1
EndSplineSet
Validated: 1
EndChar

StartChar: Oacute
Encoding: 290 211 49
Width: 1348
Flags: W
LayerCount: 2
Fore
SplineSet
858 1536 m 0,0,1
 1343 1536 1343 1536 1343 1012 c 0,2,3
 1343 659 1343 659 1166 352 c 1,4,5
 1040 131 1040 131 830 36 c 0,6,7
 722 -12 722 -12 614.5 -12 c 128,-1,8
 507 -12 507 -12 440 10 c 0,9,10
 221 84 221 84 221 399 c 0,11,12
 221 610 221 610 300 848 c 0,13,14
 426 1232 426 1232 646 1332 c 0,15,16
 707 1360 707 1360 772.5 1360 c 128,-1,17
 838 1360 838 1360 883 1343 c 1,18,19
 794 1290 794 1290 707 1116 c 0,20,21
 581 867 581 867 538 564 c 0,22,23
 524 470 524 470 524 391 c 0,24,25
 524 154 524 154 643 154 c 0,26,27
 644 154 644 154 645 154 c 0,28,29
 744 154 744 154 843 298 c 128,-1,30
 942 442 942 442 1006.5 661.5 c 128,-1,31
 1071 881 1071 881 1071 1077.5 c 128,-1,32
 1071 1274 1071 1274 1017 1358 c 128,-1,33
 963 1442 963 1442 809 1442 c 0,34,35
 563 1442 563 1442 391 1296.5 c 128,-1,36
 219 1151 219 1151 219 915 c 0,37,38
 219 855 219 855 229.5 835.5 c 128,-1,39
 240 816 240 816 240 805 c 1,40,41
 140 805 140 805 86.5 844 c 128,-1,42
 33 883 33 883 33 983 c 128,-1,43
 33 1083 33 1083 101 1184 c 0,44,45
 246 1396 246 1396 548 1490 c 0,46,47
 698 1536 698 1536 858 1536 c 0,0,1
813 1661 m 1,48,-1
 999 2048 l 1,49,-1
 1214 2048 l 1,50,-1
 966 1661 l 1,51,-1
 813 1661 l 1,48,-1
EndSplineSet
Validated: 1
EndChar

StartChar: Ocircumflex
Encoding: 291 212 50
Width: 1348
Flags: W
LayerCount: 2
Fore
SplineSet
858 1536 m 0,0,1
 1343 1536 1343 1536 1343 1012 c 0,2,3
 1343 659 1343 659 1166 352 c 1,4,5
 1040 131 1040 131 830 36 c 0,6,7
 722 -12 722 -12 614.5 -12 c 128,-1,8
 507 -12 507 -12 440 10 c 0,9,10
 221 84 221 84 221 399 c 0,11,12
 221 610 221 610 300 848 c 0,13,14
 426 1232 426 1232 646 1332 c 0,15,16
 707 1360 707 1360 772.5 1360 c 128,-1,17
 838 1360 838 1360 883 1343 c 1,18,19
 794 1290 794 1290 707 1116 c 0,20,21
 581 867 581 867 538 564 c 0,22,23
 524 470 524 470 524 391 c 0,24,25
 524 154 524 154 643 154 c 0,26,27
 644 154 644 154 645 154 c 0,28,29
 744 154 744 154 843 298 c 128,-1,30
 942 442 942 442 1006.5 661.5 c 128,-1,31
 1071 881 1071 881 1071 1077.5 c 128,-1,32
 1071 1274 1071 1274 1017 1358 c 128,-1,33
 963 1442 963 1442 809 1442 c 0,34,35
 563 1442 563 1442 391 1296.5 c 128,-1,36
 219 1151 219 1151 219 915 c 0,37,38
 219 855 219 855 229.5 835.5 c 128,-1,39
 240 816 240 816 240 805 c 1,40,41
 140 805 140 805 86.5 844 c 128,-1,42
 33 883 33 883 33 983 c 128,-1,43
 33 1083 33 1083 101 1184 c 0,44,45
 246 1396 246 1396 548 1490 c 0,46,47
 698 1536 698 1536 858 1536 c 0,0,1
1092 1661 m 1,48,-1
 969 1825 l 1,49,-1
 647 1661 l 1,50,-1
 557 1661 l 1,51,-1
 991 2048 l 1,52,-1
 1034 2048 l 1,53,-1
 1157 1661 l 1,54,-1
 1092 1661 l 1,48,-1
EndSplineSet
Validated: 1
EndChar

StartChar: Odieresis
Encoding: 292 214 51
Width: 1348
Flags: W
LayerCount: 2
Fore
SplineSet
858 1536 m 0,0,1
 1343 1536 1343 1536 1343 1012 c 0,2,3
 1343 659 1343 659 1166 352 c 1,4,5
 1040 131 1040 131 830 36 c 0,6,7
 722 -12 722 -12 614.5 -12 c 128,-1,8
 507 -12 507 -12 440 10 c 0,9,10
 221 84 221 84 221 399 c 0,11,12
 221 610 221 610 300 848 c 0,13,14
 426 1232 426 1232 646 1332 c 0,15,16
 707 1360 707 1360 772.5 1360 c 128,-1,17
 838 1360 838 1360 883 1343 c 1,18,19
 794 1290 794 1290 707 1116 c 0,20,21
 581 867 581 867 538 564 c 0,22,23
 524 470 524 470 524 391 c 0,24,25
 524 154 524 154 643 154 c 0,26,27
 644 154 644 154 645 154 c 0,28,29
 744 154 744 154 843 298 c 128,-1,30
 942 442 942 442 1006.5 661.5 c 128,-1,31
 1071 881 1071 881 1071 1077.5 c 128,-1,32
 1071 1274 1071 1274 1017 1358 c 128,-1,33
 963 1442 963 1442 809 1442 c 0,34,35
 563 1442 563 1442 391 1296.5 c 128,-1,36
 219 1151 219 1151 219 915 c 0,37,38
 219 855 219 855 229.5 835.5 c 128,-1,39
 240 816 240 816 240 805 c 1,40,41
 140 805 140 805 86.5 844 c 128,-1,42
 33 883 33 883 33 983 c 128,-1,43
 33 1083 33 1083 101 1184 c 0,44,45
 246 1396 246 1396 548 1490 c 0,46,47
 698 1536 698 1536 858 1536 c 0,0,1
803 1721 m 1,48,49
 765 1686 765 1686 726 1686 c 0,50,51
 660 1686 660 1686 625 1721.5 c 128,-1,52
 590 1757 590 1757 590 1809 c 128,-1,53
 590 1861 590 1861 625 1898 c 0,54,55
 661 1935 661 1935 713.5 1935 c 128,-1,56
 766 1935 766 1935 803 1898.5 c 128,-1,57
 840 1862 840 1862 840 1809.5 c 128,-1,58
 840 1757 840 1757 803 1721 c 1,48,49
1171 1721 m 1,59,60
 1133 1686 1133 1686 1094 1686 c 0,61,62
 1030 1686 1030 1686 994 1721 c 128,-1,63
 958 1756 958 1756 958 1809 c 128,-1,64
 958 1862 958 1862 994 1898.5 c 128,-1,65
 1030 1935 1030 1935 1082 1935 c 128,-1,66
 1134 1935 1134 1935 1171 1898.5 c 128,-1,67
 1208 1862 1208 1862 1208 1809.5 c 128,-1,68
 1208 1757 1208 1757 1171 1721 c 1,59,60
EndSplineSet
Validated: 1
EndChar

StartChar: Ograve
Encoding: 293 210 52
Width: 1348
Flags: W
LayerCount: 2
Fore
SplineSet
858 1536 m 0,0,1
 1343 1536 1343 1536 1343 1012 c 0,2,3
 1343 659 1343 659 1166 352 c 1,4,5
 1040 131 1040 131 830 36 c 0,6,7
 722 -12 722 -12 614.5 -12 c 128,-1,8
 507 -12 507 -12 440 10 c 0,9,10
 221 84 221 84 221 399 c 0,11,12
 221 610 221 610 300 848 c 0,13,14
 426 1232 426 1232 646 1332 c 0,15,16
 707 1360 707 1360 772.5 1360 c 128,-1,17
 838 1360 838 1360 883 1343 c 1,18,19
 794 1290 794 1290 707 1116 c 0,20,21
 581 867 581 867 538 564 c 0,22,23
 524 470 524 470 524 391 c 0,24,25
 524 154 524 154 643 154 c 0,26,27
 644 154 644 154 645 154 c 0,28,29
 744 154 744 154 843 298 c 128,-1,30
 942 442 942 442 1006.5 661.5 c 128,-1,31
 1071 881 1071 881 1071 1077.5 c 128,-1,32
 1071 1274 1071 1274 1017 1358 c 128,-1,33
 963 1442 963 1442 809 1442 c 0,34,35
 563 1442 563 1442 391 1296.5 c 128,-1,36
 219 1151 219 1151 219 915 c 0,37,38
 219 855 219 855 229.5 835.5 c 128,-1,39
 240 816 240 816 240 805 c 1,40,41
 140 805 140 805 86.5 844 c 128,-1,42
 33 883 33 883 33 983 c 128,-1,43
 33 1083 33 1083 101 1184 c 0,44,45
 246 1396 246 1396 548 1490 c 0,46,47
 698 1536 698 1536 858 1536 c 0,0,1
719 1661 m 1,48,-1
 598 2048 l 1,49,-1
 813 2048 l 1,50,-1
 873 1661 l 1,51,-1
 719 1661 l 1,48,-1
EndSplineSet
Validated: 1
EndChar

StartChar: Oslash
Encoding: 294 216 53
Width: 1348
Flags: W
LayerCount: 2
Fore
SplineSet
981 1421 m 1,0,1
 1294 1348 1294 1348 1294 946 c 0,2,3
 1294 826 1294 826 1259 668 c 0,4,5
 1185 335 1185 335 958 131 c 256,6,7
 841 26 841 26 680 -2 c 1,8,-1
 649 -145 l 1,9,-1
 543 -145 l 1,10,-1
 571 -12 l 1,11,-1
 567 -12 l 2,12,13
 313 -12 313 -12 239 196 c 0,14,15
 213 270 213 270 213 361 c 128,-1,16
 213 452 213 452 228 549 c 128,-1,17
 243 646 243 646 272 746 c 0,18,19
 339 970 339 970 452 1110 c 1,20,21
 583 1274 583 1274 748 1274 c 0,22,23
 795 1274 795 1274 840 1260 c 1,24,-1
 858 1343 l 1,25,26
 826 1350 826 1350 746 1350 c 128,-1,27
 666 1350 666 1350 563 1315.5 c 128,-1,28
 460 1281 460 1281 382 1217 c 0,29,30
 211 1077 211 1077 211 856 c 0,31,32
 211 801 211 801 221 783 c 128,-1,33
 231 765 231 765 231 754 c 1,34,35
 134 754 134 754 96 781 c 128,-1,36
 58 808 58 808 44.5 838.5 c 128,-1,37
 31 869 31 869 31 913 c 0,38,39
 31 1014 31 1014 96 1109 c 1,40,41
 233 1305 233 1305 528 1394 c 0,42,43
 674 1438 674 1438 827 1438 c 2,44,-1
 852 1438 l 2,45,46
 864 1438 864 1438 877 1436 c 1,47,-1
 899 1536 l 1,48,-1
 1006 1536 l 1,49,-1
 981 1421 l 1,0,1
838 1249 m 1,50,51
 772 1205 772 1205 728 1128 c 0,52,53
 590 889 590 889 533 610 c 0,54,55
 506 475 506 475 506 374 c 0,56,57
 506 163 506 163 604 143 c 1,58,-1
 838 1249 l 1,50,51
719 180 m 1,59,60
 845 274 845 274 938.5 524 c 128,-1,61
 1032 774 1032 774 1032 1014 c 0,62,63
 1032 1116 1032 1116 1016.5 1186.5 c 128,-1,64
 1001 1257 1001 1257 954 1298 c 1,65,-1
 719 180 l 1,59,60
EndSplineSet
Validated: 1
EndChar

StartChar: Otilde
Encoding: 295 213 54
Width: 1348
Flags: W
LayerCount: 2
Fore
SplineSet
858 1536 m 0,0,1
 1343 1536 1343 1536 1343 1012 c 0,2,3
 1343 659 1343 659 1166 352 c 1,4,5
 1040 131 1040 131 830 36 c 0,6,7
 722 -12 722 -12 614.5 -12 c 128,-1,8
 507 -12 507 -12 440 10 c 0,9,10
 221 84 221 84 221 399 c 0,11,12
 221 610 221 610 300 848 c 0,13,14
 426 1232 426 1232 646 1332 c 0,15,16
 707 1360 707 1360 772.5 1360 c 128,-1,17
 838 1360 838 1360 883 1343 c 1,18,19
 794 1290 794 1290 707 1116 c 0,20,21
 581 867 581 867 538 564 c 0,22,23
 524 470 524 470 524 391 c 0,24,25
 524 154 524 154 643 154 c 0,26,27
 644 154 644 154 645 154 c 0,28,29
 744 154 744 154 843 298 c 128,-1,30
 942 442 942 442 1006.5 661.5 c 128,-1,31
 1071 881 1071 881 1071 1077.5 c 128,-1,32
 1071 1274 1071 1274 1017 1358 c 128,-1,33
 963 1442 963 1442 809 1442 c 0,34,35
 563 1442 563 1442 391 1296.5 c 128,-1,36
 219 1151 219 1151 219 915 c 0,37,38
 219 855 219 855 229.5 835.5 c 128,-1,39
 240 816 240 816 240 805 c 1,40,41
 140 805 140 805 86.5 844 c 128,-1,42
 33 883 33 883 33 983 c 128,-1,43
 33 1083 33 1083 101 1184 c 0,44,45
 246 1396 246 1396 548 1490 c 0,46,47
 698 1536 698 1536 858 1536 c 0,0,1
1159 1847.5 m 128,-1,49
 1197 1837 1197 1837 1259 1837 c 128,-1,50
 1321 1837 1321 1837 1370 1884 c 1,51,-1
 1382 1882 l 1,52,53
 1365 1808 1365 1808 1264.5 1742.5 c 128,-1,54
 1164 1677 1164 1677 1052 1677 c 0,55,56
 983 1677 983 1677 907 1703 c 128,-1,57
 831 1729 831 1729 791 1741 c 128,-1,58
 751 1753 751 1753 708 1753 c 0,59,60
 631 1753 631 1753 573 1700 c 1,61,-1
 561 1704 l 1,62,63
 660 1905 660 1905 903 1905 c 0,64,65
 982 1905 982 1905 1051.5 1881.5 c 128,-1,48
 1121 1858 1121 1858 1159 1847.5 c 128,-1,49
EndSplineSet
Validated: 1
EndChar

StartChar: P
Encoding: 80 80 55
Width: 1174
Flags: W
LayerCount: 2
Fore
SplineSet
193 0 m 1,0,-1
 471 1303 l 1,1,-1
 774 1343 l 1,2,-1
 629 659 l 1,3,4
 779 673 779 673 883 831 c 0,5,6
 987 989 987 989 987 1173 c 0,7,8
 987 1357 987 1357 848 1420 c 0,9,10
 800 1442 800 1442 733 1442 c 0,11,12
 483 1442 483 1442 343 1311 c 256,13,14
 203 1180 203 1180 203 944 c 0,15,16
 203 861 203 861 226 819 c 0,17,18
 231 811 231 811 231 805 c 1,19,20
 67 805 67 805 26 910 c 0,21,22
 12 948 12 948 12 1004 c 0,23,24
 12 1107 12 1107 76.5 1202.5 c 128,-1,25
 141 1298 141 1298 243 1372 c 1,26,27
 476 1536 476 1536 722 1536 c 0,28,29
 968 1536 968 1536 1091 1420 c 0,30,31
 1214 1304 1214 1304 1214 1133 c 0,32,33
 1214 1035 1214 1035 1173.5 937 c 128,-1,34
 1133 839 1133 839 1056 760 c 0,35,36
 884 584 884 584 623 584 c 2,37,-1
 612 584 l 1,38,-1
 487 0 l 1,39,-1
 193 0 l 1,0,-1
EndSplineSet
Validated: 1
EndChar

StartChar: Q
Encoding: 81 81 56
Width: 1362
Flags: W
LayerCount: 2
Fore
SplineSet
858 1536 m 0,0,1
 1343 1536 1343 1536 1343 1012 c 0,2,3
 1343 772 1343 772 1244.5 510 c 128,-1,4
 1146 248 1146 248 952 106 c 1,5,6
 1007 27 1007 27 1046 -3 c 0,7,8
 1119 -59 1119 -59 1208 -59 c 0,9,10
 1229 -59 1229 -59 1253 -55 c 1,11,12
 1212 -162 1212 -162 1159.5 -196.5 c 128,-1,13
 1107 -231 1107 -231 1040 -231 c 0,14,15
 920 -231 920 -231 856 -152 c 0,16,17
 818 -105 818 -105 778 16 c 1,18,19
 690 -12 690 -12 598 -12 c 0,20,21
 418 -12 418 -12 319.5 86.5 c 128,-1,22
 221 185 221 185 221 397.5 c 128,-1,23
 221 610 221 610 300 848 c 0,24,25
 426 1232 426 1232 646 1332 c 0,26,27
 707 1360 707 1360 772.5 1360 c 128,-1,28
 838 1360 838 1360 883 1343 c 1,29,30
 794 1290 794 1290 707 1116 c 0,31,32
 581 867 581 867 538 564 c 0,33,34
 524 470 524 470 524 391 c 2,35,-1
 524 345 l 2,36,37
 524 324 524 324 528 303 c 1,38,39
 600 322 600 322 672.5 322 c 128,-1,40
 745 322 745 322 819 266 c 1,41,42
 925 398 925 398 998 630.5 c 128,-1,43
 1071 863 1071 863 1071 1072 c 2,44,-1
 1071 1083 l 2,45,46
 1071 1274 1071 1274 1017 1358 c 128,-1,47
 963 1442 963 1442 809 1442 c 0,48,49
 563 1442 563 1442 391 1296.5 c 128,-1,50
 219 1151 219 1151 219 915 c 0,51,52
 219 855 219 855 229.5 835.5 c 128,-1,53
 240 816 240 816 240 805 c 1,54,55
 140 805 140 805 86.5 844 c 128,-1,56
 33 883 33 883 33 983 c 128,-1,57
 33 1083 33 1083 101 1184 c 0,58,59
 246 1396 246 1396 548 1490 c 0,60,61
 698 1536 698 1536 858 1536 c 0,0,1
721 176 m 1,62,63
 678 246 678 246 604 246 c 0,64,65
 577 246 577 246 545 238 c 1,66,67
 573 154 573 154 643 154 c 0,68,69
 686 154 686 154 721 176 c 1,62,63
EndSplineSet
Validated: 1
EndChar

StartChar: R
Encoding: 82 82 57
Width: 1231
Flags: W
LayerCount: 2
Fore
SplineSet
975 858 m 1,0,1
 1116 818 1116 818 1116 657 c 0,2,3
 1116 562 1116 562 1066 380 c 128,-1,4
 1016 198 1016 198 1016 143 c 0,5,6
 1016 30 1016 30 1096 0 c 1,7,8
 968 -35 968 -35 893 -35 c 0,9,10
 733 -35 733 -35 733 102 c 1,11,12
 734 174 734 174 787.5 364.5 c 128,-1,13
 841 555 841 555 842 641 c 1,14,15
 842 780 842 780 719 780 c 0,16,17
 693 780 693 780 651 772 c 1,18,-1
 487 0 l 1,19,-1
 193 0 l 1,20,-1
 471 1303 l 1,21,-1
 774 1343 l 1,22,-1
 674 870 l 1,23,-1
 690 870 l 2,24,25
 812 870 812 870 896.5 985.5 c 128,-1,26
 981 1101 981 1101 981 1237.5 c 128,-1,27
 981 1374 981 1374 858 1424 c 0,28,29
 816 1442 816 1442 724 1442 c 128,-1,30
 632 1442 632 1442 530 1408 c 128,-1,31
 428 1374 428 1374 356 1310 c 0,32,33
 203 1174 203 1174 203 944 c 0,34,35
 203 861 203 861 226 819 c 0,36,37
 231 811 231 811 231 805 c 1,38,39
 67 805 67 805 26 910 c 0,40,41
 12 948 12 948 12 1004 c 0,42,43
 12 1107 12 1107 76.5 1202.5 c 128,-1,44
 141 1298 141 1298 243 1372 c 1,45,46
 476 1536 476 1536 717.5 1536 c 128,-1,47
 959 1536 959 1536 1077.5 1441.5 c 128,-1,48
 1196 1347 1196 1347 1196 1208 c 0,49,50
 1196 1113 1196 1113 1138.5 1017.5 c 128,-1,51
 1081 922 1081 922 975 858 c 1,0,1
EndSplineSet
Validated: 1
EndChar

StartChar: S
Encoding: 83 83 58
Width: 1167
Flags: W
LayerCount: 2
Fore
SplineSet
852 1126 m 1,0,1
 944 1179 944 1179 944 1316 c 0,2,3
 944 1356 944 1356 911.5 1398 c 128,-1,4
 879 1440 879 1440 792.5 1440 c 128,-1,5
 706 1440 706 1440 655 1393.5 c 128,-1,6
 604 1347 604 1347 604 1272 c 128,-1,7
 604 1197 604 1197 624 1152 c 0,8,9
 660 1069 660 1069 750 990 c 1,10,-1
 834 914 l 2,11,12
 946 814 946 814 986 748 c 0,13,14
 1065 615 1065 615 1065 478 c 0,15,16
 1065 223 1065 223 889 84 c 1,17,18
 730 -43 730 -43 489 -43 c 0,19,20
 191 -43 191 -43 90 148 c 0,21,22
 55 215 55 215 55 304 c 0,23,24
 55 465 55 465 147 555 c 128,-1,25
 239 645 239 645 353 645 c 128,-1,26
 467 645 467 645 516 576 c 0,27,28
 535 550 535 550 537 510 c 1,29,30
 380 510 380 510 319 407 c 0,31,32
 297 370 297 370 297 324 c 0,33,34
 297 237 297 237 348.5 179 c 128,-1,35
 400 121 400 121 499 121 c 128,-1,36
 598 121 598 121 664.5 192 c 128,-1,37
 731 263 731 263 731 372 c 128,-1,38
 731 481 731 481 700 551.5 c 128,-1,39
 669 622 669 622 622 683 c 128,-1,40
 575 744 575 744 521 799.5 c 128,-1,41
 467 855 467 855 420 912 c 0,42,43
 311 1044 311 1044 311 1169 c 0,44,45
 311 1327 311 1327 447.5 1431.5 c 128,-1,46
 584 1536 584 1536 784 1536 c 0,47,48
 1031 1536 1031 1536 1096 1386 c 0,49,50
 1114 1346 1114 1346 1114 1272.5 c 128,-1,51
 1114 1199 1114 1199 1069 1141 c 256,52,53
 1024 1083 1024 1083 956.5 1083 c 128,-1,54
 889 1083 889 1083 852 1126 c 1,0,1
EndSplineSet
Validated: 1
EndChar

StartChar: Sacute
Encoding: 296 346 59
Width: 1167
Flags: W
LayerCount: 2
Fore
SplineSet
613 1126 m 1,0,1
 676 1162 676 1162 698 1251 c 0,2,3
 705 1277 705 1277 705 1316.5 c 128,-1,4
 705 1356 705 1356 672.5 1398 c 128,-1,5
 640 1440 640 1440 553.5 1440 c 128,-1,6
 467 1440 467 1440 416 1393.5 c 128,-1,7
 365 1347 365 1347 365 1272 c 128,-1,8
 365 1197 365 1197 385 1152 c 0,9,10
 420 1071 420 1071 510 990 c 1,11,-1
 596 914 l 1,12,13
 707 814 707 814 747 748 c 0,14,15
 826 615 826 615 826 478 c 0,16,17
 826 223 826 223 650 84 c 1,18,19
 491 -43 491 -43 250 -43 c 0,20,21
 -48 -43 -48 -43 -149 148 c 0,22,23
 -184 215 -184 215 -184 304 c 0,24,25
 -184 465 -184 465 -92 555 c 128,-1,26
 0 645 0 645 114 645 c 128,-1,27
 228 645 228 645 278 576 c 0,28,29
 296 550 296 550 298 510 c 1,30,31
 141 510 141 510 80 407 c 0,32,33
 58 370 58 370 58 324 c 0,34,35
 58 236 58 236 109.5 178.5 c 128,-1,36
 161 121 161 121 260 121 c 128,-1,37
 359 121 359 121 425.5 192 c 128,-1,38
 492 263 492 263 492 372 c 128,-1,39
 492 481 492 481 461 551.5 c 128,-1,40
 430 622 430 622 383 683 c 128,-1,41
 336 744 336 744 282 799.5 c 128,-1,42
 228 855 228 855 181 912 c 0,43,44
 72 1044 72 1044 72 1169 c 0,45,46
 72 1327 72 1327 208.5 1431.5 c 128,-1,47
 345 1536 345 1536 545 1536 c 0,48,49
 792 1536 792 1536 858 1386 c 0,50,51
 875 1346 875 1346 875 1272.5 c 128,-1,52
 875 1199 875 1199 830 1141 c 256,53,54
 785 1083 785 1083 717.5 1083 c 128,-1,55
 650 1083 650 1083 613 1126 c 1,0,1
733 1661 m 1,56,-1
 919 2048 l 1,57,-1
 1134 2048 l 1,58,-1
 886 1661 l 1,59,-1
 733 1661 l 1,56,-1
EndSplineSet
Validated: 1
EndChar

StartChar: Scaron
Encoding: 297 352 60
Width: 1167
Flags: W
LayerCount: 2
Fore
SplineSet
613 1126 m 1,0,1
 676 1162 676 1162 698 1251 c 0,2,3
 705 1277 705 1277 705 1316.5 c 128,-1,4
 705 1356 705 1356 672.5 1398 c 128,-1,5
 640 1440 640 1440 553.5 1440 c 128,-1,6
 467 1440 467 1440 416 1393.5 c 128,-1,7
 365 1347 365 1347 365 1272 c 128,-1,8
 365 1197 365 1197 385 1152 c 0,9,10
 420 1071 420 1071 510 990 c 1,11,-1
 596 914 l 1,12,13
 707 814 707 814 747 748 c 0,14,15
 826 615 826 615 826 478 c 0,16,17
 826 223 826 223 650 84 c 1,18,19
 491 -43 491 -43 250 -43 c 0,20,21
 -48 -43 -48 -43 -149 148 c 0,22,23
 -184 215 -184 215 -184 304 c 0,24,25
 -184 465 -184 465 -92 555 c 128,-1,26
 0 645 0 645 114 645 c 128,-1,27
 228 645 228 645 278 576 c 0,28,29
 296 550 296 550 298 510 c 1,30,31
 141 510 141 510 80 407 c 0,32,33
 58 370 58 370 58 324 c 0,34,35
 58 236 58 236 109.5 178.5 c 128,-1,36
 161 121 161 121 260 121 c 128,-1,37
 359 121 359 121 425.5 192 c 128,-1,38
 492 263 492 263 492 372 c 128,-1,39
 492 481 492 481 461 551.5 c 128,-1,40
 430 622 430 622 383 683 c 128,-1,41
 336 744 336 744 282 799.5 c 128,-1,42
 228 855 228 855 181 912 c 0,43,44
 72 1044 72 1044 72 1169 c 0,45,46
 72 1327 72 1327 208.5 1431.5 c 128,-1,47
 345 1536 345 1536 545 1536 c 0,48,49
 792 1536 792 1536 858 1386 c 0,50,51
 875 1346 875 1346 875 1272.5 c 128,-1,52
 875 1199 875 1199 830 1141 c 256,53,54
 785 1083 785 1083 717.5 1083 c 128,-1,55
 650 1083 650 1083 613 1126 c 1,0,1
777 1661 m 1,56,-1
 734 1661 l 1,57,-1
 611 2048 l 1,58,-1
 676 2048 l 1,59,-1
 799 1884 l 1,60,-1
 1121 2048 l 1,61,-1
 1211 2048 l 1,62,-1
 777 1661 l 1,56,-1
EndSplineSet
Validated: 1
EndChar

StartChar: T
Encoding: 84 84 61
Width: 985
Flags: W
LayerCount: 2
Fore
SplineSet
899 1315 m 1,0,-1
 616 0 l 1,1,-1
 322 0 l 1,2,-1
 612 1356 l 1,3,-1
 588 1356 l 2,4,5
 407 1356 407 1356 314 1272 c 0,6,7
 203 1172 203 1172 203 942 c 0,8,9
 203 859 203 859 226 817 c 0,10,11
 231 809 231 809 231 803 c 1,12,13
 67 803 67 803 26 908 c 0,14,15
 12 946 12 946 12 1025 c 128,-1,16
 12 1104 12 1104 50 1200 c 128,-1,17
 88 1296 88 1296 172 1370 c 0,18,19
 357 1534 357 1534 711 1534 c 0,20,21
 856 1534 856 1534 941.5 1519 c 128,-1,22
 1027 1504 1027 1504 1090 1496 c 0,23,24
 1154 1487 1154 1487 1260.5 1487 c 128,-1,25
 1367 1487 1367 1487 1473 1530 c 1,26,27
 1463 1270 1463 1270 1217 1270 c 0,28,29
 1124 1270 1124 1270 899 1315 c 1,0,-1
EndSplineSet
Validated: 1
EndChar

StartChar: T_h
Encoding: 298 -1 62
Width: 1989
Flags: W
LayerCount: 2
Fore
SplineSet
1735 274 m 0,0,1
 1735 186 1735 186 1810 186 c 0,2,3
 1878 186 1878 186 1914.5 230 c 128,-1,4
 1951 274 1951 274 1989 367 c 1,5,-1
 2075 367 l 1,6,7
 1999 141 1999 141 1882 50 c 0,8,9
 1803 -12 1803 -12 1714 -12 c 0,10,11
 1567 -12 1567 -12 1509.5 54.5 c 128,-1,12
 1452 121 1452 121 1452 210 c 128,-1,13
 1452 299 1452 299 1498 483 c 128,-1,14
 1544 667 1544 667 1544 741 c 0,15,16
 1544 846 1544 846 1470 846 c 128,-1,17
 1396 846 1396 846 1342 736 c 0,18,19
 1326 705 1326 705 1315 670 c 1,20,-1
 1190 0 l 1,21,-1
 895 0 l 1,22,-1
 1176 1307 l 1,23,24
 1112 1311 1112 1311 1044 1321 c 2,25,-1
 905 1341 l 1,26,-1
 616 0 l 1,27,-1
 322 0 l 1,28,-1
 614 1360 l 1,29,30
 422 1353 422 1353 322 1268 c 0,31,32
 203 1168 203 1168 203 949 c 2,33,-1
 203 942 l 2,34,35
 203 859 203 859 226 817 c 0,36,37
 231 809 231 809 231 803 c 1,38,39
 67 803 67 803 26 908 c 0,40,41
 12 946 12 946 12 1025 c 128,-1,42
 12 1104 12 1104 53.5 1200 c 128,-1,43
 95 1296 95 1296 182 1370 c 0,44,45
 376 1534 376 1534 733 1534 c 0,46,47
 768 1534 768 1534 830 1526 c 0,48,49
 1151 1481 1151 1481 1306 1481 c 128,-1,50
 1461 1481 1461 1481 1534 1530 c 1,51,-1
 1499 1460 l 1,52,53
 1458 1372 1458 1372 1394 1070 c 1,54,-1
 1362 913 l 1,55,56
 1462 1032 1462 1032 1606 1032 c 0,57,58
 1703 1032 1703 1032 1768 978 c 256,59,60
 1833 924 1833 924 1833 820 c 128,-1,61
 1833 716 1833 716 1800 580 c 2,62,-1
 1750 380 l 1,63,64
 1735 315 1735 315 1735 274 c 0,0,1
EndSplineSet
Validated: 1
Ligature2: "'liga' Standard Ligatures in Latin lookup 2 subtable" T h
EndChar

StartChar: T_i
Encoding: 299 -1 63
Width: 1524
Flags: W
LayerCount: 2
Fore
SplineSet
1473 1530 m 1,0,1
 1495 1458 1495 1458 1495 1395 c 0,2,3
 1495 1284 1495 1284 1417 1230 c 0,4,5
 1360 1190 1360 1190 1286.5 1190 c 128,-1,6
 1213 1190 1213 1190 1144 1216 c 1,7,-1
 897 1305 l 1,8,-1
 616 0 l 1,9,-1
 322 0 l 1,10,-1
 616 1374 l 1,11,12
 572 1380 572 1380 518 1380 c 0,13,14
 379 1380 379 1380 291 1280 c 128,-1,15
 203 1180 203 1180 203 942 c 0,16,17
 203 859 203 859 226 817 c 0,18,19
 231 809 231 809 231 803 c 1,20,21
 67 803 67 803 26 908 c 0,22,23
 12 946 12 946 12 1025 c 128,-1,24
 12 1104 12 1104 50 1200 c 128,-1,25
 88 1296 88 1296 172 1370 c 0,26,27
 357 1534 357 1534 711 1534 c 0,28,29
 742 1534 742 1534 800 1529 c 2,30,-1
 929 1518 l 1,31,32
 1112 1501 1112 1501 1256.5 1501 c 128,-1,33
 1401 1501 1401 1501 1473 1530 c 1,0,1
1610 367 m 1,34,35
 1478 -12 1478 -12 1168 -12 c 0,36,37
 1088 -12 1088 -12 1024 46 c 0,38,39
 961 104 961 104 961 233 c 0,40,41
 961 291 961 291 977 367 c 2,42,-1
 1116 1024 l 1,43,-1
 1411 1024 l 1,44,-1
 1264 328 l 2,45,46
 1256 291 1256 291 1256 255 c 0,47,48
 1256 186 1256 186 1339 186 c 0,49,50
 1399 186 1399 186 1450.5 238 c 128,-1,51
 1502 290 1502 290 1524 367 c 1,52,-1
 1610 367 l 1,34,35
EndSplineSet
Validated: 1
Ligature2: "'liga' Standard Ligatures in Latin lookup 2 subtable" T i
EndChar

StartChar: Thorn
Encoding: 300 222 64
Width: 1194
Flags: W
LayerCount: 2
Fore
SplineSet
438 1151 m 1,0,1
 203 1028 203 1028 203 719 c 0,2,3
 203 636 203 636 226 594 c 0,4,5
 231 586 231 586 231 580 c 1,6,7
 67 580 67 580 26 685 c 0,8,9
 12 723 12 723 12 788 c 128,-1,10
 12 853 12 853 48 926 c 128,-1,11
 84 999 84 999 146 1062 c 0,12,13
 273 1194 273 1194 461 1262 c 1,14,-1
 512 1495 l 1,15,-1
 815 1536 l 1,16,-1
 766 1311 l 1,17,18
 988 1300 988 1300 1101 1186 c 128,-1,19
 1214 1072 1214 1072 1214 907 c 0,20,21
 1214 699 1214 699 1050 528.5 c 128,-1,22
 886 358 886 358 623 358 c 2,23,-1
 563 358 l 1,24,-1
 487 0 l 1,25,-1
 193 0 l 1,26,-1
 438 1151 l 1,0,1
608 434 m 2,27,28
 710 434 710 434 802 515 c 0,29,30
 931 629 931 629 974 823 c 0,31,32
 987 882 987 882 987 938 c 0,33,34
 987 1057 987 1057 927.5 1134 c 128,-1,35
 868 1211 868 1211 748 1217 c 1,36,-1
 580 434 l 1,37,-1
 608 434 l 2,27,28
EndSplineSet
Validated: 1
EndChar

StartChar: U
Encoding: 85 85 65
Width: 1466
Flags: W
LayerCount: 2
Fore
SplineSet
1270 1532 m 1,0,-1
 1559 1532 l 1,1,-1
 1423 893 l 1,2,3
 1345 512 1345 512 1263 332 c 0,4,5
 1165 117 1165 117 1000 40 c 0,6,7
 882 -14 882 -14 742 -14 c 128,-1,8
 602 -14 602 -14 526.5 7.5 c 128,-1,9
 451 29 451 29 404 70 c 1,10,11
 317 149 317 149 317 307 c 128,-1,12
 317 465 317 465 368 675 c 1,13,-1
 553 1417 l 1,14,15
 384 1372 384 1372 287 1253 c 128,-1,16
 190 1134 190 1134 190 946 c 0,17,18
 190 859 190 859 214 818 c 0,19,20
 219 811 219 811 219 805 c 1,21,22
 57 805 57 805 15 905 c 0,23,24
 0 941 0 941 0 993 c 0,25,26
 0 1102 0 1102 65 1200 c 0,27,28
 202 1403 202 1403 485 1492 c 0,29,30
 626 1536 626 1536 774 1536 c 0,31,32
 819 1536 819 1536 872 1526 c 1,33,-1
 663 748 l 1,34,35
 596 489 596 489 596 386 c 128,-1,36
 596 283 596 283 627.5 234.5 c 128,-1,37
 659 186 659 186 748 186 c 128,-1,38
 837 186 837 186 877 216 c 0,39,40
 950 271 950 271 1004 415.5 c 128,-1,41
 1058 560 1058 560 1133 899 c 1,42,-1
 1270 1532 l 1,0,-1
EndSplineSet
Validated: 1
EndChar

StartChar: Uacute
Encoding: 301 218 66
Width: 1473
Flags: W
LayerCount: 2
Fore
SplineSet
1270 1532 m 1,0,-1
 1559 1532 l 1,1,-1
 1423 893 l 1,2,3
 1345 512 1345 512 1263 332 c 0,4,5
 1165 117 1165 117 1000 40 c 0,6,7
 882 -14 882 -14 742 -14 c 128,-1,8
 602 -14 602 -14 526.5 7.5 c 128,-1,9
 451 29 451 29 404 70 c 1,10,11
 317 149 317 149 317 307 c 128,-1,12
 317 465 317 465 368 675 c 1,13,-1
 553 1417 l 1,14,15
 384 1372 384 1372 287 1253 c 128,-1,16
 190 1134 190 1134 190 946 c 0,17,18
 190 859 190 859 214 818 c 0,19,20
 219 811 219 811 219 805 c 1,21,22
 57 805 57 805 15 905 c 0,23,24
 0 941 0 941 0 993 c 0,25,26
 0 1102 0 1102 65 1200 c 0,27,28
 202 1403 202 1403 485 1492 c 0,29,30
 626 1536 626 1536 774 1536 c 0,31,32
 819 1536 819 1536 872 1526 c 1,33,-1
 663 748 l 1,34,35
 596 489 596 489 596 386 c 128,-1,36
 596 283 596 283 627.5 234.5 c 128,-1,37
 659 186 659 186 748 186 c 128,-1,38
 837 186 837 186 877 216 c 0,39,40
 950 271 950 271 1004 415.5 c 128,-1,41
 1058 560 1058 560 1133 899 c 1,42,-1
 1270 1532 l 1,0,-1
924 1661 m 1,43,-1
 1110 2048 l 1,44,-1
 1325 2048 l 1,45,-1
 1077 1661 l 1,46,-1
 924 1661 l 1,43,-1
EndSplineSet
Validated: 1
EndChar

StartChar: Ucircumflex
Encoding: 302 219 67
Width: 1473
Flags: W
LayerCount: 2
Fore
SplineSet
1270 1532 m 1,0,-1
 1559 1532 l 1,1,-1
 1423 893 l 1,2,3
 1345 512 1345 512 1263 332 c 0,4,5
 1165 117 1165 117 1000 40 c 0,6,7
 882 -14 882 -14 742 -14 c 128,-1,8
 602 -14 602 -14 526.5 7.5 c 128,-1,9
 451 29 451 29 404 70 c 1,10,11
 317 149 317 149 317 307 c 128,-1,12
 317 465 317 465 368 675 c 1,13,-1
 553 1417 l 1,14,15
 384 1372 384 1372 287 1253 c 128,-1,16
 190 1134 190 1134 190 946 c 0,17,18
 190 859 190 859 214 818 c 0,19,20
 219 811 219 811 219 805 c 1,21,22
 57 805 57 805 15 905 c 0,23,24
 0 941 0 941 0 993 c 0,25,26
 0 1102 0 1102 65 1200 c 0,27,28
 202 1403 202 1403 485 1492 c 0,29,30
 626 1536 626 1536 774 1536 c 0,31,32
 819 1536 819 1536 872 1526 c 1,33,-1
 663 748 l 1,34,35
 596 489 596 489 596 386 c 128,-1,36
 596 283 596 283 627.5 234.5 c 128,-1,37
 659 186 659 186 748 186 c 128,-1,38
 837 186 837 186 877 216 c 0,39,40
 950 271 950 271 1004 415.5 c 128,-1,41
 1058 560 1058 560 1133 899 c 1,42,-1
 1270 1532 l 1,0,-1
1278 1661 m 1,43,-1
 1155 1825 l 1,44,-1
 833 1661 l 1,45,-1
 743 1661 l 1,46,-1
 1177 2048 l 1,47,-1
 1220 2048 l 1,48,-1
 1343 1661 l 1,49,-1
 1278 1661 l 1,43,-1
EndSplineSet
Validated: 1
EndChar

StartChar: Udieresis
Encoding: 303 220 68
Width: 1473
Flags: W
LayerCount: 2
Fore
SplineSet
1270 1532 m 1,0,-1
 1559 1532 l 1,1,-1
 1423 893 l 1,2,3
 1345 512 1345 512 1263 332 c 0,4,5
 1165 117 1165 117 1000 40 c 0,6,7
 882 -14 882 -14 742 -14 c 128,-1,8
 602 -14 602 -14 526.5 7.5 c 128,-1,9
 451 29 451 29 404 70 c 1,10,11
 317 149 317 149 317 307 c 128,-1,12
 317 465 317 465 368 675 c 1,13,-1
 553 1417 l 1,14,15
 384 1372 384 1372 287 1253 c 128,-1,16
 190 1134 190 1134 190 946 c 0,17,18
 190 859 190 859 214 818 c 0,19,20
 219 811 219 811 219 805 c 1,21,22
 57 805 57 805 15 905 c 0,23,24
 0 941 0 941 0 993 c 0,25,26
 0 1102 0 1102 65 1200 c 0,27,28
 202 1403 202 1403 485 1492 c 0,29,30
 626 1536 626 1536 774 1536 c 0,31,32
 819 1536 819 1536 872 1526 c 1,33,-1
 663 748 l 1,34,35
 596 489 596 489 596 386 c 128,-1,36
 596 283 596 283 627.5 234.5 c 128,-1,37
 659 186 659 186 748 186 c 128,-1,38
 837 186 837 186 877 216 c 0,39,40
 950 271 950 271 1004 415.5 c 128,-1,41
 1058 560 1058 560 1133 899 c 1,42,-1
 1270 1532 l 1,0,-1
977 1721 m 1,43,44
 939 1686 939 1686 900 1686 c 0,45,46
 834 1686 834 1686 799 1721.5 c 128,-1,47
 764 1757 764 1757 764 1809 c 128,-1,48
 764 1861 764 1861 799 1898 c 0,49,50
 835 1935 835 1935 887.5 1935 c 128,-1,51
 940 1935 940 1935 977 1898.5 c 128,-1,52
 1014 1862 1014 1862 1014 1809.5 c 128,-1,53
 1014 1757 1014 1757 977 1721 c 1,43,44
1345 1721 m 1,54,55
 1307 1686 1307 1686 1268 1686 c 0,56,57
 1204 1686 1204 1686 1168 1721 c 128,-1,58
 1132 1756 1132 1756 1132 1809 c 128,-1,59
 1132 1862 1132 1862 1168 1898.5 c 128,-1,60
 1204 1935 1204 1935 1256 1935 c 128,-1,61
 1308 1935 1308 1935 1345 1898.5 c 128,-1,62
 1382 1862 1382 1862 1382 1809.5 c 128,-1,63
 1382 1757 1382 1757 1345 1721 c 1,54,55
EndSplineSet
Validated: 1
EndChar

StartChar: Ugrave
Encoding: 304 217 69
Width: 1473
Flags: W
LayerCount: 2
Fore
SplineSet
1270 1532 m 1,0,-1
 1559 1532 l 1,1,-1
 1423 893 l 1,2,3
 1345 512 1345 512 1263 332 c 0,4,5
 1165 117 1165 117 1000 40 c 0,6,7
 882 -14 882 -14 742 -14 c 128,-1,8
 602 -14 602 -14 526.5 7.5 c 128,-1,9
 451 29 451 29 404 70 c 1,10,11
 317 149 317 149 317 307 c 128,-1,12
 317 465 317 465 368 675 c 1,13,-1
 553 1417 l 1,14,15
 384 1372 384 1372 287 1253 c 128,-1,16
 190 1134 190 1134 190 946 c 0,17,18
 190 859 190 859 214 818 c 0,19,20
 219 811 219 811 219 805 c 1,21,22
 57 805 57 805 15 905 c 0,23,24
 0 941 0 941 0 993 c 0,25,26
 0 1102 0 1102 65 1200 c 0,27,28
 202 1403 202 1403 485 1492 c 0,29,30
 626 1536 626 1536 774 1536 c 0,31,32
 819 1536 819 1536 872 1526 c 1,33,-1
 663 748 l 1,34,35
 596 489 596 489 596 386 c 128,-1,36
 596 283 596 283 627.5 234.5 c 128,-1,37
 659 186 659 186 748 186 c 128,-1,38
 837 186 837 186 877 216 c 0,39,40
 950 271 950 271 1004 415.5 c 128,-1,41
 1058 560 1058 560 1133 899 c 1,42,-1
 1270 1532 l 1,0,-1
961 1661 m 1,43,-1
 840 2048 l 1,44,-1
 1055 2048 l 1,45,-1
 1115 1661 l 1,46,-1
 961 1661 l 1,43,-1
EndSplineSet
Validated: 1
EndChar

StartChar: V
Encoding: 86 86 70
Width: 1260
Flags: W
LayerCount: 2
Fore
SplineSet
541 0 m 1,0,-1
 508 1399 l 1,1,2
 364 1345 364 1345 283.5 1230 c 128,-1,3
 203 1115 203 1115 203 944 c 0,4,5
 203 861 203 861 226 819 c 0,6,7
 231 811 231 811 231 805 c 1,8,9
 67 805 67 805 26 910 c 0,10,11
 12 948 12 948 12 1004 c 0,12,13
 12 1107 12 1107 76.5 1202.5 c 128,-1,14
 141 1298 141 1298 243 1372 c 1,15,16
 476 1536 476 1536 731 1536 c 0,17,18
 773 1536 773 1536 813 1532 c 1,19,-1
 831 272 l 1,20,-1
 1262 1526 l 1,21,-1
 1405 1526 l 1,22,-1
 836 0 l 1,23,-1
 541 0 l 1,0,-1
EndSplineSet
Validated: 1
EndChar

StartChar: W
Encoding: 87 87 71
Width: 1970
Flags: W
LayerCount: 2
Fore
SplineSet
1249 0 m 1,0,-1
 1225 1042 l 1,1,-1
 836 0 l 1,2,-1
 541 0 l 1,3,-1
 508 1399 l 1,4,5
 364 1345 364 1345 283.5 1230 c 128,-1,6
 203 1115 203 1115 203 944 c 0,7,8
 203 861 203 861 226 819 c 0,9,10
 231 811 231 811 231 805 c 1,11,12
 67 805 67 805 26 910 c 0,13,14
 12 948 12 948 12 1004 c 0,15,16
 12 1107 12 1107 76.5 1202.5 c 128,-1,17
 141 1298 141 1298 243 1372 c 1,18,19
 476 1536 476 1536 731 1536 c 0,20,21
 773 1536 773 1536 813 1532 c 1,22,-1
 831 272 l 1,23,-1
 1262 1526 l 1,24,-1
 1522 1526 l 1,25,-1
 1540 272 l 1,26,-1
 1970 1526 l 1,27,-1
 2114 1526 l 1,28,-1
 1544 0 l 1,29,-1
 1249 0 l 1,0,-1
EndSplineSet
Validated: 1
EndChar

StartChar: X
Encoding: 88 88 72
Width: 1270
Flags: W
LayerCount: 2
Fore
SplineSet
805 0 m 1,0,-1
 696 512 l 1,1,-1
 399 0 l 1,2,-1
 274 0 l 1,3,-1
 659 680 l 1,4,-1
 508 1399 l 1,5,6
 364 1345 364 1345 283.5 1230 c 128,-1,7
 203 1115 203 1115 203 944 c 0,8,9
 203 861 203 861 226 819 c 0,10,11
 231 811 231 811 231 805 c 1,12,13
 67 805 67 805 26 910 c 0,14,15
 12 948 12 948 12 1004 c 0,16,17
 12 1107 12 1107 76.5 1202.5 c 128,-1,18
 141 1298 141 1298 243 1372 c 1,19,20
 476 1536 476 1536 731 1536 c 0,21,22
 773 1536 773 1536 813 1532 c 1,23,-1
 901 1106 l 1,24,-1
 1139 1526 l 1,25,-1
 1282 1526 l 1,26,-1
 938 930 l 1,27,-1
 1130 0 l 1,28,-1
 805 0 l 1,0,-1
EndSplineSet
Validated: 1
EndChar

StartChar: Y
Encoding: 89 89 73
Width: 1270
Flags: W
LayerCount: 2
Fore
SplineSet
569 0 m 1,0,-1
 705 631 l 1,1,-1
 508 1399 l 1,2,3
 364 1345 364 1345 283.5 1230 c 128,-1,4
 203 1115 203 1115 203 944 c 0,5,6
 203 861 203 861 226 819 c 0,7,8
 231 811 231 811 231 805 c 1,9,10
 67 805 67 805 26 910 c 0,11,12
 12 948 12 948 12 1004 c 0,13,14
 12 1107 12 1107 76.5 1202.5 c 128,-1,15
 141 1298 141 1298 243 1372 c 1,16,17
 476 1536 476 1536 731 1536 c 0,18,19
 773 1536 773 1536 813 1532 c 1,20,-1
 991 799 l 1,21,-1
 1294 1526 l 1,22,-1
 1430 1526 l 1,23,-1
 1032 631 l 1,24,-1
 897 0 l 1,25,-1
 569 0 l 1,0,-1
EndSplineSet
Validated: 1
EndChar

StartChar: Yacute
Encoding: 305 221 74
Width: 1270
Flags: W
LayerCount: 2
Fore
SplineSet
569 0 m 1,0,-1
 705 631 l 1,1,-1
 508 1399 l 1,2,3
 364 1345 364 1345 283.5 1230 c 128,-1,4
 203 1115 203 1115 203 944 c 0,5,6
 203 861 203 861 226 819 c 0,7,8
 231 811 231 811 231 805 c 1,9,10
 67 805 67 805 26 910 c 0,11,12
 12 948 12 948 12 1004 c 0,13,14
 12 1107 12 1107 76.5 1202.5 c 128,-1,15
 141 1298 141 1298 243 1372 c 1,16,17
 476 1536 476 1536 731 1536 c 0,18,19
 773 1536 773 1536 813 1532 c 1,20,-1
 991 799 l 1,21,-1
 1294 1526 l 1,22,-1
 1430 1526 l 1,23,-1
 1032 631 l 1,24,-1
 897 0 l 1,25,-1
 569 0 l 1,0,-1
928 1661 m 1,26,-1
 1114 2048 l 1,27,-1
 1329 2048 l 1,28,-1
 1081 1661 l 1,29,-1
 928 1661 l 1,26,-1
EndSplineSet
Validated: 1
EndChar

StartChar: Ydieresis
Encoding: 306 376 75
Width: 1270
Flags: W
LayerCount: 2
Fore
SplineSet
569 0 m 1,0,-1
 705 631 l 1,1,-1
 508 1399 l 1,2,3
 364 1345 364 1345 283.5 1230 c 128,-1,4
 203 1115 203 1115 203 944 c 0,5,6
 203 861 203 861 226 819 c 0,7,8
 231 811 231 811 231 805 c 1,9,10
 67 805 67 805 26 910 c 0,11,12
 12 948 12 948 12 1004 c 0,13,14
 12 1107 12 1107 76.5 1202.5 c 128,-1,15
 141 1298 141 1298 243 1372 c 1,16,17
 476 1536 476 1536 731 1536 c 0,18,19
 773 1536 773 1536 813 1532 c 1,20,-1
 991 799 l 1,21,-1
 1294 1526 l 1,22,-1
 1430 1526 l 1,23,-1
 1032 631 l 1,24,-1
 897 0 l 1,25,-1
 569 0 l 1,0,-1
990 1721 m 1,26,27
 952 1686 952 1686 914 1686 c 0,28,29
 848 1686 848 1686 812.5 1721.5 c 128,-1,30
 777 1757 777 1757 777 1809 c 128,-1,31
 777 1861 777 1861 812 1898 c 0,32,33
 848 1935 848 1935 900.5 1935 c 128,-1,34
 953 1935 953 1935 990 1898.5 c 128,-1,35
 1027 1862 1027 1862 1027 1809.5 c 128,-1,36
 1027 1757 1027 1757 990 1721 c 1,26,27
1358 1721 m 1,37,38
 1320 1686 1320 1686 1282 1686 c 0,39,40
 1217 1686 1217 1686 1181 1721 c 128,-1,41
 1145 1756 1145 1756 1145 1809 c 128,-1,42
 1145 1862 1145 1862 1181 1898.5 c 128,-1,43
 1217 1935 1217 1935 1269 1935 c 128,-1,44
 1321 1935 1321 1935 1358 1898.5 c 128,-1,45
 1395 1862 1395 1862 1395 1809.5 c 128,-1,46
 1395 1757 1395 1757 1358 1721 c 1,37,38
EndSplineSet
Validated: 1
EndChar

StartChar: Z
Encoding: 90 90 76
Width: 1110
Flags: W
LayerCount: 2
Fore
SplineSet
424 133 m 1,0,-1
 621 129 l 1,1,2
 692 129 692 129 752 136.5 c 128,-1,3
 812 144 812 144 834 174 c 1,4,5
 823 174 823 174 810 187.5 c 128,-1,6
 797 201 797 201 797 236 c 0,7,8
 797 297 797 297 834 326.5 c 128,-1,9
 871 356 871 356 924 356 c 128,-1,10
 977 356 977 356 1000.5 318 c 128,-1,11
 1024 280 1024 280 1024 240 c 0,12,13
 1024 152 1024 152 950 76 c 128,-1,14
 876 0 876 0 762 0 c 2,15,-1
 23 0 l 1,16,-1
 739 1425 l 1,17,-1
 555 1430 l 1,18,19
 367 1430 367 1430 367 1384 c 1,20,21
 377 1384 377 1384 389 1370 c 128,-1,22
 401 1356 401 1356 401 1320 c 0,23,24
 401 1259 401 1259 363.5 1230.5 c 128,-1,25
 326 1202 326 1202 273 1202 c 128,-1,26
 220 1202 220 1202 198 1240.5 c 128,-1,27
 176 1279 176 1279 176 1320 c 0,28,29
 176 1406 176 1406 243 1471 c 128,-1,30
 310 1536 310 1536 428 1536 c 2,31,-1
 1130 1536 l 1,32,-1
 424 133 l 1,0,-1
EndSplineSet
Validated: 1
EndChar

StartChar: Zacute
Encoding: 307 377 77
Width: 1110
Flags: W
LayerCount: 2
Fore
SplineSet
424 133 m 1,0,-1
 621 129 l 1,1,2
 692 129 692 129 752 136.5 c 128,-1,3
 812 144 812 144 834 174 c 1,4,5
 823 174 823 174 810 187.5 c 128,-1,6
 797 201 797 201 797 236 c 0,7,8
 797 297 797 297 834 326.5 c 128,-1,9
 871 356 871 356 924 356 c 128,-1,10
 977 356 977 356 1000.5 318 c 128,-1,11
 1024 280 1024 280 1024 240 c 0,12,13
 1024 152 1024 152 950 76 c 128,-1,14
 876 0 876 0 762 0 c 2,15,-1
 23 0 l 1,16,-1
 739 1425 l 1,17,-1
 555 1430 l 1,18,19
 367 1430 367 1430 367 1384 c 1,20,21
 377 1384 377 1384 389 1370 c 128,-1,22
 401 1356 401 1356 401 1320 c 0,23,24
 401 1259 401 1259 363.5 1230.5 c 128,-1,25
 326 1202 326 1202 273 1202 c 128,-1,26
 220 1202 220 1202 198 1240.5 c 128,-1,27
 176 1279 176 1279 176 1320 c 0,28,29
 176 1406 176 1406 243 1471 c 128,-1,30
 310 1536 310 1536 428 1536 c 2,31,-1
 1130 1536 l 1,32,-1
 424 133 l 1,0,-1
744 1661 m 1,33,-1
 930 2048 l 1,34,-1
 1145 2048 l 1,35,-1
 897 1661 l 1,36,-1
 744 1661 l 1,33,-1
EndSplineSet
Validated: 1
EndChar

StartChar: Zcaron
Encoding: 308 381 78
Width: 1110
Flags: W
LayerCount: 2
Fore
SplineSet
424 133 m 1,0,-1
 621 129 l 1,1,2
 692 129 692 129 752 136.5 c 128,-1,3
 812 144 812 144 834 174 c 1,4,5
 823 174 823 174 810 187.5 c 128,-1,6
 797 201 797 201 797 236 c 0,7,8
 797 297 797 297 834 326.5 c 128,-1,9
 871 356 871 356 924 356 c 128,-1,10
 977 356 977 356 1000.5 318 c 128,-1,11
 1024 280 1024 280 1024 240 c 0,12,13
 1024 152 1024 152 950 76 c 128,-1,14
 876 0 876 0 762 0 c 2,15,-1
 23 0 l 1,16,-1
 739 1425 l 1,17,-1
 555 1430 l 1,18,19
 367 1430 367 1430 367 1384 c 1,20,21
 377 1384 377 1384 389 1370 c 128,-1,22
 401 1356 401 1356 401 1320 c 0,23,24
 401 1259 401 1259 363.5 1230.5 c 128,-1,25
 326 1202 326 1202 273 1202 c 128,-1,26
 220 1202 220 1202 198 1240.5 c 128,-1,27
 176 1279 176 1279 176 1320 c 0,28,29
 176 1406 176 1406 243 1471 c 128,-1,30
 310 1536 310 1536 428 1536 c 2,31,-1
 1130 1536 l 1,32,-1
 424 133 l 1,0,-1
789 1661 m 1,33,-1
 746 1661 l 1,34,-1
 623 2048 l 1,35,-1
 688 2048 l 1,36,-1
 811 1884 l 1,37,-1
 1133 2048 l 1,38,-1
 1223 2048 l 1,39,-1
 789 1661 l 1,33,-1
EndSplineSet
Validated: 1
EndChar

StartChar: Zdotaccent
Encoding: 309 379 79
Width: 1085
GlyphClass: 2
Flags: W
LayerCount: 2
Fore
SplineSet
748 1686 m 0,0,1
 653 1686 653 1686 622 1760 c 0,2,3
 612 1783 612 1783 612 1822.5 c 128,-1,4
 612 1862 612 1862 648 1898.5 c 128,-1,5
 684 1935 684 1935 736 1935 c 128,-1,6
 788 1935 788 1935 825 1898.5 c 128,-1,7
 862 1862 862 1862 862 1809.5 c 128,-1,8
 862 1757 862 1757 825 1721 c 1,9,10
 787 1686 787 1686 748 1686 c 0,0,1
424 133 m 1,11,-1
 621 129 l 1,12,13
 692 129 692 129 752 136.5 c 128,-1,14
 812 144 812 144 834 174 c 1,15,16
 823 174 823 174 810 187.5 c 128,-1,17
 797 201 797 201 797 236 c 0,18,19
 797 297 797 297 834 326.5 c 128,-1,20
 871 356 871 356 924 356 c 128,-1,21
 977 356 977 356 1000.5 318 c 128,-1,22
 1024 280 1024 280 1024 240 c 0,23,24
 1024 152 1024 152 950 76 c 128,-1,25
 876 0 876 0 762 0 c 2,26,-1
 23 0 l 1,27,-1
 739 1425 l 1,28,-1
 555 1430 l 1,29,30
 367 1430 367 1430 367 1384 c 1,31,32
 377 1384 377 1384 389 1370 c 128,-1,33
 401 1356 401 1356 401 1320 c 0,34,35
 401 1259 401 1259 363.5 1230.5 c 128,-1,36
 326 1202 326 1202 273 1202 c 128,-1,37
 220 1202 220 1202 198 1240.5 c 128,-1,38
 176 1279 176 1279 176 1320 c 0,39,40
 176 1406 176 1406 243 1471 c 128,-1,41
 310 1536 310 1536 428 1536 c 2,42,-1
 1130 1536 l 1,43,-1
 424 133 l 1,11,-1
EndSplineSet
Validated: 1
EndChar

StartChar: a
Encoding: 97 97 80
Width: 1077
Flags: W
LayerCount: 2
Fore
SplineSet
1163 367 m 1,0,1
 1033 -12 1033 -12 752 -12 c 0,2,3
 571 -12 571 -12 551 176 c 1,4,5
 417 -12 417 -12 238.5 -12 c 128,-1,6
 60 -12 60 -12 -4 163 c 0,7,8
 -27 226 -27 226 -27 306.5 c 128,-1,9
 -27 387 -27 387 -13 467.5 c 128,-1,10
 1 548 1 548 30 628 c 0,11,12
 94 804 94 804 213 919 c 128,-1,13
 332 1034 332 1034 500 1034 c 0,14,15
 588 1034 588 1034 627 1004.5 c 128,-1,16
 666 975 666 975 666 930 c 2,17,-1
 666 915 l 1,18,-1
 688 1024 l 1,19,-1
 983 1024 l 1,20,-1
 836 328 l 1,21,22
 827 293 827 293 827 262 c 0,23,24
 827 174 827 174 911 174 c 0,25,26
 1020 174 1020 174 1077 367 c 1,27,-1
 1163 367 l 1,0,1
647 829 m 1,28,29
 647 848 647 848 629.5 877.5 c 128,-1,30
 612 907 612 907 555 907 c 128,-1,31
 498 907 498 907 444 846 c 0,32,33
 314 699 314 699 281 424 c 0,34,35
 276 382 276 382 276 335 c 0,36,37
 276 244 276 244 314 208 c 1,38,39
 336 186 336 186 369 186 c 0,40,41
 430 186 430 186 480 234.5 c 128,-1,42
 530 283 530 283 549 367 c 1,43,-1
 647 829 l 1,28,29
EndSplineSet
Validated: 1
Substitution2: "Single Substitution lookup 9 subtable" a.end
Substitution2: "'aalt' Access All Alternates in Latin lookup 0 subtable" a.end
EndChar

StartChar: a.end
Encoding: 310 -1 81
Width: 956
Flags: W
LayerCount: 2
Fore
SplineSet
551 178 m 1,0,1
 424 -12 424 -12 242 -12 c 128,-1,2
 60 -12 60 -12 -4 163 c 0,3,4
 -27 226 -27 226 -27 306.5 c 128,-1,5
 -27 387 -27 387 -13 467.5 c 128,-1,6
 1 548 1 548 30 628 c 0,7,8
 94 804 94 804 213 919 c 128,-1,9
 332 1034 332 1034 500 1034 c 0,10,11
 588 1034 588 1034 627 1004.5 c 128,-1,12
 666 975 666 975 666 930 c 2,13,-1
 666 915 l 1,14,-1
 688 1024 l 1,15,-1
 983 1024 l 1,16,-1
 836 328 l 1,17,18
 827 293 827 293 827 256 c 0,19,20
 827 186 827 186 911 186 c 0,21,22
 938 186 938 186 956 195 c 1,23,24
 913 80 913 80 883 46 c 0,25,26
 830 -12 830 -12 748.5 -12 c 128,-1,27
 667 -12 667 -12 615 37.5 c 128,-1,28
 563 87 563 87 551 178 c 1,0,1
647 829 m 1,29,30
 647 848 647 848 629.5 877.5 c 128,-1,31
 612 907 612 907 555 907 c 128,-1,32
 498 907 498 907 444 846 c 0,33,34
 314 699 314 699 281 424 c 0,35,36
 276 382 276 382 276 335 c 0,37,38
 276 244 276 244 314 208 c 1,39,40
 336 186 336 186 369 186 c 0,41,42
 430 186 430 186 480 234.5 c 128,-1,43
 530 283 530 283 549 367 c 1,44,-1
 647 829 l 1,29,30
EndSplineSet
Validated: 1
EndChar

StartChar: a_x
Encoding: 311 -1 82
Width: 1841
Flags: W
LayerCount: 2
Fore
SplineSet
1653 928 m 0,0,1
 1556 928 1556 928 1556 1042 c 256,2,3
 1556 1088 1556 1088 1588.5 1113.5 c 128,-1,4
 1621 1139 1621 1139 1680.5 1139 c 128,-1,5
 1740 1139 1740 1139 1775 1085.5 c 128,-1,6
 1810 1032 1810 1032 1810 944 c 0,7,8
 1810 815 1810 815 1649 618 c 0,9,10
 1594 550 1594 550 1518 469 c 1,11,-1
 1536 367 l 1,12,-1
 1548 306 l 1,13,14
 1573 186 1573 186 1657 186 c 0,15,16
 1716 186 1716 186 1767 237 c 256,17,18
 1818 288 1818 288 1841 367 c 1,19,-1
 1927 367 l 1,20,21
 1795 -12 1795 -12 1505 -12 c 0,22,23
 1408 -12 1408 -12 1355 53 c 128,-1,24
 1302 118 1302 118 1268 262 c 1,25,26
 1050 -12 1050 -12 786 -12 c 0,27,28
 701 -12 701 -12 635.5 37.5 c 128,-1,29
 570 87 570 87 553 180 c 1,30,31
 425 -12 425 -12 242.5 -12 c 128,-1,32
 60 -12 60 -12 -4 163 c 0,33,34
 -27 226 -27 226 -27 306.5 c 128,-1,35
 -27 387 -27 387 -13 467.5 c 128,-1,36
 1 548 1 548 30 628 c 0,37,38
 94 804 94 804 213 919 c 128,-1,39
 332 1034 332 1034 500 1034 c 0,40,41
 588 1034 588 1034 627 1004.5 c 128,-1,42
 666 975 666 975 666 930 c 2,43,-1
 666 915 l 1,44,-1
 688 1024 l 1,45,-1
 983 1024 l 1,46,-1
 836 328 l 1,47,48
 829 301 829 301 829 269.5 c 128,-1,49
 829 238 829 238 847.5 212 c 128,-1,50
 866 186 866 186 912 186 c 0,51,52
 995 186 995 186 1086.5 241.5 c 128,-1,53
 1178 297 1178 297 1245 379 c 1,54,-1
 1126 1024 l 1,55,-1
 1415 1024 l 1,56,-1
 1495 582 l 1,57,58
 1690 790 1690 790 1690 907 c 0,59,60
 1690 922 1690 922 1688 932 c 1,61,62
 1668 928 1668 928 1653 928 c 0,0,1
647 829 m 1,63,64
 647 848 647 848 629.5 877.5 c 128,-1,65
 612 907 612 907 555 907 c 128,-1,66
 498 907 498 907 444 846 c 0,67,68
 314 699 314 699 281 424 c 0,69,70
 276 382 276 382 276 335 c 0,71,72
 276 244 276 244 314 208 c 1,73,74
 336 186 336 186 369 186 c 0,75,76
 430 186 430 186 480 234.5 c 128,-1,77
 530 283 530 283 549 367 c 1,78,-1
 647 829 l 1,63,64
EndSplineSet
Validated: 1
Substitution2: "Single Substitution lookup 9 subtable" a_x.end
Ligature2: "'liga' Standard Ligatures in Latin lookup 4 subtable" a x
Substitution2: "'aalt' Access All Alternates in Latin lookup 0 subtable" a_x.end
EndChar

StartChar: a_x.end
Encoding: 312 -1 83
Width: 1810
Flags: W
LayerCount: 2
Fore
SplineSet
1653 928 m 0,0,1
 1556 928 1556 928 1556 1042 c 256,2,3
 1556 1088 1556 1088 1588.5 1113.5 c 128,-1,4
 1621 1139 1621 1139 1680.5 1139 c 128,-1,5
 1740 1139 1740 1139 1775 1085.5 c 128,-1,6
 1810 1032 1810 1032 1810 944 c 0,7,8
 1810 815 1810 815 1649 618 c 0,9,10
 1594 550 1594 550 1518 469 c 1,11,-1
 1536 367 l 2,12,13
 1552 275 1552 275 1574 230 c 1,14,15
 1597 186 1597 186 1665 186 c 0,16,17
 1694 186 1694 186 1707 190 c 2,18,-1
 1731 199 l 1,19,20
 1722 96 1722 96 1658.5 42 c 128,-1,21
 1595 -12 1595 -12 1501.5 -12 c 128,-1,22
 1408 -12 1408 -12 1355 53 c 128,-1,23
 1302 118 1302 118 1268 262 c 1,24,25
 1050 -12 1050 -12 786 -12 c 0,26,27
 701 -12 701 -12 635.5 37.5 c 128,-1,28
 570 87 570 87 553 180 c 1,29,30
 425 -12 425 -12 242.5 -12 c 128,-1,31
 60 -12 60 -12 -4 163 c 0,32,33
 -27 226 -27 226 -27 306.5 c 128,-1,34
 -27 387 -27 387 -13 467.5 c 128,-1,35
 1 548 1 548 30 628 c 0,36,37
 94 804 94 804 213 919 c 128,-1,38
 332 1034 332 1034 500 1034 c 0,39,40
 588 1034 588 1034 627 1004.5 c 128,-1,41
 666 975 666 975 666 930 c 2,42,-1
 666 915 l 1,43,-1
 688 1024 l 1,44,-1
 983 1024 l 1,45,-1
 836 328 l 1,46,47
 829 301 829 301 829 269.5 c 128,-1,48
 829 238 829 238 847.5 212 c 128,-1,49
 866 186 866 186 912 186 c 0,50,51
 995 186 995 186 1086.5 241.5 c 128,-1,52
 1178 297 1178 297 1245 379 c 1,53,-1
 1126 1024 l 1,54,-1
 1415 1024 l 1,55,-1
 1495 582 l 1,56,57
 1690 790 1690 790 1690 907 c 0,58,59
 1690 922 1690 922 1688 932 c 1,60,61
 1668 928 1668 928 1653 928 c 0,0,1
647 829 m 1,62,63
 647 848 647 848 629.5 877.5 c 128,-1,64
 612 907 612 907 555 907 c 128,-1,65
 498 907 498 907 444 846 c 0,66,67
 314 699 314 699 281 424 c 0,68,69
 276 382 276 382 276 335 c 0,70,71
 276 244 276 244 314 208 c 1,72,73
 336 186 336 186 369 186 c 0,74,75
 430 186 430 186 480 234.5 c 128,-1,76
 530 283 530 283 549 367 c 1,77,-1
 647 829 l 1,62,63
EndSplineSet
Validated: 1
EndChar

StartChar: a_z
Encoding: 313 -1 84
Width: 1855
Flags: W
LayerCount: 2
Fore
SplineSet
551 178 m 1,0,1
 424 -12 424 -12 242 -12 c 128,-1,2
 60 -12 60 -12 -4 163 c 0,3,4
 -27 226 -27 226 -27 306.5 c 128,-1,5
 -27 387 -27 387 -13 467.5 c 128,-1,6
 1 548 1 548 30 628 c 0,7,8
 94 804 94 804 213 919 c 128,-1,9
 332 1034 332 1034 500 1034 c 0,10,11
 588 1034 588 1034 627 1004.5 c 128,-1,12
 666 975 666 975 666 930 c 2,13,-1
 666 915 l 1,14,-1
 688 1024 l 1,15,-1
 983 1024 l 1,16,-1
 836 328 l 1,17,18
 827 293 827 293 827 256 c 0,19,20
 827 186 827 186 911 186 c 0,21,22
 938 186 938 186 956 195 c 1,23,24
 913 80 913 80 883 46 c 0,25,26
 830 -12 830 -12 748.5 -12 c 128,-1,27
 667 -12 667 -12 615 37.5 c 128,-1,28
 563 87 563 87 551 178 c 1,0,1
647 829 m 1,29,30
 647 848 647 848 629.5 877.5 c 128,-1,31
 612 907 612 907 555 907 c 128,-1,32
 498 907 498 907 444 846 c 0,33,34
 314 699 314 699 281 424 c 0,35,36
 276 382 276 382 276 335 c 0,37,38
 276 244 276 244 314 208 c 1,39,40
 336 186 336 186 369 186 c 0,41,42
 430 186 430 186 480 234.5 c 128,-1,43
 530 283 530 283 549 367 c 1,44,-1
 647 829 l 1,29,30
1681 317 m 0,45,46
 1772 317 1772 317 1772 219 c 0,47,48
 1772 140 1772 140 1702 70 c 128,-1,49
 1632 0 1632 0 1522 0 c 2,50,-1
 979 0 l 1,51,-1
 1501 913 l 1,52,-1
 1387 913 l 2,53,54
 1339 913 1339 913 1306.5 908 c 128,-1,55
 1274 903 1274 903 1274 881 c 0,56,57
 1274 876 1274 876 1277.5 875 c 128,-1,58
 1281 874 1281 874 1288.5 868.5 c 128,-1,59
 1296 863 1296 863 1296 820.5 c 128,-1,60
 1296 778 1296 778 1261.5 752.5 c 128,-1,61
 1227 727 1227 727 1198 727 c 0,62,63
 1147 727 1147 727 1119.5 751 c 128,-1,64
 1092 775 1092 775 1092 812 c 0,65,66
 1092 891 1092 891 1160 957.5 c 128,-1,67
 1228 1024 1228 1024 1329 1024 c 2,68,-1
 1856 1024 l 1,69,-1
 1354 158 l 1,70,71
 1367 157 1367 157 1385 155 c 2,72,-1
 1424 150 l 2,73,74
 1470 145 1470 145 1508 145 c 0,75,76
 1599 145 1599 145 1606 186 c 1,77,78
 1567 190 1567 190 1567 229 c 0,79,80
 1567 259 1567 259 1595 288 c 128,-1,81
 1623 317 1623 317 1681 317 c 0,45,46
EndSplineSet
Validated: 1
Ligature2: "'liga' Standard Ligatures in Latin lookup 4 subtable" a z
EndChar

StartChar: aacute
Encoding: 314 225 85
Width: 1077
Flags: W
LayerCount: 2
Fore
SplineSet
1163 367 m 1,0,1
 1033 -12 1033 -12 752 -12 c 0,2,3
 571 -12 571 -12 551 176 c 1,4,5
 417 -12 417 -12 238.5 -12 c 128,-1,6
 60 -12 60 -12 -4 163 c 0,7,8
 -27 226 -27 226 -27 306.5 c 128,-1,9
 -27 387 -27 387 -13 467.5 c 128,-1,10
 1 548 1 548 30 628 c 0,11,12
 94 804 94 804 213 919 c 128,-1,13
 332 1034 332 1034 500 1034 c 0,14,15
 588 1034 588 1034 627 1004.5 c 128,-1,16
 666 975 666 975 666 930 c 2,17,-1
 666 915 l 1,18,-1
 688 1024 l 1,19,-1
 983 1024 l 1,20,-1
 836 328 l 1,21,22
 827 293 827 293 827 262 c 0,23,24
 827 174 827 174 911 174 c 0,25,26
 1020 174 1020 174 1077 367 c 1,27,-1
 1163 367 l 1,0,1
647 829 m 1,28,29
 647 848 647 848 629.5 877.5 c 128,-1,30
 612 907 612 907 555 907 c 128,-1,31
 498 907 498 907 444 846 c 0,32,33
 314 699 314 699 281 424 c 0,34,35
 276 382 276 382 276 335 c 0,36,37
 276 244 276 244 314 208 c 1,38,39
 336 186 336 186 369 186 c 0,40,41
 430 186 430 186 480 234.5 c 128,-1,42
 530 283 530 283 549 367 c 1,43,-1
 647 829 l 1,28,29
502 1149 m 1,44,-1
 688 1536 l 1,45,-1
 903 1536 l 1,46,-1
 655 1149 l 1,47,-1
 502 1149 l 1,44,-1
EndSplineSet
Validated: 1
Substitution2: "Single Substitution lookup 9 subtable" aacute.end
Substitution2: "'aalt' Access All Alternates in Latin lookup 0 subtable" aacute.end
EndChar

StartChar: aacute.end
Encoding: 315 -1 86
Width: 944
Flags: W
LayerCount: 2
Fore
SplineSet
540 178 m 1,0,1
 413 -12 413 -12 231 -12 c 128,-1,2
 49 -12 49 -12 -15 163 c 0,3,4
 -38 226 -38 226 -38 306.5 c 128,-1,5
 -38 387 -38 387 -24 467.5 c 128,-1,6
 -10 548 -10 548 19 628 c 0,7,8
 84 806 84 806 194 910 c 1,9,10
 321 1034 321 1034 489 1034 c 0,11,12
 577 1034 577 1034 616 1004.5 c 128,-1,13
 655 975 655 975 655 930 c 2,14,-1
 655 915 l 1,15,-1
 677 1024 l 1,16,-1
 972 1024 l 1,17,-1
 825 328 l 1,18,19
 816 293 816 293 816 256 c 0,20,21
 816 186 816 186 900 186 c 0,22,23
 927 186 927 186 945 195 c 1,24,25
 902 80 902 80 872 46 c 0,26,27
 819 -12 819 -12 737.5 -12 c 128,-1,28
 656 -12 656 -12 604 37.5 c 128,-1,29
 552 87 552 87 540 178 c 1,0,1
636 829 m 1,30,31
 636 848 636 848 618.5 877.5 c 128,-1,32
 601 907 601 907 544 907 c 128,-1,33
 487 907 487 907 434 846 c 1,34,35
 303 699 303 699 270 424 c 0,36,37
 265 382 265 382 265 335 c 0,38,39
 265 244 265 244 303 208 c 1,40,41
 325 186 325 186 358 186 c 0,42,43
 418 186 418 186 468.5 234.5 c 128,-1,44
 519 283 519 283 538 367 c 1,45,-1
 636 829 l 1,30,31
508 1149 m 1,46,-1
 694 1536 l 1,47,-1
 909 1536 l 1,48,-1
 661 1149 l 1,49,-1
 508 1149 l 1,46,-1
EndSplineSet
Validated: 1
EndChar

StartChar: acircumflex
Encoding: 316 226 87
Width: 1077
Flags: W
LayerCount: 2
Fore
SplineSet
1163 367 m 1,0,1
 1033 -12 1033 -12 752 -12 c 0,2,3
 571 -12 571 -12 551 176 c 1,4,5
 417 -12 417 -12 238.5 -12 c 128,-1,6
 60 -12 60 -12 -4 163 c 0,7,8
 -27 226 -27 226 -27 306.5 c 128,-1,9
 -27 387 -27 387 -13 467.5 c 128,-1,10
 1 548 1 548 30 628 c 0,11,12
 94 804 94 804 213 919 c 128,-1,13
 332 1034 332 1034 500 1034 c 0,14,15
 588 1034 588 1034 627 1004.5 c 128,-1,16
 666 975 666 975 666 930 c 2,17,-1
 666 915 l 1,18,-1
 688 1024 l 1,19,-1
 983 1024 l 1,20,-1
 836 328 l 1,21,22
 827 293 827 293 827 262 c 0,23,24
 827 174 827 174 911 174 c 0,25,26
 1020 174 1020 174 1077 367 c 1,27,-1
 1163 367 l 1,0,1
647 829 m 1,28,29
 647 848 647 848 629.5 877.5 c 128,-1,30
 612 907 612 907 555 907 c 128,-1,31
 498 907 498 907 444 846 c 0,32,33
 314 699 314 699 281 424 c 0,34,35
 276 382 276 382 276 335 c 0,36,37
 276 244 276 244 314 208 c 1,38,39
 336 186 336 186 369 186 c 0,40,41
 430 186 430 186 480 234.5 c 128,-1,42
 530 283 530 283 549 367 c 1,43,-1
 647 829 l 1,28,29
834 1149 m 1,44,-1
 711 1313 l 1,45,-1
 389 1149 l 1,46,-1
 299 1149 l 1,47,-1
 733 1536 l 1,48,-1
 776 1536 l 1,49,-1
 899 1149 l 1,50,-1
 834 1149 l 1,44,-1
EndSplineSet
Validated: 1
EndChar

StartChar: acute
Encoding: 317 180 88
Width: 647
Flags: W
LayerCount: 2
Fore
SplineSet
246 1149 m 1,0,-1
 432 1536 l 1,1,-1
 647 1536 l 1,2,-1
 399 1149 l 1,3,-1
 246 1149 l 1,0,-1
EndSplineSet
Validated: 1
EndChar

StartChar: adieresis
Encoding: 318 228 89
Width: 1077
Flags: W
LayerCount: 2
Fore
SplineSet
1163 367 m 1,0,1
 1033 -12 1033 -12 752 -12 c 0,2,3
 571 -12 571 -12 551 176 c 1,4,5
 417 -12 417 -12 238.5 -12 c 128,-1,6
 60 -12 60 -12 -4 163 c 0,7,8
 -27 226 -27 226 -27 306.5 c 128,-1,9
 -27 387 -27 387 -13 467.5 c 128,-1,10
 1 548 1 548 30 628 c 0,11,12
 94 804 94 804 213 919 c 128,-1,13
 332 1034 332 1034 500 1034 c 0,14,15
 588 1034 588 1034 627 1004.5 c 128,-1,16
 666 975 666 975 666 930 c 2,17,-1
 666 915 l 1,18,-1
 688 1024 l 1,19,-1
 983 1024 l 1,20,-1
 836 328 l 1,21,22
 827 293 827 293 827 262 c 0,23,24
 827 174 827 174 911 174 c 0,25,26
 1020 174 1020 174 1077 367 c 1,27,-1
 1163 367 l 1,0,1
647 829 m 1,28,29
 647 848 647 848 629.5 877.5 c 128,-1,30
 612 907 612 907 555 907 c 128,-1,31
 498 907 498 907 444 846 c 0,32,33
 314 699 314 699 281 424 c 0,34,35
 276 382 276 382 276 335 c 0,36,37
 276 244 276 244 314 208 c 1,38,39
 336 186 336 186 369 186 c 0,40,41
 430 186 430 186 480 234.5 c 128,-1,42
 530 283 530 283 549 367 c 1,43,-1
 647 829 l 1,28,29
582 1209 m 1,44,45
 544 1174 544 1174 506 1174 c 0,46,47
 440 1174 440 1174 404.5 1209.5 c 128,-1,48
 369 1245 369 1245 369 1297 c 128,-1,49
 369 1349 369 1349 404 1386 c 0,50,51
 440 1423 440 1423 492.5 1423 c 128,-1,52
 545 1423 545 1423 582 1386.5 c 128,-1,53
 619 1350 619 1350 619 1297.5 c 128,-1,54
 619 1245 619 1245 582 1209 c 1,44,45
950 1209 m 1,55,56
 912 1174 912 1174 874 1174 c 0,57,58
 809 1174 809 1174 773 1209 c 128,-1,59
 737 1244 737 1244 737 1297 c 128,-1,60
 737 1350 737 1350 773 1386.5 c 128,-1,61
 809 1423 809 1423 861 1423 c 128,-1,62
 913 1423 913 1423 950 1386.5 c 128,-1,63
 987 1350 987 1350 987 1297.5 c 128,-1,64
 987 1245 987 1245 950 1209 c 1,55,56
EndSplineSet
Validated: 1
EndChar

StartChar: ae
Encoding: 319 230 90
Width: 1331
Flags: W
LayerCount: 2
Fore
SplineSet
797 952 m 1,0,1
 915 1042 915 1042 1085.5 1042 c 128,-1,2
 1256 1042 1256 1042 1287 918 c 0,3,4
 1296 881 1296 881 1296 817.5 c 128,-1,5
 1296 754 1296 754 1257 679 c 128,-1,6
 1218 604 1218 604 1153 547 c 0,7,8
 1015 426 1015 426 825 414 c 1,9,10
 821 380 821 380 821 348 c 0,11,12
 821 233 821 233 855 196.5 c 128,-1,13
 889 160 889 160 954 160 c 0,14,15
 1080 160 1080 160 1155 207 c 128,-1,16
 1230 254 1230 254 1331 367 c 1,17,-1
 1401 367 l 1,18,19
 1173 -8 1173 -8 836 -8 c 0,20,21
 588 -8 588 -8 535 184 c 1,22,23
 485 92 485 92 440 56 c 0,24,25
 355 -12 355 -12 244 -12 c 0,26,27
 68 -12 68 -12 8 122 c 1,28,29
 -16 173 -16 173 -16 261 c 0,30,31
 -16 433 -16 433 106.5 513.5 c 128,-1,32
 229 594 229 594 438 594 c 0,33,34
 507 594 507 594 545 586 c 1,35,36
 588 678 588 678 588 772 c 128,-1,37
 588 866 588 866 520 900 c 0,38,39
 496 911 496 911 433 911 c 0,40,41
 322 911 322 911 215 815 c 1,42,-1
 158 874 l 1,43,44
 302 1021 302 1021 445 1031 c 0,45,46
 487 1034 487 1034 530 1034 c 0,47,48
 694 1034 694 1034 797 952 c 1,0,1
1090 934 m 0,49,50
 1015 934 1015 934 946 807.5 c 128,-1,51
 877 681 877 681 840 512 c 1,52,53
 957 520 957 520 1048 620.5 c 128,-1,54
 1139 721 1139 721 1139 827.5 c 128,-1,55
 1139 934 1139 934 1090 934 c 0,49,50
530 467 m 1,56,57
 520 469 520 469 513 469 c 2,58,-1
 496 469 l 2,59,60
 394 469 394 469 333 420 c 256,61,62
 272 371 272 371 272 300 c 128,-1,63
 272 229 272 229 303.5 207.5 c 128,-1,64
 335 186 335 186 364 186 c 0,65,66
 422 186 422 186 461 247 c 128,-1,67
 500 308 500 308 530 467 c 1,56,57
EndSplineSet
Validated: 1
EndChar

StartChar: agrave
Encoding: 320 224 91
Width: 1077
Flags: W
LayerCount: 2
Fore
SplineSet
1163 367 m 1,0,1
 1033 -12 1033 -12 752 -12 c 0,2,3
 571 -12 571 -12 551 176 c 1,4,5
 417 -12 417 -12 238.5 -12 c 128,-1,6
 60 -12 60 -12 -4 163 c 0,7,8
 -27 226 -27 226 -27 306.5 c 128,-1,9
 -27 387 -27 387 -13 467.5 c 128,-1,10
 1 548 1 548 30 628 c 0,11,12
 94 804 94 804 213 919 c 128,-1,13
 332 1034 332 1034 500 1034 c 0,14,15
 588 1034 588 1034 627 1004.5 c 128,-1,16
 666 975 666 975 666 930 c 2,17,-1
 666 915 l 1,18,-1
 688 1024 l 1,19,-1
 983 1024 l 1,20,-1
 836 328 l 1,21,22
 827 293 827 293 827 262 c 0,23,24
 827 174 827 174 911 174 c 0,25,26
 1020 174 1020 174 1077 367 c 1,27,-1
 1163 367 l 1,0,1
647 829 m 1,28,29
 647 848 647 848 629.5 877.5 c 128,-1,30
 612 907 612 907 555 907 c 128,-1,31
 498 907 498 907 444 846 c 0,32,33
 314 699 314 699 281 424 c 0,34,35
 276 382 276 382 276 335 c 0,36,37
 276 244 276 244 314 208 c 1,38,39
 336 186 336 186 369 186 c 0,40,41
 430 186 430 186 480 234.5 c 128,-1,42
 530 283 530 283 549 367 c 1,43,-1
 647 829 l 1,28,29
563 1149 m 1,44,-1
 442 1536 l 1,45,-1
 657 1536 l 1,46,-1
 717 1149 l 1,47,-1
 563 1149 l 1,44,-1
EndSplineSet
Validated: 1
EndChar

StartChar: ampersand
Encoding: 38 38 92
Width: 1397
Flags: W
LayerCount: 2
Fore
SplineSet
1034 768 m 1,0,-1
 1190 758 l 1,1,2
 1245 758 1245 758 1301.5 778.5 c 128,-1,3
 1358 799 1358 799 1384 846 c 1,4,-1
 1397 846 l 1,5,6
 1397 757 1397 757 1303 668.5 c 128,-1,7
 1209 580 1209 580 1085 561 c 1,8,9
 962 118 962 118 696 19 c 0,10,11
 613 -12 613 -12 476.5 -12 c 128,-1,12
 340 -12 340 -12 261 23 c 128,-1,13
 182 58 182 58 129 116 c 0,14,15
 23 230 23 230 23 394 c 128,-1,16
 23 558 23 558 120 688 c 128,-1,17
 217 818 217 818 393 854 c 1,18,19
 190 963 190 963 190 1165 c 0,20,21
 190 1313 190 1313 314 1424.5 c 128,-1,22
 438 1536 438 1536 645 1536 c 0,23,24
 802 1536 802 1536 912 1467.5 c 128,-1,25
 1022 1399 1022 1399 1022 1262 c 0,26,27
 1022 1073 1022 1073 879 1073 c 0,28,29
 807 1073 807 1073 762 1126 c 1,30,31
 796 1137 796 1137 824 1194.5 c 128,-1,32
 852 1252 852 1252 852 1280 c 0,33,34
 852 1446 852 1446 717 1446 c 0,35,36
 608 1446 608 1446 537.5 1372 c 128,-1,37
 467 1298 467 1298 467 1201.5 c 128,-1,38
 467 1105 467 1105 529 1013 c 1,39,40
 592 922 592 922 737 856 c 1,41,42
 553 779 553 779 467 670.5 c 128,-1,43
 381 562 381 562 381 447 c 128,-1,44
 381 332 381 332 451.5 252 c 128,-1,45
 522 172 522 172 621 172 c 0,46,47
 816 172 816 172 926 371 c 0,48,49
 967 445 967 445 991 557 c 1,50,-1
 916 565 l 2,51,52
 881 569 881 569 846 569 c 0,53,54
 712 569 712 569 653 477 c 1,55,-1
 639 479 l 1,56,57
 670 606 670 606 772 687 c 256,58,59
 874 768 874 768 1034 768 c 1,0,-1
EndSplineSet
Validated: 1
EndChar

StartChar: aogonek
Encoding: 321 261 93
Width: 1077
Flags: W
LayerCount: 2
Fore
SplineSet
911 174 m 0,0,1
 1020 174 1020 174 1077 367 c 1,2,-1
 1163 367 l 1,3,4
 1068 99 1068 99 886 14 c 0,5,6
 837 -8 837 -8 799.5 -61 c 128,-1,7
 762 -114 762 -114 762 -161 c 0,8,9
 762 -274 762 -274 842 -274 c 0,10,11
 880 -274 880 -274 914 -249 c 1,12,-1
 981 -205 l 1,13,14
 977 -241 977 -241 977 -268 c 1,15,-1
 936 -308 l 2,16,17
 848 -395 848 -395 761.5 -395 c 128,-1,18
 675 -395 675 -395 633.5 -346 c 128,-1,19
 592 -297 592 -297 592 -236 c 0,20,21
 592 -125 592 -125 723 -10 c 1,22,23
 567 7 567 7 551 176 c 1,24,25
 417 -12 417 -12 238.5 -12 c 128,-1,26
 60 -12 60 -12 -4 163 c 0,27,28
 -27 226 -27 226 -27 306.5 c 128,-1,29
 -27 387 -27 387 -13 467.5 c 128,-1,30
 1 548 1 548 30 628 c 0,31,32
 94 804 94 804 213 919 c 128,-1,33
 332 1034 332 1034 500 1034 c 0,34,35
 588 1034 588 1034 627 1004.5 c 128,-1,36
 666 975 666 975 666 930 c 2,37,-1
 666 915 l 1,38,-1
 688 1024 l 1,39,-1
 983 1024 l 1,40,-1
 836 328 l 1,41,42
 827 293 827 293 827 262 c 0,43,44
 827 174 827 174 911 174 c 0,0,1
647 829 m 1,45,46
 647 848 647 848 629.5 877.5 c 128,-1,47
 612 907 612 907 555 907 c 128,-1,48
 498 907 498 907 444 846 c 0,49,50
 314 699 314 699 281 424 c 0,51,52
 276 382 276 382 276 335 c 0,53,54
 276 244 276 244 314 208 c 1,55,56
 336 186 336 186 369 186 c 0,57,58
 430 186 430 186 480 234.5 c 128,-1,59
 530 283 530 283 549 367 c 1,60,-1
 647 829 l 1,45,46
EndSplineSet
Validated: 1
EndChar

StartChar: aring
Encoding: 322 229 94
Width: 1077
Flags: W
LayerCount: 2
Fore
SplineSet
1163 367 m 1,0,1
 1033 -12 1033 -12 752 -12 c 0,2,3
 571 -12 571 -12 551 176 c 1,4,5
 417 -12 417 -12 238.5 -12 c 128,-1,6
 60 -12 60 -12 -4 163 c 0,7,8
 -27 226 -27 226 -27 306.5 c 128,-1,9
 -27 387 -27 387 -13 467.5 c 128,-1,10
 1 548 1 548 30 628 c 0,11,12
 94 804 94 804 213 919 c 128,-1,13
 332 1034 332 1034 500 1034 c 0,14,15
 588 1034 588 1034 627 1004.5 c 128,-1,16
 666 975 666 975 666 930 c 2,17,-1
 666 915 l 1,18,-1
 688 1024 l 1,19,-1
 983 1024 l 1,20,-1
 836 328 l 1,21,22
 827 293 827 293 827 262 c 0,23,24
 827 174 827 174 911 174 c 0,25,26
 1020 174 1020 174 1077 367 c 1,27,-1
 1163 367 l 1,0,1
647 829 m 1,28,29
 647 848 647 848 629.5 877.5 c 128,-1,30
 612 907 612 907 555 907 c 128,-1,31
 498 907 498 907 444 846 c 0,32,33
 314 699 314 699 281 424 c 0,34,35
 276 382 276 382 276 335 c 0,36,37
 276 244 276 244 314 208 c 1,38,39
 336 186 336 186 369 186 c 0,40,41
 430 186 430 186 480 234.5 c 128,-1,42
 530 283 530 283 549 367 c 1,43,-1
 647 829 l 1,28,29
479 1258 m 0,44,45
 479 1387 479 1387 573 1441 c 0,46,47
 606 1460 606 1460 667.5 1460 c 128,-1,48
 729 1460 729 1460 765 1413.5 c 128,-1,49
 801 1367 801 1367 801 1301 c 128,-1,50
 801 1235 801 1235 760.5 1182.5 c 128,-1,51
 720 1130 720 1130 638.5 1130 c 128,-1,52
 557 1130 557 1130 518 1172 c 256,53,54
 479 1214 479 1214 479 1258 c 0,44,45
631 1202 m 0,55,56
 725 1202 725 1202 725 1296 c 0,57,58
 725 1363 725 1363 695 1384 c 0,59,60
 681 1393 681 1393 657 1393 c 0,61,62
 605 1393 605 1393 583 1355 c 128,-1,63
 561 1317 561 1317 561 1278 c 0,64,65
 561 1202 561 1202 631 1202 c 0,55,56
EndSplineSet
Validated: 1
EndChar

StartChar: asciicircum
Encoding: 94 94 95
Width: 862
Flags: W
LayerCount: 2
Fore
SplineSet
637 1149 m 1,0,-1
 514 1313 l 1,1,-1
 193 1149 l 1,2,-1
 102 1149 l 1,3,-1
 537 1536 l 1,4,-1
 580 1536 l 1,5,-1
 702 1149 l 1,6,-1
 637 1149 l 1,0,-1
EndSplineSet
Validated: 1
EndChar

StartChar: asciitilde
Encoding: 126 126 96
Width: 883
Flags: W
LayerCount: 2
Fore
SplineSet
780 1325 m 0,0,1
 862 1325 862 1325 909 1372 c 1,2,-1
 922 1370 l 1,3,4
 903 1294 903 1294 804 1230 c 0,5,6
 704 1165 704 1165 614 1165 c 0,7,8
 523 1165 523 1165 447 1191 c 128,-1,9
 371 1217 371 1217 331 1229 c 128,-1,10
 291 1241 291 1241 248 1241 c 0,11,12
 171 1241 171 1241 113 1188 c 1,13,-1
 100 1192 l 1,14,15
 204 1393 204 1393 442 1393 c 0,16,17
 524 1393 524 1393 592.5 1369.5 c 128,-1,18
 661 1346 661 1346 698.5 1335.5 c 128,-1,19
 736 1325 736 1325 780 1325 c 0,0,1
EndSplineSet
Validated: 1
EndChar

StartChar: asterisk
Encoding: 42 42 97
Width: 1055
Flags: W
LayerCount: 2
Fore
SplineSet
588 1047 m 1,0,-1
 588 770 l 1,1,-1
 457 770 l 1,2,-1
 457 1047 l 1,3,-1
 238 920 l 1,4,-1
 176 1026 l 1,5,-1
 399 1155 l 1,6,-1
 176 1284 l 1,7,-1
 238 1391 l 1,8,-1
 457 1264 l 1,9,-1
 457 1540 l 1,10,-1
 588 1540 l 1,11,-1
 588 1264 l 1,12,-1
 807 1391 l 1,13,-1
 868 1284 l 1,14,-1
 645 1155 l 1,15,-1
 868 1026 l 1,16,-1
 807 920 l 1,17,-1
 588 1047 l 1,0,-1
EndSplineSet
Validated: 1
EndChar

StartChar: at
Encoding: 64 64 98
Width: 1151
Flags: W
LayerCount: 2
Fore
SplineSet
506 857 m 0,0,1
 543 884 543 884 589 884 c 1,2,-1
 590 885 l 1,3,4
 635 885 635 885 664 848 c 1,5,-1
 672 881 l 1,6,-1
 784 868 l 1,7,-1
 692 475 l 1,8,9
 684 449 684 449 684 419 c 128,-1,10
 684 389 684 389 713 389 c 0,11,12
 793 389 793 389 855 728 c 0,13,14
 868 802 868 802 868 838 c 0,15,16
 868 917 868 917 834 956 c 1,17,18
 790 1010 790 1010 701.5 1010 c 128,-1,19
 613 1010 613 1010 548 982.5 c 128,-1,20
 483 955 483 955 430 908 c 0,21,22
 326 814 326 814 267.5 661 c 128,-1,23
 209 508 209 508 209 364 c 128,-1,24
 209 220 209 220 262 163 c 128,-1,25
 315 106 315 106 442.5 106 c 128,-1,26
 570 106 570 106 641 138.5 c 128,-1,27
 712 171 712 171 766 242 c 1,28,29
 813 223 813 223 813 162 c 0,30,31
 813 50 813 50 702 -12 c 1,32,33
 588 -78 588 -78 391.5 -78 c 128,-1,34
 195 -78 195 -78 89.5 16.5 c 128,-1,35
 -16 111 -16 111 -16 336 c 0,36,37
 -16 671 -16 671 190 906 c 0,38,39
 320 1055 320 1055 498 1112 c 0,40,41
 588 1140 588 1140 660 1140 c 128,-1,42
 732 1140 732 1140 786 1130 c 0,43,44
 912 1107 912 1107 973 989 c 0,45,46
 1006 925 1006 925 1006 822 c 128,-1,47
 1006 719 1006 719 976 622.5 c 128,-1,48
 946 526 946 526 897 449.5 c 128,-1,49
 848 373 848 373 785.5 326 c 128,-1,50
 723 279 723 279 658.5 279 c 128,-1,51
 594 279 594 279 567 326 c 1,52,53
 514 246 514 246 446 246 c 0,54,55
 315 246 315 246 315 382.5 c 128,-1,56
 315 519 315 519 375 661.5 c 128,-1,57
 435 804 435 804 506 857 c 0,0,1
485 371 m 0,58,59
 511 371 511 371 553 399 c 1,60,61
 553 419 553 419 559 442 c 2,62,-1
 647 782 l 1,63,64
 633 799 633 799 599 799 c 128,-1,65
 565 799 565 799 534 753 c 0,66,67
 467 654 467 654 451 472 c 0,68,69
 449 450 449 450 449 434 c 0,70,71
 449 371 449 371 485 371 c 0,58,59
EndSplineSet
Validated: 1
EndChar

StartChar: atilde
Encoding: 323 227 99
Width: 1077
Flags: W
LayerCount: 2
Fore
SplineSet
1163 367 m 1,0,1
 1033 -12 1033 -12 752 -12 c 0,2,3
 571 -12 571 -12 551 176 c 1,4,5
 417 -12 417 -12 238.5 -12 c 128,-1,6
 60 -12 60 -12 -4 163 c 0,7,8
 -27 226 -27 226 -27 306.5 c 128,-1,9
 -27 387 -27 387 -13 467.5 c 128,-1,10
 1 548 1 548 30 628 c 0,11,12
 94 804 94 804 213 919 c 128,-1,13
 332 1034 332 1034 500 1034 c 0,14,15
 588 1034 588 1034 627 1004.5 c 128,-1,16
 666 975 666 975 666 930 c 2,17,-1
 666 915 l 1,18,-1
 688 1024 l 1,19,-1
 983 1024 l 1,20,-1
 836 328 l 1,21,22
 827 293 827 293 827 262 c 0,23,24
 827 174 827 174 911 174 c 0,25,26
 1020 174 1020 174 1077 367 c 1,27,-1
 1163 367 l 1,0,1
647 829 m 1,28,29
 647 848 647 848 629.5 877.5 c 128,-1,30
 612 907 612 907 555 907 c 128,-1,31
 498 907 498 907 444 846 c 0,32,33
 314 699 314 699 281 424 c 0,34,35
 276 382 276 382 276 335 c 0,36,37
 276 244 276 244 314 208 c 1,38,39
 336 186 336 186 369 186 c 0,40,41
 430 186 430 186 480 234.5 c 128,-1,42
 530 283 530 283 549 367 c 1,43,-1
 647 829 l 1,28,29
807 1335.5 m 128,-1,45
 845 1325 845 1325 907 1325 c 128,-1,46
 969 1325 969 1325 1018 1372 c 1,47,-1
 1030 1370 l 1,48,49
 1013 1296 1013 1296 912.5 1230.5 c 128,-1,50
 812 1165 812 1165 700 1165 c 0,51,52
 631 1165 631 1165 555 1191 c 128,-1,53
 479 1217 479 1217 439 1229 c 128,-1,54
 399 1241 399 1241 356 1241 c 0,55,56
 279 1241 279 1241 221 1188 c 1,57,-1
 209 1192 l 1,58,59
 308 1393 308 1393 551 1393 c 0,60,61
 630 1393 630 1393 699.5 1369.5 c 128,-1,44
 769 1346 769 1346 807 1335.5 c 128,-1,45
EndSplineSet
Validated: 1
EndChar

StartChar: b
Encoding: 98 98 100
Width: 909
Flags: W
LayerCount: 2
Fore
SplineSet
592 1030 m 0,0,1
 834 1030 834 1030 834 680 c 0,2,3
 834 444 834 444 716 244 c 0,4,5
 624 88 624 88 465 22 c 0,6,7
 381 -12 381 -12 255.5 -12 c 128,-1,8
 130 -12 130 -12 58 57 c 128,-1,9
 -14 126 -14 126 -14 250 c 0,10,11
 -14 305 -14 305 0 367 c 2,12,-1
 219 1393 l 1,13,-1
 522 1434 l 1,14,-1
 424 973 l 1,15,16
 516 1030 516 1030 592 1030 c 0,0,1
285 328 m 2,17,18
 279 302 279 302 279 281 c 0,19,20
 279 186 279 186 387 186 c 0,21,22
 477 186 477 186 557 356 c 1,23,24
 627 515 627 515 627 667 c 128,-1,25
 627 819 627 819 566 868 c 0,26,27
 545 885 545 885 526 885 c 0,28,29
 487 885 487 885 450 875.5 c 128,-1,30
 413 866 413 866 397 848 c 1,31,-1
 285 328 l 2,17,18
EndSplineSet
Validated: 1
EndChar

StartChar: b_s
Encoding: 324 -1 101
Width: 1636
Flags: W
LayerCount: 2
Fore
SplineSet
952 303 m 1,0,1
 952 150 952 150 1071 150 c 0,2,3
 1139 150 1139 150 1169.5 190 c 128,-1,4
 1200 230 1200 230 1200 314 c 128,-1,5
 1200 398 1200 398 1190 478 c 0,6,7
 1167 678 1167 678 1155 897 c 1,8,9
 1013 683 1013 683 831 621 c 1,10,11
 813 409 813 409 718.5 248.5 c 128,-1,12
 624 88 624 88 465 22 c 0,13,14
 381 -12 381 -12 255.5 -12 c 128,-1,15
 130 -12 130 -12 58 57 c 128,-1,16
 -14 126 -14 126 -14 250 c 0,17,18
 -14 305 -14 305 0 367 c 2,19,-1
 219 1393 l 1,20,-1
 522 1434 l 1,21,-1
 424 973 l 1,22,23
 516 1030 516 1030 592 1030 c 0,24,25
 820 1030 820 1030 833 723 c 1,26,27
 975 750 975 750 1149 1047 c 1,28,-1
 1452 1087 l 1,29,30
 1460 895 1460 895 1468 766 c 1,31,-1
 1493 441 l 2,32,33
 1497 393 1497 393 1497 346 c 128,-1,34
 1497 299 1497 299 1491 266 c 1,35,36
 1557 302 1557 302 1636 367 c 1,37,-1
 1722 367 l 1,38,39
 1613 238 1613 238 1438 127 c 1,40,41
 1342 -12 1342 -12 1137 -12 c 0,42,43
 972 -12 972 -12 902 77 c 0,44,45
 852 142 852 142 852 243.5 c 128,-1,46
 852 345 852 345 897 400 c 128,-1,47
 942 455 942 455 999 455 c 0,48,49
 1106 455 1106 455 1106 369 c 0,50,51
 1106 331 1106 331 1077 303.5 c 128,-1,52
 1048 276 1048 276 1007.5 276 c 128,-1,53
 967 276 967 276 952 303 c 1,0,1
617 776 m 1,54,55
 588 885 588 885 518 885 c 0,56,57
 468 885 468 885 437 871.5 c 128,-1,58
 406 858 406 858 397 848 c 1,59,-1
 285 328 l 2,60,61
 279 302 279 302 279 281 c 0,62,63
 279 186 279 186 387 186 c 0,64,65
 477 186 477 186 557 356 c 1,66,67
 607 470 607 470 623 610 c 1,68,69
 590 633 590 633 590 689.5 c 128,-1,70
 590 746 590 746 617 776 c 1,54,55
EndSplineSet
Validated: 1
Substitution2: "Single Substitution lookup 9 subtable" b_s.end
Ligature2: "'liga' Standard Ligatures in Latin lookup 4 subtable" b s
Substitution2: "'aalt' Access All Alternates in Latin lookup 0 subtable" b_s.end
EndChar

StartChar: b_s.end
Encoding: 325 -1 102
Width: 1497
Flags: W
LayerCount: 2
Fore
SplineSet
952 303 m 1,0,1
 952 150 952 150 1071 150 c 0,2,3
 1139 150 1139 150 1169.5 190 c 128,-1,4
 1200 230 1200 230 1200 314 c 128,-1,5
 1200 398 1200 398 1190 478 c 0,6,7
 1167 678 1167 678 1155 897 c 1,8,9
 1013 683 1013 683 831 621 c 1,10,11
 813 409 813 409 718.5 248.5 c 128,-1,12
 624 88 624 88 465 22 c 0,13,14
 381 -12 381 -12 255.5 -12 c 128,-1,15
 130 -12 130 -12 58 57 c 128,-1,16
 -14 126 -14 126 -14 250 c 0,17,18
 -14 305 -14 305 0 367 c 2,19,-1
 219 1393 l 1,20,-1
 522 1434 l 1,21,-1
 424 973 l 1,22,23
 516 1030 516 1030 592 1030 c 0,24,25
 820 1030 820 1030 833 723 c 1,26,27
 975 750 975 750 1149 1047 c 1,28,-1
 1452 1087 l 1,29,30
 1460 895 1460 895 1468 766 c 1,31,-1
 1493 441 l 2,32,33
 1497 393 1497 393 1497 317 c 128,-1,34
 1497 241 1497 241 1464 174 c 0,35,36
 1373 -12 1373 -12 1137 -12 c 0,37,38
 972 -12 972 -12 902 77 c 0,39,40
 852 142 852 142 852 243.5 c 128,-1,41
 852 345 852 345 897 400 c 128,-1,42
 942 455 942 455 999 455 c 0,43,44
 1106 455 1106 455 1106 369 c 0,45,46
 1106 331 1106 331 1077 303.5 c 128,-1,47
 1048 276 1048 276 1007.5 276 c 128,-1,48
 967 276 967 276 952 303 c 1,0,1
617 776 m 1,49,50
 588 885 588 885 518 885 c 0,51,52
 468 885 468 885 437 871.5 c 128,-1,53
 406 858 406 858 397 848 c 1,54,-1
 285 328 l 2,55,56
 279 302 279 302 279 281 c 0,57,58
 279 186 279 186 387 186 c 0,59,60
 477 186 477 186 557 356 c 1,61,62
 607 470 607 470 623 610 c 1,63,64
 590 633 590 633 590 689.5 c 128,-1,65
 590 746 590 746 617 776 c 1,49,50
EndSplineSet
Validated: 1
EndChar

StartChar: b_s_x
Encoding: 326 -1 103
Width: 2343
Flags: W
LayerCount: 2
Fore
SplineSet
952 303 m 1,0,1
 952 150 952 150 1071 150 c 0,2,3
 1139 150 1139 150 1169.5 190 c 128,-1,4
 1200 230 1200 230 1200 314 c 128,-1,5
 1200 398 1200 398 1190 478 c 0,6,7
 1167 678 1167 678 1155 897 c 1,8,9
 1013 683 1013 683 831 621 c 1,10,11
 813 409 813 409 718.5 248.5 c 128,-1,12
 624 88 624 88 465 22 c 0,13,14
 381 -12 381 -12 255.5 -12 c 128,-1,15
 130 -12 130 -12 58 57 c 128,-1,16
 -14 126 -14 126 -14 250 c 0,17,18
 -14 305 -14 305 0 367 c 2,19,-1
 219 1393 l 1,20,-1
 522 1434 l 1,21,-1
 424 973 l 1,22,23
 516 1030 516 1030 592 1030 c 0,24,25
 820 1030 820 1030 833 723 c 1,26,27
 975 750 975 750 1149 1047 c 1,28,-1
 1452 1087 l 1,29,30
 1460 895 1460 895 1468 766 c 1,31,-1
 1493 441 l 2,32,33
 1497 393 1497 393 1497 344 c 128,-1,34
 1497 295 1497 295 1489 252 c 1,35,36
 1649 319 1649 319 1743 399 c 1,37,-1
 1628 1024 l 1,38,-1
 1917 1024 l 1,39,-1
 1997 582 l 1,40,41
 2191 789 2191 789 2191 907 c 0,42,43
 2191 922 2191 922 2189 932 c 1,44,45
 2172 928 2172 928 2154 928 c 0,46,47
 2058 928 2058 928 2058 1042 c 256,48,49
 2058 1088 2058 1088 2090.5 1113.5 c 128,-1,50
 2123 1139 2123 1139 2182.5 1139 c 128,-1,51
 2242 1139 2242 1139 2277 1085.5 c 128,-1,52
 2312 1032 2312 1032 2312 944.5 c 128,-1,53
 2312 857 2312 857 2241 743 c 128,-1,54
 2170 629 2170 629 2019 469 c 1,55,-1
 2050 306 l 1,56,57
 2075 186 2075 186 2159 186 c 0,58,59
 2218 186 2218 186 2269.5 238 c 128,-1,60
 2321 290 2321 290 2343 367 c 1,61,-1
 2429 367 l 1,62,63
 2297 -12 2297 -12 2007 -12 c 0,64,65
 1907 -12 1907 -12 1855 56 c 128,-1,66
 1803 124 1803 124 1763 291 c 1,67,68
 1678 232 1678 232 1572 185.5 c 128,-1,69
 1466 139 1466 139 1434 123 c 1,70,71
 1335 -12 1335 -12 1137 -12 c 0,72,73
 972 -12 972 -12 902 77 c 0,74,75
 852 142 852 142 852 243.5 c 128,-1,76
 852 345 852 345 897 400 c 128,-1,77
 942 455 942 455 999 455 c 0,78,79
 1106 455 1106 455 1106 369 c 0,80,81
 1106 331 1106 331 1077 303.5 c 128,-1,82
 1048 276 1048 276 1007.5 276 c 128,-1,83
 967 276 967 276 952 303 c 1,0,1
617 776 m 1,84,85
 588 885 588 885 518 885 c 0,86,87
 468 885 468 885 437 871.5 c 128,-1,88
 406 858 406 858 397 848 c 1,89,-1
 285 328 l 2,90,91
 279 302 279 302 279 281 c 0,92,93
 279 186 279 186 387 186 c 0,94,95
 477 186 477 186 557 356 c 1,96,97
 607 470 607 470 623 610 c 1,98,99
 590 633 590 633 590 689.5 c 128,-1,100
 590 746 590 746 617 776 c 1,84,85
EndSplineSet
Validated: 1
Ligature2: "'liga' Standard Ligatures in Latin lookup 4 subtable" b s x
EndChar

StartChar: b_s_z
Encoding: 327 -1 104
Width: 2372
Flags: W
LayerCount: 2
Fore
SplineSet
952 303 m 1,0,1
 952 150 952 150 1071 150 c 0,2,3
 1139 150 1139 150 1169.5 190 c 128,-1,4
 1200 230 1200 230 1200 314 c 128,-1,5
 1200 398 1200 398 1190 478 c 0,6,7
 1167 678 1167 678 1155 897 c 1,8,9
 1013 683 1013 683 831 621 c 1,10,11
 813 409 813 409 718.5 248.5 c 128,-1,12
 624 88 624 88 465 22 c 0,13,14
 381 -12 381 -12 255.5 -12 c 128,-1,15
 130 -12 130 -12 58 57 c 128,-1,16
 -14 126 -14 126 -14 250 c 0,17,18
 -14 305 -14 305 0 367 c 2,19,-1
 219 1393 l 1,20,-1
 522 1434 l 1,21,-1
 424 973 l 1,22,23
 516 1030 516 1030 592 1030 c 0,24,25
 820 1030 820 1030 833 723 c 1,26,27
 975 750 975 750 1149 1047 c 1,28,-1
 1452 1087 l 1,29,30
 1460 895 1460 895 1468 766 c 1,31,-1
 1493 441 l 2,32,33
 1497 393 1497 393 1497 317 c 128,-1,34
 1497 241 1497 241 1464 174 c 0,35,36
 1373 -12 1373 -12 1137 -12 c 0,37,38
 972 -12 972 -12 902 77 c 0,39,40
 852 142 852 142 852 243.5 c 128,-1,41
 852 345 852 345 897 400 c 128,-1,42
 942 455 942 455 999 455 c 0,43,44
 1106 455 1106 455 1106 369 c 0,45,46
 1106 331 1106 331 1077 303.5 c 128,-1,47
 1048 276 1048 276 1007.5 276 c 128,-1,48
 967 276 967 276 952 303 c 1,0,1
2197 317 m 0,49,50
 2288 317 2288 317 2288 219 c 0,51,52
 2288 140 2288 140 2218 70 c 128,-1,53
 2148 0 2148 0 2038 0 c 2,54,-1
 1495 0 l 1,55,-1
 2017 913 l 1,56,-1
 1903 913 l 2,57,58
 1855 913 1855 913 1822.5 908 c 128,-1,59
 1790 903 1790 903 1790 881 c 0,60,61
 1790 876 1790 876 1793.5 875 c 128,-1,62
 1797 874 1797 874 1804.5 868.5 c 128,-1,63
 1812 863 1812 863 1812 820.5 c 128,-1,64
 1812 778 1812 778 1777.5 752.5 c 128,-1,65
 1743 727 1743 727 1714 727 c 0,66,67
 1663 727 1663 727 1635.5 751 c 128,-1,68
 1608 775 1608 775 1608 812 c 0,69,70
 1608 891 1608 891 1676 957.5 c 128,-1,71
 1744 1024 1744 1024 1845 1024 c 2,72,-1
 2372 1024 l 1,73,-1
 1870 158 l 1,74,75
 1883 157 1883 157 1901 155 c 2,76,-1
 1940 150 l 2,77,78
 1986 145 1986 145 2024 145 c 0,79,80
 2115 145 2115 145 2122 186 c 1,81,82
 2083 190 2083 190 2083 229 c 0,83,84
 2083 259 2083 259 2111 288 c 128,-1,85
 2139 317 2139 317 2197 317 c 0,49,50
617 776 m 1,86,87
 588 885 588 885 518 885 c 0,88,89
 468 885 468 885 437 871.5 c 128,-1,90
 406 858 406 858 397 848 c 1,91,-1
 285 328 l 2,92,93
 279 302 279 302 279 281 c 0,94,95
 279 186 279 186 387 186 c 0,96,97
 477 186 477 186 557 356 c 1,98,99
 607 470 607 470 623 610 c 1,100,101
 590 633 590 633 590 689.5 c 128,-1,102
 590 746 590 746 617 776 c 1,86,87
EndSplineSet
Validated: 1
Ligature2: "'liga' Standard Ligatures in Latin lookup 4 subtable" b s z
EndChar

StartChar: backslash
Encoding: 92 92 105
Width: 741
Flags: W
LayerCount: 2
Fore
SplineSet
520 -512 m 1,0,-1
 86 1536 l 1,1,-1
 233 1536 l 1,2,-1
 668 -512 l 1,3,-1
 520 -512 l 1,0,-1
EndSplineSet
Validated: 1
EndChar

StartChar: bar
Encoding: 124 124 106
Width: 1090
Flags: W
LayerCount: 2
Fore
SplineSet
449 -512 m 1,0,-1
 449 1538 l 1,1,-1
 639 1538 l 1,2,-1
 639 -512 l 1,3,-1
 449 -512 l 1,0,-1
EndSplineSet
Validated: 1
EndChar

StartChar: braceleft
Encoding: 123 123 107
Width: 721
Flags: W
LayerCount: 2
Fore
SplineSet
197 -254 m 0,0,1
 197 -418 197 -418 371 -418 c 1,2,-1
 352 -510 l 1,3,-1
 334 -510 l 2,4,5
 231 -510 231 -510 185 -495.5 c 128,-1,6
 139 -481 139 -481 100 -423.5 c 128,-1,7
 61 -366 61 -366 61 -290.5 c 128,-1,8
 61 -215 61 -215 91 -138 c 128,-1,9
 121 -61 121 -61 161 20 c 2,10,-1
 241 186 l 1,11,12
 307 326 307 326 307 403 c 0,13,14
 307 467 307 467 223 467 c 0,15,16
 197 467 197 467 158 461 c 1,17,-1
 182 578 l 1,18,19
 217 571 217 571 256 571 c 0,20,21
 331 571 331 571 364 648 c 1,22,23
 383 697 383 697 383 799 c 1,24,-1
 369 1124 l 1,25,26
 369 1266 369 1266 441 1388 c 0,27,28
 528 1536 528 1536 696 1536 c 2,29,-1
 784 1536 l 1,30,-1
 766 1434 l 1,31,32
 659 1434 659 1434 628 1416 c 128,-1,33
 597 1398 597 1398 580 1380 c 0,34,35
 524 1319 524 1319 505.5 1250.5 c 128,-1,36
 487 1182 487 1182 485 1098 c 1,37,-1
 498 748 l 1,38,39
 491 583 491 583 416 520 c 1,40,41
 440 491 440 491 440 435.5 c 128,-1,42
 440 380 440 380 412 312 c 1,43,-1
 311 92 l 1,44,45
 197 -142 197 -142 197 -254 c 0,0,1
EndSplineSet
Validated: 1
EndChar

StartChar: braceright
Encoding: 125 125 108
Width: 721
Flags: W
LayerCount: 2
Fore
SplineSet
463 227 m 1,0,-1
 477 -98 l 1,1,2
 477 -240 477 -240 405 -362 c 0,3,4
 318 -510 318 -510 150 -510 c 2,5,-1
 61 -510 l 1,6,-1
 80 -408 l 1,7,8
 184 -408 184 -408 216 -390 c 0,9,10
 354 -312 354 -312 360 -72 c 1,11,-1
 348 279 l 1,12,13
 355 443 355 443 430 506 c 1,14,15
 406 534 406 534 406 591.5 c 128,-1,16
 406 649 406 649 449 748 c 128,-1,17
 492 847 492 847 532.5 931.5 c 128,-1,18
 573 1016 573 1016 611 1109.5 c 128,-1,19
 649 1203 649 1203 649 1280 c 0,20,21
 649 1444 649 1444 475 1444 c 1,22,-1
 494 1536 l 1,23,-1
 512 1536 l 2,24,25
 613 1536 613 1536 660 1522.5 c 128,-1,26
 707 1509 707 1509 745.5 1451.5 c 128,-1,27
 784 1394 784 1394 784 1329.5 c 128,-1,28
 784 1265 784 1265 770 1214 c 0,29,30
 745 1123 745 1123 684 1006 c 1,31,-1
 630 896 l 1,32,33
 539 704 539 704 539 623 c 0,34,35
 539 559 539 559 623 559 c 0,36,37
 647 559 647 559 688 565 c 1,38,-1
 664 449 l 1,39,40
 626 455 626 455 588 455 c 0,41,42
 515 455 515 455 482 378 c 1,43,44
 463 329 463 329 463 227 c 1,0,-1
EndSplineSet
Validated: 1
EndChar

StartChar: bracketleft
Encoding: 91 91 109
Width: 819
Flags: W
LayerCount: 2
Fore
SplineSet
-49 -512 m 1,0,-1
 385 1536 l 1,1,-1
 780 1536 l 1,2,-1
 754 1409 l 1,3,-1
 506 1409 l 1,4,-1
 125 -385 l 1,5,-1
 373 -385 l 1,6,-1
 346 -512 l 1,7,-1
 -49 -512 l 1,0,-1
EndSplineSet
Validated: 1
EndChar

StartChar: bracketright
Encoding: 93 93 110
Width: 819
Flags: W
LayerCount: 2
Fore
SplineSet
-49 -512 m 1,0,-1
 -23 -385 l 1,1,-1
 225 -385 l 1,2,-1
 606 1409 l 1,3,-1
 358 1409 l 1,4,-1
 385 1536 l 1,5,-1
 780 1536 l 1,6,-1
 346 -512 l 1,7,-1
 -49 -512 l 1,0,-1
EndSplineSet
Validated: 1
EndChar

StartChar: brokenbar
Encoding: 328 166 111
Width: 1090
Flags: W
LayerCount: 2
Fore
SplineSet
449 -512 m 1,0,-1
 449 455 l 1,1,-1
 639 455 l 1,2,-1
 639 -512 l 1,3,-1
 449 -512 l 1,0,-1
449 616 m 1,4,-1
 449 1538 l 1,5,-1
 639 1538 l 1,6,-1
 639 616 l 1,7,-1
 449 616 l 1,4,-1
EndSplineSet
Validated: 1
EndChar

StartChar: bullet
Encoding: 329 8226 112
Width: 889
Flags: W
LayerCount: 2
Fore
SplineSet
641 547 m 256,0,1
 641 465 641 465 582 408 c 0,2,3
 523 350 523 350 441.5 350 c 128,-1,4
 360 350 360 350 303 408 c 0,5,6
 246 465 246 465 246 546 c 0,7,8
 246 628 246 628 303 686 c 0,9,10
 360 745 360 745 442 745 c 256,11,12
 524 745 524 745 582 686 c 0,13,14
 641 628 641 628 641 547 c 256,0,1
EndSplineSet
Validated: 1
EndChar

StartChar: c
Encoding: 99 99 113
Width: 786
Flags: W
LayerCount: 2
Fore
SplineSet
506 1042 m 0,0,1
 752 1042 752 1042 752 856 c 0,2,3
 752 778 752 778 720 741.5 c 128,-1,4
 688 705 688 705 648 705 c 128,-1,5
 608 705 608 705 571 729 c 1,6,7
 596 795 596 795 596 850 c 0,8,9
 596 934 596 934 537.5 934 c 128,-1,10
 479 934 479 934 414 828 c 0,11,12
 321 678 321 678 286 455 c 0,13,14
 276 388 276 388 276 308 c 0,15,16
 276 160 276 160 417 160 c 0,17,18
 535 160 535 160 615.5 212.5 c 128,-1,19
 696 265 696 265 786 367 c 1,20,-1
 856 367 l 1,21,22
 626 -12 626 -12 293 -12 c 0,23,24
 147 -12 147 -12 60 63.5 c 128,-1,25
 -27 139 -27 139 -27 313 c 0,26,27
 -27 548 -27 548 92 767 c 0,28,29
 182 932 182 932 339 1004 c 0,30,31
 420 1042 420 1042 506 1042 c 0,0,1
EndSplineSet
Validated: 1
Substitution2: "Single Substitution lookup 9 subtable" c.end
Substitution2: "'aalt' Access All Alternates in Latin lookup 0 subtable" c.end
EndChar

StartChar: c.end
Encoding: 330 -1 114
Width: 698
Flags: W
LayerCount: 2
Fore
SplineSet
262 348 m 0,0,1
 262 178 262 178 385 178 c 0,2,3
 495 178 495 178 631 291 c 1,4,5
 572 -12 572 -12 276 -12 c 0,6,7
 133 -12 133 -12 46 63.5 c 128,-1,8
 -41 139 -41 139 -41 313 c 0,9,10
 -41 548 -41 548 78 767 c 0,11,12
 168 932 168 932 325 1004 c 0,13,14
 406 1042 406 1042 492 1042 c 0,15,16
 635 1042 635 1042 686 988.5 c 128,-1,17
 737 935 737 935 737 854 c 128,-1,18
 737 773 737 773 703.5 739 c 128,-1,19
 670 705 670 705 630 705 c 128,-1,20
 590 705 590 705 557 729 c 1,21,22
 582 792 582 792 582 850 c 0,23,24
 582 934 582 934 526 934 c 0,25,26
 465 934 465 934 400 826 c 1,27,28
 308 677 308 677 272 461 c 0,29,30
 262 398 262 398 262 348 c 0,0,1
EndSplineSet
Validated: 1
EndChar

StartChar: c_x
Encoding: 331 -1 115
Width: 1546
Flags: W
LayerCount: 2
Fore
SplineSet
1262 1042 m 0,0,1
 1262 1139 1262 1139 1384 1139 c 0,2,3
 1444 1139 1444 1139 1480 1086 c 256,4,5
 1516 1033 1516 1033 1516 972 c 0,6,7
 1516 863 1516 863 1448.5 751.5 c 128,-1,8
 1381 640 1381 640 1223 467 c 1,9,-1
 1241 367 l 1,10,-1
 1254 306 l 1,11,12
 1278 186 1278 186 1362 186 c 0,13,14
 1421 186 1421 186 1472 237 c 256,15,16
 1523 288 1523 288 1546 367 c 1,17,-1
 1632 367 l 1,18,19
 1533 84 1533 84 1344 12 c 0,20,21
 1282 -12 1282 -12 1217 -12 c 0,22,23
 1112 -12 1112 -12 1058 54.5 c 128,-1,24
 1004 121 1004 121 971 270 c 1,25,26
 841 142 841 142 666 65 c 128,-1,27
 491 -12 491 -12 324 -12 c 0,28,29
 68 -12 68 -12 -12 166 c 0,30,31
 -41 231 -41 231 -41 305 c 128,-1,32
 -41 379 -41 379 -29 454 c 128,-1,33
 -17 529 -17 529 10 608 c 0,34,35
 72 794 72 794 182 905 c 0,36,37
 319 1042 319 1042 505.5 1042 c 128,-1,38
 692 1042 692 1042 727 922 c 0,39,40
 737 888 737 888 737 830.5 c 128,-1,41
 737 773 737 773 703.5 739 c 128,-1,42
 670 705 670 705 630 705 c 128,-1,43
 590 705 590 705 557 729 c 1,44,45
 582 792 582 792 582 850 c 0,46,47
 582 934 582 934 526 934 c 0,48,49
 476 934 476 934 430 870 c 0,50,51
 329 729 329 729 284 526 c 0,52,53
 262 431 262 431 262 358 c 0,54,55
 262 156 262 156 469 156 c 0,56,57
 653 156 653 156 836 288 c 0,58,59
 897 332 897 332 948 389 c 1,60,-1
 831 1024 l 1,61,-1
 1120 1024 l 1,62,-1
 1200 582 l 1,63,64
 1395 790 1395 790 1395 907 c 0,65,66
 1395 922 1395 922 1393 932 c 1,67,68
 1373 928 1373 928 1356 928 c 0,69,70
 1262 928 1262 928 1262 1042 c 0,0,1
EndSplineSet
Validated: 1
Ligature2: "'liga' Standard Ligatures in Latin lookup 4 subtable" c x
EndChar

StartChar: c_z
Encoding: 332 -1 116
Width: 1575
Flags: W
LayerCount: 2
Fore
SplineSet
1147 913 m 2,0,1
 1034 913 1034 913 1034 884 c 0,2,3
 1034 876 1034 876 1037.5 875 c 128,-1,4
 1041 874 1041 874 1049 868.5 c 128,-1,5
 1057 863 1057 863 1057 820.5 c 128,-1,6
 1057 778 1057 778 1022.5 752.5 c 128,-1,7
 988 727 988 727 958 727 c 0,8,9
 907 727 907 727 879.5 751 c 128,-1,10
 852 775 852 775 852 812 c 0,11,12
 852 890 852 890 919.5 957 c 128,-1,13
 987 1024 987 1024 1090 1024 c 2,14,-1
 1575 1024 l 1,15,-1
 1073 158 l 1,16,17
 1132 158 1132 158 1173 145.5 c 128,-1,18
 1214 133 1214 133 1249 133 c 128,-1,19
 1284 133 1284 133 1301.5 144.5 c 128,-1,20
 1319 156 1319 156 1325 186 c 1,21,22
 1286 190 1286 190 1286 229 c 0,23,24
 1286 259 1286 259 1314 288 c 128,-1,25
 1342 317 1342 317 1395 317 c 0,26,27
 1491 317 1491 317 1491 219 c 0,28,29
 1491 140 1491 140 1421 70 c 128,-1,30
 1351 0 1351 0 1241 0 c 2,31,-1
 698 0 l 1,32,-1
 1221 913 l 1,33,-1
 1147 913 l 2,0,1
262 348 m 0,34,35
 262 178 262 178 385 178 c 0,36,37
 495 178 495 178 631 291 c 1,38,39
 572 -12 572 -12 276 -12 c 0,40,41
 133 -12 133 -12 46 63.5 c 128,-1,42
 -41 139 -41 139 -41 313 c 0,43,44
 -41 548 -41 548 78 767 c 0,45,46
 168 932 168 932 325 1004 c 0,47,48
 406 1042 406 1042 492 1042 c 0,49,50
 635 1042 635 1042 686 988.5 c 128,-1,51
 737 935 737 935 737 854 c 128,-1,52
 737 773 737 773 703.5 739 c 128,-1,53
 670 705 670 705 630 705 c 128,-1,54
 590 705 590 705 557 729 c 1,55,56
 582 792 582 792 582 850 c 0,57,58
 582 934 582 934 526 934 c 0,59,60
 465 934 465 934 400 826 c 1,61,62
 308 677 308 677 272 461 c 0,63,64
 262 398 262 398 262 348 c 0,34,35
EndSplineSet
Validated: 1
Ligature2: "'liga' Standard Ligatures in Latin lookup 4 subtable" c z
EndChar

StartChar: cacute
Encoding: 333 263 117
Width: 786
Flags: W
LayerCount: 2
Fore
SplineSet
506 1042 m 0,0,1
 752 1042 752 1042 752 856 c 0,2,3
 752 778 752 778 720 741.5 c 128,-1,4
 688 705 688 705 648 705 c 128,-1,5
 608 705 608 705 571 729 c 1,6,7
 596 795 596 795 596 850 c 0,8,9
 596 934 596 934 537.5 934 c 128,-1,10
 479 934 479 934 414 828 c 0,11,12
 321 678 321 678 286 455 c 0,13,14
 276 388 276 388 276 308 c 0,15,16
 276 160 276 160 417 160 c 0,17,18
 535 160 535 160 615.5 212.5 c 128,-1,19
 696 265 696 265 786 367 c 1,20,-1
 856 367 l 1,21,22
 626 -12 626 -12 293 -12 c 0,23,24
 147 -12 147 -12 60 63.5 c 128,-1,25
 -27 139 -27 139 -27 313 c 0,26,27
 -27 548 -27 548 92 767 c 0,28,29
 182 932 182 932 339 1004 c 0,30,31
 420 1042 420 1042 506 1042 c 0,0,1
500 1149 m 1,32,-1
 686 1536 l 1,33,-1
 901 1536 l 1,34,-1
 653 1149 l 1,35,-1
 500 1149 l 1,32,-1
EndSplineSet
Validated: 1
EndChar

StartChar: caron
Encoding: 334 711 118
Width: 602
Flags: W
LayerCount: 2
Fore
SplineSet
371 1149 m 1,0,-1
 328 1149 l 1,1,-1
 205 1536 l 1,2,-1
 270 1536 l 1,3,-1
 393 1372 l 1,4,-1
 715 1536 l 1,5,-1
 805 1536 l 1,6,-1
 371 1149 l 1,0,-1
EndSplineSet
Validated: 1
EndChar

StartChar: ccaron
Encoding: 335 269 119
Width: 786
Flags: W
LayerCount: 2
Fore
SplineSet
506 1042 m 0,0,1
 752 1042 752 1042 752 856 c 0,2,3
 752 778 752 778 720 741.5 c 128,-1,4
 688 705 688 705 648 705 c 128,-1,5
 608 705 608 705 571 729 c 1,6,7
 596 795 596 795 596 850 c 0,8,9
 596 934 596 934 537.5 934 c 128,-1,10
 479 934 479 934 414 828 c 0,11,12
 321 678 321 678 286 455 c 0,13,14
 276 388 276 388 276 308 c 0,15,16
 276 160 276 160 417 160 c 0,17,18
 535 160 535 160 615.5 212.5 c 128,-1,19
 696 265 696 265 786 367 c 1,20,-1
 856 367 l 1,21,22
 626 -12 626 -12 293 -12 c 0,23,24
 147 -12 147 -12 60 63.5 c 128,-1,25
 -27 139 -27 139 -27 313 c 0,26,27
 -27 548 -27 548 92 767 c 0,28,29
 182 932 182 932 339 1004 c 0,30,31
 420 1042 420 1042 506 1042 c 0,0,1
588 1149 m 1,32,-1
 545 1149 l 1,33,-1
 422 1536 l 1,34,-1
 487 1536 l 1,35,-1
 610 1372 l 1,36,-1
 932 1536 l 1,37,-1
 1022 1536 l 1,38,-1
 588 1149 l 1,32,-1
EndSplineSet
Validated: 1
EndChar

StartChar: ccedilla
Encoding: 336 231 120
Width: 786
Flags: W
LayerCount: 2
Fore
SplineSet
506 1042 m 0,0,1
 752 1042 752 1042 752 856 c 0,2,3
 752 778 752 778 720 741.5 c 128,-1,4
 688 705 688 705 648 705 c 128,-1,5
 608 705 608 705 571 729 c 1,6,7
 596 795 596 795 596 850 c 0,8,9
 596 934 596 934 537.5 934 c 128,-1,10
 479 934 479 934 414 828 c 0,11,12
 321 678 321 678 286 455 c 0,13,14
 276 388 276 388 276 308 c 0,15,16
 276 160 276 160 417 160 c 0,17,18
 535 160 535 160 615.5 212.5 c 128,-1,19
 696 265 696 265 786 367 c 1,20,-1
 856 367 l 1,21,22
 697 105 697 105 478 20 c 0,23,24
 463 14 463 14 448 10 c 1,25,-1
 389 -135 l 1,26,27
 453 -119 453 -119 498 -119 c 0,28,29
 625 -119 625 -119 625 -222 c 128,-1,30
 625 -325 625 -325 550.5 -385.5 c 128,-1,31
 476 -446 476 -446 389 -446 c 128,-1,32
 302 -446 302 -446 265.5 -433.5 c 128,-1,33
 229 -421 229 -421 206 -410 c 2,34,-1
 160 -389 l 1,35,36
 198 -324 198 -324 236 -324 c 0,37,38
 289 -324 289 -324 327.5 -351.5 c 128,-1,39
 366 -379 366 -379 393 -379 c 128,-1,40
 420 -379 420 -379 437.5 -352.5 c 128,-1,41
 455 -326 455 -326 455 -295 c 128,-1,42
 455 -264 455 -264 436.5 -241.5 c 128,-1,43
 418 -219 418 -219 368.5 -219 c 128,-1,44
 319 -219 319 -219 269 -244 c 1,45,-1
 353 -9 l 1,46,47
 324 -12 324 -12 293 -12 c 0,48,49
 147 -12 147 -12 60 63.5 c 128,-1,50
 -27 139 -27 139 -27 313 c 0,51,52
 -27 548 -27 548 92 767 c 0,53,54
 182 932 182 932 339 1004 c 0,55,56
 420 1042 420 1042 506 1042 c 0,0,1
EndSplineSet
Validated: 1
EndChar

StartChar: ccircumflex
Encoding: 337 265 121
Width: 786
Flags: W
LayerCount: 2
Fore
SplineSet
506 1042 m 0,0,1
 752 1042 752 1042 752 856 c 0,2,3
 752 778 752 778 720 741.5 c 128,-1,4
 688 705 688 705 648 705 c 128,-1,5
 608 705 608 705 571 729 c 1,6,7
 596 795 596 795 596 850 c 0,8,9
 596 934 596 934 537.5 934 c 128,-1,10
 479 934 479 934 414 828 c 0,11,12
 321 678 321 678 286 455 c 0,13,14
 276 388 276 388 276 308 c 0,15,16
 276 160 276 160 417 160 c 0,17,18
 535 160 535 160 615.5 212.5 c 128,-1,19
 696 265 696 265 786 367 c 1,20,-1
 856 367 l 1,21,22
 626 -12 626 -12 293 -12 c 0,23,24
 147 -12 147 -12 60 63.5 c 128,-1,25
 -27 139 -27 139 -27 313 c 0,26,27
 -27 548 -27 548 92 767 c 0,28,29
 182 932 182 932 339 1004 c 0,30,31
 420 1042 420 1042 506 1042 c 0,0,1
754 1149 m 1,32,-1
 631 1313 l 1,33,-1
 309 1149 l 1,34,-1
 219 1149 l 1,35,-1
 653 1536 l 1,36,-1
 696 1536 l 1,37,-1
 819 1149 l 1,38,-1
 754 1149 l 1,32,-1
EndSplineSet
Validated: 1
EndChar

StartChar: cedilla
Encoding: 338 184 122
Width: 465
Flags: W
LayerCount: 2
Fore
SplineSet
0 -389 m 1,0,1
 38 -324 38 -324 76 -324 c 0,2,3
 129 -324 129 -324 167.5 -351.5 c 128,-1,4
 206 -379 206 -379 233 -379 c 128,-1,5
 260 -379 260 -379 277.5 -352.5 c 128,-1,6
 295 -326 295 -326 295 -295 c 128,-1,7
 295 -264 295 -264 276.5 -241.5 c 128,-1,8
 258 -219 258 -219 208.5 -219 c 128,-1,9
 159 -219 159 -219 109 -244 c 1,10,-1
 217 59 l 1,11,-1
 289 12 l 1,12,-1
 229 -135 l 1,13,14
 293 -119 293 -119 338 -119 c 0,15,16
 465 -119 465 -119 465 -222 c 128,-1,17
 465 -325 465 -325 390.5 -385.5 c 128,-1,18
 316 -446 316 -446 229 -446 c 128,-1,19
 142 -446 142 -446 105.5 -433.5 c 128,-1,20
 69 -421 69 -421 46 -410 c 2,21,-1
 0 -389 l 1,0,1
EndSplineSet
Validated: 1
EndChar

StartChar: cent
Encoding: 339 162 123
Width: 825
Flags: W
LayerCount: 2
Fore
SplineSet
424 438 m 1,0,1
 434 436 434 436 455 436 c 0,2,3
 537 436 537 436 585 468 c 0,4,5
 672 527 672 527 725 575 c 1,6,7
 702 446 702 446 623.5 374.5 c 128,-1,8
 545 303 545 303 393 297 c 1,9,-1
 315 -55 l 1,10,-1
 260 -55 l 1,11,-1
 324 299 l 1,12,13
 210 316 210 316 136.5 406 c 128,-1,14
 63 496 63 496 63 647 c 0,15,16
 63 865 63 865 176.5 1027.5 c 128,-1,17
 290 1190 290 1190 489 1219 c 1,18,-1
 535 1470 l 1,19,-1
 653 1470 l 1,20,-1
 598 1221 l 1,21,22
 724 1214 724 1214 766 1144 c 0,23,24
 782 1118 782 1118 782 1082.5 c 128,-1,25
 782 1047 782 1047 772 1014 c 1,26,-1
 655 1014 l 1,27,28
 666 1053 666 1053 666 1071 c 0,29,30
 666 1141 666 1141 590 1141 c 2,31,-1
 580 1141 l 1,32,-1
 424 438 l 1,0,1
467 1094 m 1,33,34
 339 991 339 991 293 780 c 0,35,36
 279 716 279 716 279 672 c 0,37,38
 279 524 279 524 354 469 c 1,39,-1
 467 1094 l 1,33,34
EndSplineSet
Validated: 1
EndChar

StartChar: circumflex
Encoding: 340 710 124
Width: 600
Flags: W
LayerCount: 2
Fore
SplineSet
535 1149 m 1,0,-1
 412 1313 l 1,1,-1
 90 1149 l 1,2,-1
 0 1149 l 1,3,-1
 434 1536 l 1,4,-1
 477 1536 l 1,5,-1
 600 1149 l 1,6,-1
 535 1149 l 1,0,-1
EndSplineSet
Validated: 1
EndChar

StartChar: circunflex
Encoding: 341 -1 125
Width: 600
Flags: W
LayerCount: 2
Fore
SplineSet
535 1149 m 1,0,-1
 412 1313 l 1,1,-1
 90 1149 l 1,2,-1
 0 1149 l 1,3,-1
 434 1536 l 1,4,-1
 477 1536 l 1,5,-1
 600 1149 l 1,6,-1
 535 1149 l 1,0,-1
EndSplineSet
Validated: 1
EndChar

StartChar: colon
Encoding: 58 58 126
Width: 547
Flags: W
LayerCount: 2
Fore
SplineSet
410 276 m 256,0,1
 410 208 410 208 361 161.5 c 128,-1,2
 312 115 312 115 245 115 c 128,-1,3
 178 115 178 115 131 162 c 256,4,5
 84 209 84 209 84 276 c 256,6,7
 84 343 84 343 130.5 391.5 c 128,-1,8
 177 440 177 440 245 440 c 128,-1,9
 313 440 313 440 361.5 392 c 128,-1,10
 410 344 410 344 410 276 c 256,0,1
464 884 m 256,11,12
 512 836 512 836 512 767.5 c 128,-1,13
 512 699 512 699 463.5 652.5 c 128,-1,14
 415 606 415 606 348.5 606 c 128,-1,15
 282 606 282 606 233 653 c 1,16,17
 186 700 186 700 186 767.5 c 128,-1,18
 186 835 186 835 233 884 c 1,19,20
 281 932 281 932 348.5 932 c 128,-1,21
 416 932 416 932 464 884 c 256,11,12
EndSplineSet
Validated: 1
EndChar

StartChar: comma
Encoding: 44 44 127
Width: 442
Flags: W
LayerCount: 2
Fore
SplineSet
84 -258 m 1,0,1
 66 -246 66 -246 66 -221 c 0,2,3
 66 -188 66 -188 119 -132 c 128,-1,4
 172 -76 172 -76 172 -45 c 128,-1,5
 172 -14 172 -14 138 8 c 0,6,7
 49 66 49 66 49 143 c 128,-1,8
 49 220 49 220 95.5 268.5 c 128,-1,9
 142 317 142 317 211 317 c 0,10,11
 311 317 311 317 341 224 c 0,12,13
 350 195 350 195 350 156 c 0,14,15
 350 65 350 65 277.5 -55.5 c 128,-1,16
 205 -176 205 -176 84 -258 c 1,0,1
EndSplineSet
Validated: 1
EndChar

StartChar: copyright
Encoding: 342 169 128
Width: 1202
Flags: W
LayerCount: 2
Fore
SplineSet
862 512 m 1,0,1
 819 446 819 446 752.5 409.5 c 128,-1,2
 686 373 686 373 617 373 c 0,3,4
 488 373 488 373 399.5 466.5 c 128,-1,5
 311 560 311 560 311 689 c 128,-1,6
 311 818 311 818 399.5 904.5 c 128,-1,7
 488 991 488 991 614 991 c 1,8,9
 712 986 712 986 780.5 932 c 128,-1,10
 849 878 849 878 868 797 c 1,11,-1
 772 760 l 1,12,-1
 758 800 l 1,13,14
 727 885 727 885 618 885 c 0,15,16
 540 885 540 885 482 839 c 256,17,18
 424 793 424 793 424 698.5 c 128,-1,19
 424 604 424 604 481 541.5 c 128,-1,20
 538 479 538 479 618 479 c 0,21,22
 666 479 666 479 708 503.5 c 128,-1,23
 750 528 750 528 772 571 c 1,24,-1
 862 512 l 1,0,1
249.5 308 m 128,-1,26
 104 460 104 460 104 678 c 256,27,28
 104 898 104 898 250 1050 c 128,-1,29
 396 1202 396 1202 600 1202 c 128,-1,30
 804 1202 804 1202 950 1049.5 c 128,-1,31
 1096 897 1096 897 1096 680 c 128,-1,32
 1096 463 1096 463 950 309.5 c 128,-1,33
 804 156 804 156 599.5 156 c 128,-1,25
 395 156 395 156 249.5 308 c 128,-1,26
890 368 m 128,-1,35
 1008 494 1008 494 1008 678 c 256,36,37
 1008 862 1008 862 889.5 988 c 128,-1,38
 771 1114 771 1114 602.5 1114 c 128,-1,39
 434 1114 434 1114 316.5 987.5 c 128,-1,40
 199 861 199 861 199 678 c 256,41,42
 199 495 199 495 316.5 368.5 c 128,-1,43
 434 242 434 242 603 242 c 128,-1,34
 772 242 772 242 890 368 c 128,-1,35
EndSplineSet
Validated: 1
EndChar

StartChar: currency
Encoding: 343 164 129
Width: 1024
GlyphClass: 2
Flags: W
LayerCount: 2
Fore
SplineSet
332 967 m 1,0,1
 415 1028 415 1028 517.5 1028 c 128,-1,2
 620 1028 620 1028 700 969 c 1,3,-1
 815 1083 l 1,4,-1
 889 1010 l 1,5,-1
 776 897 l 1,6,7
 838 812 838 812 838 709.5 c 128,-1,8
 838 607 838 607 776 522 c 1,9,-1
 889 410 l 1,10,-1
 815 336 l 1,11,-1
 702 449 l 1,12,13
 624 389 624 389 519.5 389 c 128,-1,14
 415 389 415 389 330 451 c 1,15,-1
 215 336 l 1,16,-1
 141 410 l 1,17,-1
 256 524 l 1,18,19
 197 603 197 603 197 707.5 c 128,-1,20
 197 812 197 812 256 891 c 1,21,-1
 139 1008 l 1,22,-1
 217 1081 l 1,23,-1
 332 967 l 1,0,1
723 709 m 256,24,25
 723 795 723 795 663.5 854 c 128,-1,26
 604 913 604 913 518.5 913 c 128,-1,27
 433 913 433 913 373 854 c 128,-1,28
 313 795 313 795 313 709.5 c 128,-1,29
 313 624 313 624 372 563 c 1,30,31
 433 504 433 504 518.5 504 c 128,-1,32
 604 504 604 504 663.5 563.5 c 128,-1,33
 723 623 723 623 723 709 c 256,24,25
EndSplineSet
Validated: 1
EndChar

StartChar: d
Encoding: 100 100 130
Width: 1075
Flags: W
LayerCount: 2
Fore
SplineSet
549 176 m 1,0,1
 425 -12 425 -12 242.5 -12 c 128,-1,2
 60 -12 60 -12 -4 163 c 0,3,4
 -27 226 -27 226 -27 306.5 c 128,-1,5
 -27 387 -27 387 -13 467.5 c 128,-1,6
 1 548 1 548 30 628 c 0,7,8
 94 804 94 804 213 919 c 128,-1,9
 332 1034 332 1034 500 1034 c 0,10,11
 588 1034 588 1034 627 1004.5 c 128,-1,12
 666 975 666 975 666 930 c 2,13,-1
 666 922 l 1,14,-1
 766 1393 l 1,15,-1
 1069 1434 l 1,16,-1
 834 328 l 1,17,18
 825 293 825 293 825 256 c 0,19,20
 825 186 825 186 909 186 c 0,21,22
 1024 186 1024 186 1075 367 c 1,23,-1
 1161 367 l 1,24,25
 1033 0 1033 0 750 0 c 0,26,27
 573 0 573 0 549 176 c 1,0,1
276 335 m 0,28,29
 276 186 276 186 378 186 c 0,30,31
 421 186 421 186 473.5 227.5 c 128,-1,32
 526 269 526 269 547 356 c 1,33,-1
 547 367 l 1,34,-1
 647 836 l 1,35,36
 628 907 628 907 563 907 c 128,-1,37
 498 907 498 907 444 846 c 0,38,39
 314 699 314 699 281 424 c 0,40,41
 276 382 276 382 276 335 c 0,28,29
EndSplineSet
Validated: 1
Substitution2: "Single Substitution lookup 9 subtable" d.end
Substitution2: "'aalt' Access All Alternates in Latin lookup 0 subtable" d.end
EndChar

StartChar: d.end
Encoding: 344 -1 131
Width: 975
Flags: W
LayerCount: 2
Fore
SplineSet
909 186 m 0,0,1
 942 186 942 186 975 199 c 1,2,3
 968 96 968 96 903 42 c 128,-1,4
 838 -12 838 -12 752 -12 c 128,-1,5
 666 -12 666 -12 626 18 c 0,6,7
 554 74 554 74 537 158 c 1,8,9
 412 -12 412 -12 236 -12 c 128,-1,10
 60 -12 60 -12 -4 163 c 0,11,12
 -27 226 -27 226 -27 306.5 c 128,-1,13
 -27 387 -27 387 -13 467.5 c 128,-1,14
 1 548 1 548 30 628 c 0,15,16
 94 804 94 804 213 919 c 128,-1,17
 332 1034 332 1034 500 1034 c 0,18,19
 588 1034 588 1034 627 1004.5 c 128,-1,20
 666 975 666 975 666 930 c 2,21,-1
 666 922 l 1,22,-1
 766 1393 l 1,23,-1
 1069 1434 l 1,24,-1
 834 328 l 1,25,26
 825 297 825 297 825 268 c 0,27,28
 825 186 825 186 909 186 c 0,0,1
276 335 m 0,29,30
 276 186 276 186 378 186 c 0,31,32
 421 186 421 186 469 223.5 c 128,-1,33
 517 261 517 261 539 334 c 1,34,-1
 647 836 l 1,35,36
 628 907 628 907 563 907 c 128,-1,37
 498 907 498 907 444 846 c 0,38,39
 314 699 314 699 281 424 c 0,40,41
 276 382 276 382 276 335 c 0,29,30
EndSplineSet
Validated: 1
EndChar

StartChar: dagger
Encoding: 345 8224 132
Width: 1014
Flags: W
LayerCount: 2
Fore
SplineSet
193 -512 m 1,0,-1
 438 647 l 1,1,-1
 139 647 l 1,2,-1
 188 877 l 1,3,-1
 485 877 l 1,4,-1
 627 1536 l 1,5,-1
 774 1536 l 1,6,-1
 633 877 l 1,7,-1
 942 877 l 1,8,-1
 895 647 l 1,9,-1
 586 647 l 1,10,-1
 340 -512 l 1,11,-1
 193 -512 l 1,0,-1
EndSplineSet
Validated: 1
EndChar

StartChar: daggerdbl
Encoding: 346 8225 133
Width: 1014
Flags: W
LayerCount: 2
Fore
SplineSet
193 -512 m 1,0,-1
 344 207 l 1,1,-1
 49 207 l 1,2,-1
 98 436 l 1,3,-1
 393 436 l 1,4,-1
 438 647 l 1,5,-1
 139 647 l 1,6,-1
 188 877 l 1,7,-1
 485 877 l 1,8,-1
 627 1536 l 1,9,-1
 774 1536 l 1,10,-1
 633 877 l 1,11,-1
 942 877 l 1,12,-1
 895 647 l 1,13,-1
 586 647 l 1,14,-1
 541 436 l 1,15,-1
 852 436 l 1,16,-1
 805 207 l 1,17,-1
 492 207 l 1,18,-1
 340 -512 l 1,19,-1
 193 -512 l 1,0,-1
EndSplineSet
Validated: 1
EndChar

StartChar: degree
Encoding: 347 176 134
Width: 643
Flags: W
LayerCount: 2
Fore
SplineSet
266 766 m 0,0,1
 159 766 159 766 117.5 823 c 128,-1,2
 76 880 76 880 76 984 c 0,3,4
 76 1186 76 1186 166 1312 c 128,-1,5
 256 1438 256 1438 408 1438 c 0,6,7
 498 1438 498 1438 536.5 1378.5 c 128,-1,8
 575 1319 575 1319 575 1188.5 c 128,-1,9
 575 1058 575 1058 492.5 912 c 128,-1,10
 410 766 410 766 266 766 c 0,0,1
299 1288 m 0,11,12
 273 1250 273 1250 248 1179.5 c 128,-1,13
 223 1109 223 1109 223 1016.5 c 128,-1,14
 223 924 223 924 233 883 c 128,-1,15
 243 842 243 842 281 842 c 0,16,17
 356 842 356 842 404.5 959.5 c 128,-1,18
 453 1077 453 1077 453 1237 c 0,19,20
 453 1292 453 1292 443.5 1329 c 128,-1,21
 434 1366 434 1366 401 1366 c 0,22,23
 351 1366 351 1366 299 1288 c 0,11,12
EndSplineSet
Validated: 1
EndChar

StartChar: dieresis
Encoding: 348 168 135
Width: 803
Flags: W
LayerCount: 2
Fore
SplineSet
328 1209 m 1,0,1
 290 1174 290 1174 252 1174 c 0,2,3
 186 1174 186 1174 150.5 1209.5 c 128,-1,4
 115 1245 115 1245 115 1297 c 128,-1,5
 115 1349 115 1349 150 1386 c 0,6,7
 186 1423 186 1423 238.5 1423 c 128,-1,8
 291 1423 291 1423 328 1386.5 c 128,-1,9
 365 1350 365 1350 365 1297.5 c 128,-1,10
 365 1245 365 1245 328 1209 c 1,0,1
696 1209 m 1,11,12
 658 1174 658 1174 620 1174 c 0,13,14
 555 1174 555 1174 519 1209 c 128,-1,15
 483 1244 483 1244 483 1297 c 128,-1,16
 483 1350 483 1350 519 1386.5 c 128,-1,17
 555 1423 555 1423 607 1423 c 128,-1,18
 659 1423 659 1423 696 1386.5 c 128,-1,19
 733 1350 733 1350 733 1297.5 c 128,-1,20
 733 1245 733 1245 696 1209 c 1,11,12
EndSplineSet
Validated: 1
EndChar

StartChar: divide
Encoding: 349 247 136
Width: 967
Flags: W
LayerCount: 2
Fore
SplineSet
348 49 m 256,0,1
 301 96 301 96 301 163 c 128,-1,2
 301 230 301 230 347.5 279 c 128,-1,3
 394 328 394 328 462 328 c 128,-1,4
 530 328 530 328 578.5 279.5 c 128,-1,5
 627 231 627 231 627 163 c 128,-1,6
 627 95 627 95 578 48.5 c 128,-1,7
 529 2 529 2 462 2 c 128,-1,8
 395 2 395 2 348 49 c 256,0,1
471 735 m 256,9,10
 424 782 424 782 424 849.5 c 128,-1,11
 424 917 424 917 470.5 965.5 c 128,-1,12
 517 1014 517 1014 585 1014 c 128,-1,13
 653 1014 653 1014 701.5 966 c 128,-1,14
 750 918 750 918 750 849.5 c 128,-1,15
 750 781 750 781 701 734.5 c 128,-1,16
 652 688 652 688 585 688 c 128,-1,17
 518 688 518 688 471 735 c 256,9,10
105 422 m 1,18,-1
 142 583 l 1,19,-1
 859 583 l 1,20,-1
 824 422 l 1,21,-1
 105 422 l 1,18,-1
EndSplineSet
Validated: 1
EndChar

StartChar: dollar
Encoding: 36 36 137
Width: 825
Flags: W
LayerCount: 2
Fore
SplineSet
567 969 m 1,0,1
 616 998 616 998 616 1075 c 0,2,3
 616 1098 616 1098 601 1124.5 c 128,-1,4
 586 1151 586 1151 551 1165 c 1,5,-1
 477 836 l 1,6,-1
 557 778 l 1,7,8
 709 673 709 673 709 526.5 c 128,-1,9
 709 380 709 380 607.5 301.5 c 128,-1,10
 506 223 506 223 340 219 c 1,11,-1
 281 -55 l 1,12,-1
 225 -55 l 1,13,-1
 274 221 l 1,14,15
 180 228 180 228 114 281 c 0,16,17
 49 334 49 334 49 455 c 0,18,19
 49 534 49 534 92.5 582.5 c 128,-1,20
 136 631 136 631 188 631 c 128,-1,21
 240 631 240 631 262.5 615.5 c 128,-1,22
 285 600 285 600 285 580 c 1,23,24
 203 563 203 563 203 428 c 0,25,26
 203 383 203 383 228.5 351 c 128,-1,27
 254 319 254 319 289 303 c 1,28,-1
 362 705 l 1,29,-1
 286 764 l 2,30,31
 199 831 199 831 172 883.5 c 128,-1,32
 145 936 145 936 145 989 c 0,33,34
 145 1093 145 1093 243 1171 c 128,-1,35
 341 1249 341 1249 461 1253 c 1,36,-1
 500 1470 l 1,37,-1
 618 1470 l 1,38,-1
 567 1247 l 1,39,40
 647 1233 647 1233 680 1206 c 1,41,42
 745 1156 745 1156 745 1080 c 0,43,44
 745 922 745 922 647 922 c 0,45,46
 606 922 606 922 567 969 c 1,0,1
358 295 m 1,47,48
 431 305 431 305 463 358 c 0,49,50
 494 411 494 411 494 486.5 c 128,-1,51
 494 562 494 562 434 635 c 1,52,-1
 358 295 l 1,47,48
446 1176 m 1,53,54
 386 1162 386 1162 363 1115.5 c 128,-1,55
 340 1069 340 1069 340 1013.5 c 128,-1,56
 340 958 340 958 397 899 c 1,57,-1
 446 1176 l 1,53,54
EndSplineSet
Validated: 1
EndChar

StartChar: dotlessi
Encoding: 350 305 138
Width: 547
Flags: W
LayerCount: 2
Fore
SplineSet
633 367 m 1,0,1
 501 -12 501 -12 192 -12 c 0,2,3
 111 -12 111 -12 47 46 c 0,4,5
 -16 104 -16 104 -16 233 c 0,6,7
 -16 291 -16 291 0 367 c 2,8,-1
 139 1024 l 1,9,-1
 434 1024 l 1,10,-1
 287 328 l 2,11,12
 279 291 279 291 279 255 c 0,13,14
 279 186 279 186 362 186 c 0,15,16
 422 186 422 186 473.5 238 c 128,-1,17
 525 290 525 290 547 367 c 1,18,-1
 633 367 l 1,0,1
EndSplineSet
Validated: 1
EndChar

StartChar: dotlessi.end
Encoding: 351 -1 139
Width: 428
Flags: W
LayerCount: 2
Fore
SplineSet
299 202.5 m 128,-1,1
 319 186 319 186 357.5 186 c 128,-1,2
 396 186 396 186 428 199 c 1,3,4
 420 96 420 96 356 42 c 0,5,6
 292 -12 292 -12 201.5 -12 c 128,-1,7
 111 -12 111 -12 47 46 c 0,8,9
 -16 104 -16 104 -16 233 c 0,10,11
 -16 291 -16 291 0 367 c 2,12,-1
 139 1024 l 1,13,-1
 434 1024 l 1,14,-1
 287 328 l 2,15,16
 279 291 279 291 279 255 c 128,-1,0
 279 219 279 219 299 202.5 c 128,-1,1
EndSplineSet
Validated: 1
EndChar

StartChar: e
Encoding: 101 101 140
Width: 786
Flags: W
LayerCount: 2
Fore
SplineSet
856 367 m 1,0,1
 626 -12 626 -12 293 -12 c 0,2,3
 147 -12 147 -12 60 63.5 c 128,-1,4
 -27 139 -27 139 -27 313 c 0,5,6
 -27 547 -27 547 92 766 c 0,7,8
 183 933 183 933 340 1004 c 1,9,10
 421 1042 421 1042 508 1042 c 0,11,12
 650 1042 650 1042 701 988.5 c 128,-1,13
 752 935 752 935 752 846 c 0,14,15
 752 671 752 671 611 548.5 c 128,-1,16
 470 426 470 426 281 414 c 1,17,18
 276 356 276 356 276 332 c 0,19,20
 276 227 276 227 313 193.5 c 128,-1,21
 350 160 350 160 417 160 c 0,22,23
 535 160 535 160 615.5 212.5 c 128,-1,24
 696 265 696 265 786 367 c 1,25,-1
 856 367 l 1,0,1
594 860 m 0,26,27
 594 934 594 934 543 934 c 1,28,29
 468 932 468 932 398 801.5 c 128,-1,30
 328 671 328 671 297 512 c 1,31,32
 415 520 415 520 504.5 622 c 128,-1,33
 594 724 594 724 594 860 c 0,26,27
EndSplineSet
Validated: 1
Substitution2: "Single Substitution lookup 9 subtable" e.end
Substitution2: "'aalt' Access All Alternates in Latin lookup 0 subtable" e.end
EndChar

StartChar: e.end
Encoding: 352 -1 141
Width: 750
Flags: W
LayerCount: 2
Fore
SplineSet
274 352 m 0,0,1
 274 182 274 182 404 182 c 0,2,3
 461 182 461 182 527.5 215 c 128,-1,4
 594 248 594 248 643 291 c 1,5,6
 588 -12 588 -12 289 -12 c 0,7,8
 145 -12 145 -12 58 63.5 c 128,-1,9
 -29 139 -29 139 -29 313 c 0,10,11
 -29 547 -29 547 90 766 c 0,12,13
 181 933 181 933 338 1004 c 1,14,15
 419 1042 419 1042 506 1042 c 0,16,17
 648 1042 648 1042 699 988.5 c 128,-1,18
 750 935 750 935 750 846 c 0,19,20
 750 670 750 670 609.5 548 c 128,-1,21
 469 426 469 426 279 414 c 1,22,23
 274 386 274 386 274 352 c 0,0,1
592 860 m 0,24,25
 592 934 592 934 541 934 c 1,26,27
 444 930 444 930 354 708 c 0,28,29
 316 613 316 613 293 512 c 1,30,31
 411 516 411 516 501.5 618.5 c 128,-1,32
 592 721 592 721 592 860 c 0,24,25
EndSplineSet
Validated: 1
EndChar

StartChar: e_x
Encoding: 353 -1 142
Width: 1561
Flags: W
LayerCount: 2
Fore
SplineSet
1276 1042 m 0,0,1
 1276 1139 1276 1139 1398 1139 c 0,2,3
 1458 1139 1458 1139 1494 1086 c 256,4,5
 1530 1033 1530 1033 1530 972 c 0,6,7
 1530 863 1530 863 1463.5 751 c 128,-1,8
 1397 639 1397 639 1237 467 c 1,9,-1
 1255 367 l 1,10,11
 1262 338 1262 338 1268 306 c 0,12,13
 1293 186 1293 186 1376 186 c 0,14,15
 1436 186 1436 186 1487.5 238 c 128,-1,16
 1539 290 1539 290 1561 367 c 1,17,-1
 1647 367 l 1,18,19
 1548 85 1548 85 1358 12 c 0,20,21
 1291 -14 1291 -14 1237.5 -14 c 128,-1,22
 1184 -14 1184 -14 1142 4 c 0,23,24
 1068 34 1068 34 1026 140 c 0,25,26
 1004 194 1004 194 985 272 c 1,27,28
 789 72 789 72 512 8 c 0,29,30
 424 -12 424 -12 344 -12 c 0,31,32
 174 -12 174 -12 73.5 67.5 c 128,-1,33
 -27 147 -27 147 -27 322 c 0,34,35
 -27 547 -27 547 92 766 c 0,36,37
 183 933 183 933 340 1004 c 1,38,39
 421 1042 421 1042 508 1042 c 0,40,41
 650 1042 650 1042 701 988.5 c 128,-1,42
 752 935 752 935 752 846 c 0,43,44
 752 670 752 670 611.5 548 c 128,-1,45
 471 426 471 426 279 414 c 1,46,47
 276 399 276 399 276 385 c 2,48,-1
 276 358 l 2,49,50
 276 244 276 244 336 200 c 128,-1,51
 396 156 396 156 466 156 c 0,52,53
 600 156 600 156 731.5 218 c 128,-1,54
 863 280 863 280 963 389 c 1,55,-1
 846 1024 l 1,56,-1
 1135 1024 l 1,57,-1
 1214 582 l 1,58,59
 1409 790 1409 790 1409 907 c 0,60,61
 1409 922 1409 922 1407 932 c 1,62,63
 1390 928 1390 928 1370 928 c 0,64,65
 1276 928 1276 928 1276 1042 c 0,0,1
594 860 m 0,66,67
 594 934 594 934 543 934 c 0,68,69
 470 934 470 934 397.5 800.5 c 128,-1,70
 325 667 325 667 295 512 c 1,71,72
 413 516 413 516 503.5 618.5 c 128,-1,73
 594 721 594 721 594 860 c 0,66,67
EndSplineSet
Validated: 1
Substitution2: "Single Substitution lookup 9 subtable" e_x.end
Ligature2: "'liga' Standard Ligatures in Latin lookup 4 subtable" e x
Substitution2: "'aalt' Access All Alternates in Latin lookup 0 subtable" e_x.end
EndChar

StartChar: e_x.end
Encoding: 354 -1 143
Width: 1530
Flags: W
LayerCount: 2
Fore
SplineSet
1276 1042 m 0,0,1
 1276 1139 1276 1139 1398 1139 c 0,2,3
 1458 1139 1458 1139 1494 1086 c 256,4,5
 1530 1033 1530 1033 1530 972 c 0,6,7
 1530 863 1530 863 1463.5 751 c 128,-1,8
 1397 639 1397 639 1237 467 c 1,9,-1
 1255 367 l 2,10,11
 1272 273 1272 273 1294.5 229.5 c 128,-1,12
 1317 186 1317 186 1384 186 c 0,13,14
 1418 186 1418 186 1450 199 c 1,15,16
 1443 96 1443 96 1378 42 c 128,-1,17
 1313 -12 1313 -12 1219.5 -12 c 128,-1,18
 1126 -12 1126 -12 1072.5 54.5 c 128,-1,19
 1019 121 1019 121 985 272 c 1,20,21
 789 72 789 72 512 8 c 0,22,23
 424 -12 424 -12 344 -12 c 0,24,25
 174 -12 174 -12 73.5 67.5 c 128,-1,26
 -27 147 -27 147 -27 322 c 0,27,28
 -27 547 -27 547 92 766 c 0,29,30
 183 933 183 933 340 1004 c 1,31,32
 421 1042 421 1042 508 1042 c 0,33,34
 650 1042 650 1042 701 988.5 c 128,-1,35
 752 935 752 935 752 846 c 0,36,37
 752 670 752 670 611.5 548 c 128,-1,38
 471 426 471 426 279 414 c 1,39,40
 276 399 276 399 276 385 c 2,41,-1
 276 358 l 2,42,43
 276 244 276 244 336 200 c 128,-1,44
 396 156 396 156 466 156 c 0,45,46
 600 156 600 156 731.5 218 c 128,-1,47
 863 280 863 280 963 389 c 1,48,-1
 846 1024 l 1,49,-1
 1135 1024 l 1,50,-1
 1214 582 l 1,51,52
 1409 790 1409 790 1409 907 c 0,53,54
 1409 922 1409 922 1407 932 c 1,55,56
 1390 928 1390 928 1370 928 c 0,57,58
 1276 928 1276 928 1276 1042 c 0,0,1
594 860 m 0,59,60
 594 934 594 934 543 934 c 0,61,62
 470 934 470 934 397.5 800.5 c 128,-1,63
 325 667 325 667 295 512 c 1,64,65
 413 516 413 516 503.5 618.5 c 128,-1,66
 594 721 594 721 594 860 c 0,59,60
EndSplineSet
Validated: 1
EndChar

StartChar: e_z
Encoding: 355 -1 144
Width: 1614
Flags: W
LayerCount: 2
Fore
SplineSet
263 352 m 0,0,1
 263 182 263 182 394 182 c 0,2,3
 450 182 450 182 516.5 215 c 128,-1,4
 583 248 583 248 632 291 c 1,5,6
 577 -12 577 -12 278 -12 c 0,7,8
 134 -12 134 -12 47 63.5 c 128,-1,9
 -40 139 -40 139 -40 313 c 0,10,11
 -40 547 -40 547 80 766 c 1,12,13
 170 933 170 933 326 1004 c 0,14,15
 408 1042 408 1042 494 1042 c 0,16,17
 638 1042 638 1042 688.5 988.5 c 128,-1,18
 739 935 739 935 739 846 c 0,19,20
 739 671 739 671 598.5 548.5 c 128,-1,21
 458 426 458 426 268 414 c 1,22,23
 263 386 263 386 263 352 c 0,0,1
581 860 m 0,24,25
 581 934 581 934 530 934 c 1,26,27
 433 930 433 930 343 708 c 0,28,29
 305 613 305 613 282 512 c 1,30,31
 400 516 400 516 490.5 618.5 c 128,-1,32
 581 721 581 721 581 860 c 0,24,25
1439 317 m 0,33,34
 1530 317 1530 317 1530 219 c 0,35,36
 1530 140 1530 140 1460 70 c 128,-1,37
 1390 0 1390 0 1280 0 c 2,38,-1
 737 0 l 1,39,-1
 1259 913 l 1,40,-1
 1145 913 l 2,41,42
 1097 913 1097 913 1064.5 908 c 128,-1,43
 1032 903 1032 903 1032 881 c 0,44,45
 1032 876 1032 876 1035.5 875 c 128,-1,46
 1039 874 1039 874 1046.5 868.5 c 128,-1,47
 1054 863 1054 863 1054 820.5 c 128,-1,48
 1054 778 1054 778 1019.5 752.5 c 128,-1,49
 985 727 985 727 956 727 c 0,50,51
 905 727 905 727 877.5 751 c 128,-1,52
 850 775 850 775 850 812 c 0,53,54
 850 891 850 891 918 957.5 c 128,-1,55
 986 1024 986 1024 1087 1024 c 2,56,-1
 1614 1024 l 1,57,-1
 1112 158 l 1,58,59
 1125 157 1125 157 1143 155 c 2,60,-1
 1182 150 l 2,61,62
 1228 145 1228 145 1266 145 c 0,63,64
 1357 145 1357 145 1364 186 c 1,65,66
 1325 190 1325 190 1325 229 c 0,67,68
 1325 259 1325 259 1353 288 c 128,-1,69
 1381 317 1381 317 1439 317 c 0,33,34
EndSplineSet
Validated: 1
Ligature2: "'liga' Standard Ligatures in Latin lookup 4 subtable" e z
EndChar

StartChar: eacute
Encoding: 356 233 145
Width: 786
Flags: W
LayerCount: 2
Fore
SplineSet
856 367 m 1,0,1
 626 -12 626 -12 293 -12 c 0,2,3
 147 -12 147 -12 60 63.5 c 128,-1,4
 -27 139 -27 139 -27 313 c 0,5,6
 -27 547 -27 547 92 766 c 0,7,8
 183 933 183 933 340 1004 c 1,9,10
 421 1042 421 1042 508 1042 c 0,11,12
 650 1042 650 1042 701 988.5 c 128,-1,13
 752 935 752 935 752 846 c 0,14,15
 752 671 752 671 611 548.5 c 128,-1,16
 470 426 470 426 281 414 c 1,17,18
 276 356 276 356 276 332 c 0,19,20
 276 227 276 227 313 193.5 c 128,-1,21
 350 160 350 160 417 160 c 0,22,23
 535 160 535 160 615.5 212.5 c 128,-1,24
 696 265 696 265 786 367 c 1,25,-1
 856 367 l 1,0,1
594 860 m 0,26,27
 594 934 594 934 543 934 c 1,28,29
 468 932 468 932 398 801.5 c 128,-1,30
 328 671 328 671 297 512 c 1,31,32
 415 520 415 520 504.5 622 c 128,-1,33
 594 724 594 724 594 860 c 0,26,27
398 1149 m 1,34,-1
 584 1536 l 1,35,-1
 799 1536 l 1,36,-1
 551 1149 l 1,37,-1
 398 1149 l 1,34,-1
EndSplineSet
Validated: 1
Substitution2: "Single Substitution lookup 9 subtable" eacute.end
Substitution2: "'aalt' Access All Alternates in Latin lookup 0 subtable" eacute.end
EndChar

StartChar: eacute.end
Encoding: 357 -1 146
Width: 752
Flags: W
LayerCount: 2
Fore
SplineSet
426 1149 m 1,0,-1
 612 1536 l 1,1,-1
 827 1536 l 1,2,-1
 579 1149 l 1,3,-1
 426 1149 l 1,0,-1
276 352 m 0,4,5
 276 182 276 182 406 182 c 0,6,7
 463 182 463 182 529.5 215 c 128,-1,8
 596 248 596 248 645 291 c 1,9,10
 590 -12 590 -12 291 -12 c 0,11,12
 147 -12 147 -12 60 63.5 c 128,-1,13
 -27 139 -27 139 -27 313 c 0,14,15
 -27 547 -27 547 92 766 c 0,16,17
 183 933 183 933 340 1004 c 1,18,19
 421 1042 421 1042 508 1042 c 0,20,21
 650 1042 650 1042 701 988.5 c 128,-1,22
 752 935 752 935 752 846 c 0,23,24
 752 670 752 670 611.5 548 c 128,-1,25
 471 426 471 426 281 414 c 1,26,27
 276 386 276 386 276 352 c 0,4,5
594 860 m 0,28,29
 594 934 594 934 543 934 c 1,30,31
 446 930 446 930 356 708 c 0,32,33
 318 613 318 613 295 512 c 1,34,35
 413 516 413 516 503.5 618.5 c 128,-1,36
 594 721 594 721 594 860 c 0,28,29
EndSplineSet
Validated: 1
EndChar

StartChar: eacute_x
Encoding: 358 -1 147
Width: 1556
Flags: W
LayerCount: 2
Fore
SplineSet
1272 1042 m 0,0,1
 1272 1139 1272 1139 1397 1139 c 0,2,3
 1456 1139 1456 1139 1491 1085.5 c 128,-1,4
 1526 1032 1526 1032 1526 944.5 c 128,-1,5
 1526 857 1526 857 1455 743 c 128,-1,6
 1384 629 1384 629 1233 469 c 1,7,-1
 1251 367 l 1,8,-1
 1264 306 l 1,9,10
 1288 186 1288 186 1372 186 c 0,11,12
 1432 186 1432 186 1483 237 c 1,13,14
 1533 289 1533 289 1556 367 c 1,15,-1
 1642 367 l 1,16,17
 1510 -12 1510 -12 1221 -12 c 0,18,19
 1121 -12 1121 -12 1067.5 57.5 c 128,-1,20
 1014 127 1014 127 981 272 c 1,21,22
 861 144 861 144 681.5 66 c 128,-1,23
 502 -12 502 -12 340 -12 c 0,24,25
 79 -12 79 -12 -2 162 c 0,26,27
 -31 225 -31 225 -31 300 c 128,-1,28
 -31 375 -31 375 -19 451.5 c 128,-1,29
 -7 528 -7 528 20 609 c 0,30,31
 80 794 80 794 192 906 c 1,32,33
 330 1042 330 1042 518 1042 c 128,-1,34
 706 1042 706 1042 738 918 c 0,35,36
 748 881 748 881 748 817.5 c 128,-1,37
 748 754 748 754 709 679 c 128,-1,38
 670 604 670 604 604 547 c 0,39,40
 466 426 466 426 276 414 c 1,41,42
 272 380 272 380 272 348 c 0,43,44
 272 244 272 244 332 200 c 128,-1,45
 392 156 392 156 464 156 c 0,46,47
 596 156 596 156 728.5 218.5 c 128,-1,48
 861 281 861 281 958 389 c 1,49,-1
 842 1024 l 1,50,-1
 1130 1024 l 1,51,-1
 1210 582 l 1,52,53
 1405 790 1405 790 1405 907 c 0,54,55
 1405 922 1405 922 1403 932 c 1,56,57
 1386 928 1386 928 1368 928 c 0,58,59
 1272 928 1272 928 1272 1042 c 0,0,1
541 934 m 0,60,61
 466 934 466 934 397 807.5 c 128,-1,62
 328 681 328 681 291 512 c 1,63,64
 408 520 408 520 499 620.5 c 128,-1,65
 590 721 590 721 590 827.5 c 128,-1,66
 590 934 590 934 541 934 c 0,60,61
459 1149 m 1,67,-1
 645 1536 l 1,68,-1
 860 1536 l 1,69,-1
 612 1149 l 1,70,-1
 459 1149 l 1,67,-1
EndSplineSet
Validated: 1
Ligature2: "'liga' Standard Ligatures in Latin lookup 4 subtable" eacute x
EndChar

StartChar: ecircumflex
Encoding: 359 234 148
Width: 786
Flags: W
LayerCount: 2
Fore
SplineSet
856 367 m 1,0,1
 626 -12 626 -12 293 -12 c 0,2,3
 147 -12 147 -12 60 63.5 c 128,-1,4
 -27 139 -27 139 -27 313 c 0,5,6
 -27 547 -27 547 92 766 c 0,7,8
 183 933 183 933 340 1004 c 1,9,10
 421 1042 421 1042 508 1042 c 0,11,12
 650 1042 650 1042 701 988.5 c 128,-1,13
 752 935 752 935 752 846 c 0,14,15
 752 671 752 671 611 548.5 c 128,-1,16
 470 426 470 426 281 414 c 1,17,18
 276 356 276 356 276 332 c 0,19,20
 276 227 276 227 313 193.5 c 128,-1,21
 350 160 350 160 417 160 c 0,22,23
 535 160 535 160 615.5 212.5 c 128,-1,24
 696 265 696 265 786 367 c 1,25,-1
 856 367 l 1,0,1
594 860 m 0,26,27
 594 934 594 934 543 934 c 1,28,29
 468 932 468 932 398 801.5 c 128,-1,30
 328 671 328 671 297 512 c 1,31,32
 415 520 415 520 504.5 622 c 128,-1,33
 594 724 594 724 594 860 c 0,26,27
750 1149 m 1,34,-1
 627 1313 l 1,35,-1
 305 1149 l 1,36,-1
 215 1149 l 1,37,-1
 649 1536 l 1,38,-1
 692 1536 l 1,39,-1
 815 1149 l 1,40,-1
 750 1149 l 1,34,-1
EndSplineSet
Validated: 1
EndChar

StartChar: edieresis
Encoding: 360 235 149
Width: 786
Flags: W
LayerCount: 2
Fore
SplineSet
856 367 m 1,0,1
 626 -12 626 -12 293 -12 c 0,2,3
 147 -12 147 -12 60 63.5 c 128,-1,4
 -27 139 -27 139 -27 313 c 0,5,6
 -27 547 -27 547 92 766 c 0,7,8
 183 933 183 933 340 1004 c 1,9,10
 421 1042 421 1042 508 1042 c 0,11,12
 650 1042 650 1042 701 988.5 c 128,-1,13
 752 935 752 935 752 846 c 0,14,15
 752 671 752 671 611 548.5 c 128,-1,16
 470 426 470 426 281 414 c 1,17,18
 276 356 276 356 276 332 c 0,19,20
 276 227 276 227 313 193.5 c 128,-1,21
 350 160 350 160 417 160 c 0,22,23
 535 160 535 160 615.5 212.5 c 128,-1,24
 696 265 696 265 786 367 c 1,25,-1
 856 367 l 1,0,1
594 860 m 0,26,27
 594 934 594 934 543 934 c 1,28,29
 468 932 468 932 398 801.5 c 128,-1,30
 328 671 328 671 297 512 c 1,31,32
 415 520 415 520 504.5 622 c 128,-1,33
 594 724 594 724 594 860 c 0,26,27
457 1209 m 1,34,35
 419 1174 419 1174 380 1174 c 0,36,37
 314 1174 314 1174 279 1209.5 c 128,-1,38
 244 1245 244 1245 244 1297 c 128,-1,39
 244 1349 244 1349 279 1386 c 0,40,41
 315 1423 315 1423 367.5 1423 c 128,-1,42
 420 1423 420 1423 457 1386.5 c 128,-1,43
 494 1350 494 1350 494 1297.5 c 128,-1,44
 494 1245 494 1245 457 1209 c 1,34,35
825 1209 m 1,45,46
 787 1174 787 1174 748 1174 c 0,47,48
 684 1174 684 1174 648 1209 c 128,-1,49
 612 1244 612 1244 612 1297 c 128,-1,50
 612 1350 612 1350 648 1386.5 c 128,-1,51
 684 1423 684 1423 736 1423 c 128,-1,52
 788 1423 788 1423 825 1386.5 c 128,-1,53
 862 1350 862 1350 862 1297.5 c 128,-1,54
 862 1245 862 1245 825 1209 c 1,45,46
EndSplineSet
Validated: 1
EndChar

StartChar: egrave
Encoding: 361 232 150
Width: 786
Flags: W
LayerCount: 2
Fore
SplineSet
856 367 m 1,0,1
 626 -12 626 -12 293 -12 c 0,2,3
 147 -12 147 -12 60 63.5 c 128,-1,4
 -27 139 -27 139 -27 313 c 0,5,6
 -27 547 -27 547 92 766 c 0,7,8
 183 933 183 933 340 1004 c 1,9,10
 421 1042 421 1042 508 1042 c 0,11,12
 650 1042 650 1042 701 988.5 c 128,-1,13
 752 935 752 935 752 846 c 0,14,15
 752 671 752 671 611 548.5 c 128,-1,16
 470 426 470 426 281 414 c 1,17,18
 276 356 276 356 276 332 c 0,19,20
 276 227 276 227 313 193.5 c 128,-1,21
 350 160 350 160 417 160 c 0,22,23
 535 160 535 160 615.5 212.5 c 128,-1,24
 696 265 696 265 786 367 c 1,25,-1
 856 367 l 1,0,1
594 860 m 0,26,27
 594 934 594 934 543 934 c 1,28,29
 468 932 468 932 398 801.5 c 128,-1,30
 328 671 328 671 297 512 c 1,31,32
 415 520 415 520 504.5 622 c 128,-1,33
 594 724 594 724 594 860 c 0,26,27
475 1149 m 1,34,-1
 354 1536 l 1,35,-1
 569 1536 l 1,36,-1
 629 1149 l 1,37,-1
 475 1149 l 1,34,-1
EndSplineSet
Validated: 1
EndChar

StartChar: eight
Encoding: 56 56 151
Width: 1022
Flags: W
LayerCount: 2
Fore
SplineSet
532 784 m 1,0,1
 349 659 349 659 296 450 c 0,2,3
 281 389 281 389 281 340 c 0,4,5
 281 245 281 245 318.5 191 c 128,-1,6
 356 137 356 137 417 137 c 0,7,8
 525 137 525 137 593.5 240.5 c 128,-1,9
 662 344 662 344 662 481 c 0,10,11
 662 671 662 671 532 784 c 1,0,1
352 854 m 1,12,13
 178 955 178 955 178 1133 c 0,14,15
 178 1286 178 1286 308.5 1410 c 128,-1,16
 439 1534 439 1534 629 1534 c 128,-1,17
 819 1534 819 1534 920.5 1449 c 128,-1,18
 1022 1364 1022 1364 1022 1248.5 c 128,-1,19
 1022 1133 1022 1133 951 1029 c 128,-1,20
 880 925 880 925 735 854 c 1,21,22
 865 814 865 814 924 726 c 256,23,24
 983 638 983 638 983 555.5 c 128,-1,25
 983 473 983 473 964 408 c 128,-1,26
 945 343 945 343 910 282 c 0,27,28
 833 152 833 152 703.5 71 c 128,-1,29
 574 -10 574 -10 416 -10 c 0,30,31
 214 -10 214 -10 99 111.5 c 128,-1,32
 -16 233 -16 233 -16 392.5 c 128,-1,33
 -16 552 -16 552 79.5 677 c 128,-1,34
 175 802 175 802 352 854 c 1,12,13
555 924 m 1,35,36
 700 1018 700 1018 748 1198 c 0,37,38
 762 1248 762 1248 762 1301.5 c 128,-1,39
 762 1355 762 1355 736.5 1395.5 c 128,-1,40
 711 1436 711 1436 660 1436 c 0,41,42
 564 1436 564 1436 505 1355.5 c 128,-1,43
 446 1275 446 1275 446 1188 c 0,44,45
 446 1019 446 1019 555 924 c 1,35,36
EndSplineSet
Validated: 1
EndChar

StartChar: ellipsis
Encoding: 362 8230 152
Width: 1438
Flags: W
LayerCount: 2
Fore
SplineSet
341 269 m 256,0,1
 389 221 389 221 389 153 c 128,-1,2
 389 85 389 85 340.5 38.5 c 128,-1,3
 292 -8 292 -8 225.5 -8 c 128,-1,4
 159 -8 159 -8 110 39 c 1,5,6
 63 86 63 86 63 153 c 128,-1,7
 63 220 63 220 110 269 c 1,8,9
 158 317 158 317 225.5 317 c 128,-1,10
 293 317 293 317 341 269 c 256,0,1
822 269 m 256,11,12
 870 221 870 221 870 153 c 128,-1,13
 870 85 870 85 821.5 38.5 c 128,-1,14
 773 -8 773 -8 706 -8 c 128,-1,15
 639 -8 639 -8 592 39 c 256,16,17
 545 86 545 86 545 153 c 128,-1,18
 545 220 545 220 591.5 268.5 c 128,-1,19
 638 317 638 317 706 317 c 128,-1,20
 774 317 774 317 822 269 c 256,11,12
1324 269 m 256,21,22
 1372 221 1372 221 1372 153 c 128,-1,23
 1372 85 1372 85 1323.5 38.5 c 128,-1,24
 1275 -8 1275 -8 1208 -8 c 256,25,26
 1141 -8 1141 -8 1094 39 c 256,27,28
 1047 86 1047 86 1047 153 c 128,-1,29
 1047 220 1047 220 1093.5 268.5 c 128,-1,30
 1140 317 1140 317 1208 317 c 256,31,32
 1276 317 1276 317 1324 269 c 256,21,22
EndSplineSet
Validated: 1
EndChar

StartChar: emdash
Encoding: 363 8212 153
Width: 909
Flags: W
LayerCount: 2
Fore
SplineSet
39 455 m 1,0,-1
 76 616 l 1,1,-1
 793 616 l 1,2,-1
 758 455 l 1,3,-1
 39 455 l 1,0,-1
EndSplineSet
Validated: 1
EndChar

StartChar: endash
Encoding: 364 8211 154
Width: 721
Flags: W
LayerCount: 2
Fore
SplineSet
39 455 m 1,0,-1
 76 616 l 1,1,-1
 608 616 l 1,2,-1
 573 455 l 1,3,-1
 39 455 l 1,0,-1
EndSplineSet
Validated: 1
EndChar

StartChar: eogonek
Encoding: 365 281 155
Width: 786
Flags: W
LayerCount: 2
Fore
SplineSet
631 -205 m 1,0,1
 627 -241 627 -241 627 -268 c 1,2,-1
 586 -308 l 2,3,4
 498 -395 498 -395 411.5 -395 c 128,-1,5
 325 -395 325 -395 283.5 -346 c 128,-1,6
 242 -297 242 -297 242 -239 c 0,7,8
 242 -119 242 -119 379 -6 c 1,9,10
 338 -12 338 -12 293 -12 c 0,11,12
 147 -12 147 -12 60 63.5 c 128,-1,13
 -27 139 -27 139 -27 313 c 0,14,15
 -27 547 -27 547 92 766 c 0,16,17
 183 933 183 933 340 1004 c 1,18,19
 421 1042 421 1042 508 1042 c 0,20,21
 650 1042 650 1042 701 988.5 c 128,-1,22
 752 935 752 935 752 846 c 0,23,24
 752 671 752 671 611 548.5 c 128,-1,25
 470 426 470 426 281 414 c 1,26,27
 276 356 276 356 276 332 c 0,28,29
 276 227 276 227 313 193.5 c 128,-1,30
 350 160 350 160 417 160 c 0,31,32
 535 160 535 160 615.5 212.5 c 128,-1,33
 696 265 696 265 786 367 c 1,34,-1
 856 367 l 1,35,36
 761 200 761 200 620 98 c 2,37,-1
 553 49 l 2,38,39
 479 -4 479 -4 456 -35 c 0,40,41
 412 -93 412 -93 412 -172 c 0,42,43
 412 -207 412 -207 430.5 -240.5 c 128,-1,44
 449 -274 449 -274 489 -274 c 128,-1,45
 529 -274 529 -274 564 -249 c 1,46,-1
 631 -205 l 1,0,1
594 860 m 0,47,48
 594 934 594 934 543 934 c 1,49,50
 468 932 468 932 398 801.5 c 128,-1,51
 328 671 328 671 297 512 c 1,52,53
 415 520 415 520 504.5 622 c 128,-1,54
 594 724 594 724 594 860 c 0,47,48
EndSplineSet
Validated: 1
EndChar

StartChar: equal
Encoding: 61 61 156
Width: 1055
Flags: W
LayerCount: 2
Fore
SplineSet
156 647 m 1,0,-1
 205 877 l 1,1,-1
 958 877 l 1,2,-1
 911 647 l 1,3,-1
 156 647 l 1,0,-1
66 207 m 1,4,-1
 115 436 l 1,5,-1
 868 436 l 1,6,-1
 821 207 l 1,7,-1
 66 207 l 1,4,-1
EndSplineSet
Validated: 1
EndChar

StartChar: eth
Encoding: 366 240 157
Width: 1102
Flags: W
LayerCount: 2
Fore
SplineSet
936 186 m 0,0,1
 1046 186 1046 186 1102 367 c 1,2,-1
 1188 367 l 1,3,4
 1060 0 1060 0 776 0 c 0,5,6
 601 0 601 0 575 178 c 1,7,8
 454 -12 454 -12 269.5 -12 c 128,-1,9
 85 -12 85 -12 21 163 c 0,10,11
 -2 226 -2 226 -2 306.5 c 128,-1,12
 -2 387 -2 387 12.5 467.5 c 128,-1,13
 27 548 27 548 56 628 c 0,14,15
 119 805 119 805 230 910 c 1,16,17
 357 1034 357 1034 524 1034 c 0,18,19
 612 1034 612 1034 651 1004.5 c 128,-1,20
 690 975 690 975 690 930 c 2,21,-1
 690 918 l 1,22,-1
 707 993 l 2,23,24
 724 1068 724 1068 729 1149 c 1,25,-1
 571 1149 l 1,26,-1
 588 1231 l 1,27,-1
 729 1231 l 1,28,29
 717 1334 717 1334 643 1434 c 1,30,-1
 735 1434 l 1,31,32
 809 1391 809 1391 864 1348 c 128,-1,33
 919 1305 919 1305 954 1231 c 1,34,-1
 1083 1231 l 1,35,-1
 1067 1149 l 1,36,-1
 981 1149 l 1,37,38
 993 1099 993 1099 993 1031.5 c 128,-1,39
 993 964 993 964 971 850 c 1,40,-1
 860 328 l 2,41,42
 852 291 852 291 852 255 c 0,43,44
 852 186 852 186 936 186 c 0,0,1
672 829 m 1,45,46
 672 874 672 874 628 898 c 0,47,48
 612 907 612 907 588 907 c 0,49,50
 521 907 521 907 468 846 c 0,51,52
 338 697 338 697 306 424 c 0,53,54
 301 382 301 382 301 335 c 0,55,56
 301 245 301 245 330.5 215.5 c 128,-1,57
 360 186 360 186 393 186 c 0,58,59
 454 186 454 186 504 234 c 128,-1,60
 554 282 554 282 573 367 c 2,61,-1
 672 829 l 1,45,46
EndSplineSet
Validated: 1
EndChar

StartChar: exclam
Encoding: 33 33 158
Width: 526
Flags: W
LayerCount: 2
Fore
SplineSet
201 473 m 1,0,-1
 346 1434 l 1,1,-1
 641 1434 l 1,2,-1
 375 473 l 1,3,-1
 201 473 l 1,0,-1
395 164 m 256,4,5
 395 97 395 97 348 48.5 c 128,-1,6
 301 0 301 0 233.5 0 c 128,-1,7
 166 0 166 0 118 48 c 256,8,9
 70 96 70 96 70 163.5 c 128,-1,10
 70 231 70 231 118 278.5 c 128,-1,11
 166 326 166 326 233.5 326 c 128,-1,12
 301 326 301 326 348 278.5 c 128,-1,13
 395 231 395 231 395 164 c 256,4,5
EndSplineSet
Validated: 1
EndChar

StartChar: exclamdown
Encoding: 367 161 159
Width: 449
Flags: W
LayerCount: 2
Fore
SplineSet
-125 -508 m 1,0,-1
 141 453 l 1,1,-1
 315 453 l 1,2,-1
 170 -508 l 1,3,-1
 -125 -508 l 1,0,-1
168 647 m 256,4,5
 121 694 121 694 121 761 c 128,-1,6
 121 828 121 828 167.5 877 c 128,-1,7
 214 926 214 926 282 926 c 128,-1,8
 350 926 350 926 398 877.5 c 128,-1,9
 446 829 446 829 446 761 c 128,-1,10
 446 693 446 693 397.5 646.5 c 128,-1,11
 349 600 349 600 282 600 c 128,-1,12
 215 600 215 600 168 647 c 256,4,5
EndSplineSet
Validated: 1
EndChar

StartChar: f
Encoding: 102 102 160
Width: 547
Flags: W
LayerCount: 2
Fore
SplineSet
686 1229 m 1,0,1
 690 1261 690 1261 690 1290 c 128,-1,2
 690 1319 690 1319 666.5 1336.5 c 128,-1,3
 643 1354 643 1354 620 1354 c 0,4,5
 570 1354 570 1354 528.5 1315.5 c 128,-1,6
 487 1277 487 1277 469 1186 c 1,7,-1
 434 1024 l 1,8,-1
 584 1024 l 1,9,-1
 569 942 l 1,10,-1
 418 942 l 1,11,-1
 182 -164 l 1,12,13
 112 -512 112 -512 -184 -512 c 0,14,15
 -279 -512 -279 -512 -352.5 -449.5 c 128,-1,16
 -426 -387 -426 -387 -426 -304 c 128,-1,17
 -426 -221 -426 -221 -398 -172 c 128,-1,18
 -370 -123 -370 -123 -322 -88 c 1,19,20
 -252 -39 -252 -39 -74 16 c 1,21,-1
 174 1186 l 2,22,23
 247 1534 247 1534 547 1534 c 0,24,25
 642 1534 642 1534 715 1472 c 128,-1,26
 788 1410 788 1410 788 1313 c 0,27,28
 788 1266 788 1266 782 1229 c 1,29,-1
 686 1229 l 1,0,1
-88 -51 m 1,30,31
 -197 -89 -197 -89 -238 -122 c 0,32,33
 -313 -184 -313 -184 -313 -262 c 0,34,35
 -313 -302 -313 -302 -264 -324 c 0,36,37
 -249 -330 -249 -330 -223.5 -330 c 128,-1,38
 -198 -330 -198 -330 -166 -295 c 128,-1,39
 -134 -260 -134 -260 -115 -170 c 1,40,-1
 -88 -51 l 1,30,31
EndSplineSet
Validated: 1
EndChar

StartChar: ff
Encoding: 368 64256 161
Width: 1040
Flags: W
LayerCount: 2
Fore
SplineSet
1184 1229 m 1,0,1
 1188 1261 1188 1261 1188 1290 c 128,-1,2
 1188 1319 1188 1319 1164.5 1336.5 c 128,-1,3
 1141 1354 1141 1354 1117 1354 c 0,4,5
 1008 1354 1008 1354 971 1192 c 1,6,-1
 934 1024 l 1,7,-1
 1139 1024 l 1,8,-1
 1120 942 l 1,9,-1
 918 942 l 1,10,-1
 686 -164 l 1,11,12
 647 -360 647 -360 528 -448 c 0,13,14
 441 -512 441 -512 313 -512 c 0,15,16
 146 -512 146 -512 92 -383 c 1,17,18
 -5 -512 -5 -512 -186 -512 c 0,19,20
 -281 -512 -281 -512 -354.5 -449.5 c 128,-1,21
 -428 -387 -428 -387 -428 -304 c 128,-1,22
 -428 -221 -428 -221 -400.5 -172.5 c 128,-1,23
 -373 -124 -373 -124 -312.5 -80.5 c 128,-1,24
 -252 -37 -252 -37 -74 16 c 1,25,-1
 172 1186 l 2,26,27
 245 1534 245 1534 545 1534 c 0,28,29
 613 1534 613 1534 674 1499.5 c 128,-1,30
 735 1465 735 1465 764 1405 c 1,31,32
 865 1534 865 1534 1044 1534 c 0,33,34
 1140 1534 1140 1534 1213 1472 c 128,-1,35
 1286 1410 1286 1410 1286 1313 c 0,36,37
 1286 1266 1286 1266 1280 1229 c 1,38,-1
 1184 1229 l 1,0,1
621 942 m 1,39,-1
 418 942 l 1,40,-1
 236 76 l 1,41,-1
 446 113 l 1,42,-1
 621 942 l 1,39,-1
147 -289 m 1,43,44
 173 -330 173 -330 266 -330 c 0,45,46
 299 -330 299 -330 333 -296 c 256,47,48
 367 -262 367 -262 387 -170 c 2,49,-1
 436 63 l 1,50,-1
 225 25 l 1,51,-1
 186 -164 l 1,52,53
 169 -236 169 -236 147 -289 c 1,43,44
637 1024 m 1,54,-1
 684 1239 l 1,55,56
 688 1263 688 1263 688 1291 c 128,-1,57
 688 1319 688 1319 664.5 1336.5 c 128,-1,58
 641 1354 641 1354 617 1354 c 0,59,60
 508 1354 508 1354 471 1192 c 1,61,-1
 434 1024 l 1,62,-1
 637 1024 l 1,54,-1
-76 -51 m 1,63,64
 -186 -90 -186 -90 -227 -123 c 0,65,66
 -303 -184 -303 -184 -303 -262 c 0,67,68
 -303 -302 -303 -302 -254 -324 c 0,69,70
 -239 -330 -239 -330 -213.5 -330 c 128,-1,71
 -188 -330 -188 -330 -154 -296 c 0,72,73
 -121 -262 -121 -262 -100 -170 c 1,74,-1
 -76 -51 l 1,63,64
EndSplineSet
Validated: 1
Ligature2: "'liga' Standard Ligatures in Latin lookup 4 subtable" f f
EndChar

StartChar: ffi
Encoding: 369 64259 162
Width: 1565
Flags: W
LayerCount: 2
Fore
SplineSet
1651 367 m 1,0,1
 1519 -12 1519 -12 1210 -12 c 0,2,3
 1129 -12 1129 -12 1065 46 c 0,4,5
 1002 104 1002 104 1002 233 c 0,6,7
 1002 291 1002 291 1018 367 c 2,8,-1
 1139 942 l 1,9,-1
 893 942 l 1,10,-1
 659 -164 l 2,11,12
 619 -356 619 -356 505 -444 c 0,13,14
 417 -512 417 -512 299 -512 c 0,15,16
 139 -512 139 -512 76 -403 c 1,17,18
 -23 -512 -23 -512 -186 -512 c 0,19,20
 -281 -512 -281 -512 -354.5 -449.5 c 128,-1,21
 -428 -387 -428 -387 -428 -304 c 128,-1,22
 -428 -221 -428 -221 -400.5 -172.5 c 128,-1,23
 -373 -124 -373 -124 -312.5 -80.5 c 128,-1,24
 -252 -37 -252 -37 -74 16 c 1,25,-1
 172 1186 l 2,26,27
 245 1534 245 1534 545 1534 c 0,28,29
 714 1534 714 1534 797 1427 c 1,30,31
 910 1534 910 1534 1106 1534 c 0,32,33
 1392 1534 1392 1534 1457 1384 c 0,34,35
 1473 1347 1473 1347 1473 1298 c 0,36,37
 1473 1207 1473 1207 1423 1170 c 128,-1,38
 1373 1133 1373 1133 1311 1133 c 0,39,40
 1188 1133 1188 1133 1188 1243 c 0,41,42
 1188 1278 1188 1278 1206.5 1310.5 c 128,-1,43
 1225 1343 1225 1343 1257 1343 c 2,44,-1
 1267 1343 l 2,45,46
 1272 1343 1272 1343 1274 1341 c 1,47,48
 1270 1423 1270 1423 1161 1423 c 0,49,50
 986 1423 986 1423 944 1192 c 1,51,-1
 909 1024 l 1,52,-1
 1452 1024 l 1,53,-1
 1305 328 l 2,54,55
 1297 291 1297 291 1297 255 c 0,56,57
 1297 186 1297 186 1380 186 c 0,58,59
 1440 186 1440 186 1491.5 238 c 128,-1,60
 1543 290 1543 290 1565 367 c 1,61,-1
 1651 367 l 1,0,1
594 942 m 1,62,-1
 422 942 l 1,63,-1
 238 74 l 1,64,-1
 418 104 l 1,65,-1
 594 942 l 1,62,-1
145 -293 m 1,66,67
 158 -358 158 -358 224 -358 c 0,68,69
 266 -358 266 -358 302.5 -313 c 128,-1,70
 339 -268 339 -268 360 -170 c 2,71,-1
 408 53 l 1,72,-1
 225 16 l 1,73,-1
 186 -164 l 1,74,75
 173 -231 173 -231 145 -293 c 1,66,67
729 1350 m 1,76,77
 699 1384 699 1384 652 1384 c 0,78,79
 504 1384 504 1384 471 1192 c 1,80,-1
 438 1024 l 1,81,-1
 612 1024 l 1,82,-1
 627 1094 l 1,83,84
 655 1242 655 1242 729 1350 c 1,76,77
-76 -51 m 1,85,86
 -186 -90 -186 -90 -227 -123 c 0,87,88
 -303 -184 -303 -184 -303 -262 c 0,89,90
 -303 -302 -303 -302 -254 -324 c 0,91,92
 -239 -330 -239 -330 -214 -330 c 128,-1,93
 -189 -330 -189 -330 -154 -296 c 0,94,95
 -120 -262 -120 -262 -100 -170 c 1,96,-1
 -76 -51 l 1,85,86
EndSplineSet
Validated: 1
Ligature2: "'liga' Standard Ligatures in Latin lookup 4 subtable" f f i
EndChar

StartChar: ffl
Encoding: 370 64260 163
Width: 1597
Flags: W
LayerCount: 2
Fore
SplineSet
1683 367 m 1,0,1
 1550 -12 1550 -12 1242 -12 c 0,2,3
 1161 -12 1161 -12 1097 46 c 0,4,5
 1034 104 1034 104 1034 233 c 0,6,7
 1034 287 1034 287 1051 367 c 2,8,-1
 1264 1372 l 1,9,10
 1182 1405 1182 1405 1096 1405 c 0,11,12
 991 1405 991 1405 956 1243 c 1,13,-1
 911 1024 l 1,14,-1
 1102 1024 l 1,15,-1
 1085 942 l 1,16,-1
 895 942 l 1,17,-1
 659 -164 l 2,18,19
 619 -356 619 -356 505 -444 c 0,20,21
 417 -512 417 -512 299 -512 c 0,22,23
 138 -512 138 -512 76 -401 c 1,24,25
 -25 -512 -25 -512 -186 -512 c 0,26,27
 -281 -512 -281 -512 -354.5 -449.5 c 128,-1,28
 -428 -387 -428 -387 -428 -304 c 128,-1,29
 -428 -221 -428 -221 -400.5 -172.5 c 128,-1,30
 -373 -124 -373 -124 -312.5 -80.5 c 128,-1,31
 -252 -37 -252 -37 -74 16 c 1,32,-1
 172 1186 l 2,33,34
 214 1385 214 1385 330 1470 c 0,35,36
 419 1534 419 1534 557.5 1534 c 128,-1,37
 696 1534 696 1534 780 1448 c 1,38,39
 876 1534 876 1534 1018.5 1534 c 128,-1,40
 1161 1534 1161 1534 1259 1502 c 1,41,-1
 1425 1445 l 2,42,43
 1493 1421 1493 1421 1563 1393 c 1,44,-1
 1337 328 l 2,45,46
 1329 291 1329 291 1329 255 c 0,47,48
 1329 186 1329 186 1413 186 c 0,49,50
 1473 186 1473 186 1524 237 c 1,51,52
 1574 289 1574 289 1597 367 c 1,53,-1
 1683 367 l 1,0,1
596 942 m 1,54,-1
 422 942 l 1,55,-1
 238 74 l 1,56,-1
 418 104 l 1,57,-1
 596 942 l 1,54,-1
408 53 m 1,58,-1
 225 16 l 1,59,-1
 186 -164 l 1,60,61
 173 -229 173 -229 145 -291 c 1,62,63
 151 -358 151 -358 221 -358 c 0,64,65
 320 -358 320 -358 360 -170 c 2,66,-1
 408 53 l 1,58,-1
647 1186 m 1,67,68
 665 1284 665 1284 713 1364 c 1,69,70
 685 1384 685 1384 644 1384 c 0,71,72
 570 1384 570 1384 527.5 1329 c 128,-1,73
 485 1274 485 1274 471 1192 c 1,74,-1
 438 1024 l 1,75,-1
 612 1024 l 1,76,-1
 647 1186 l 1,67,68
-76 -51 m 1,77,78
 -186 -90 -186 -90 -227 -123 c 0,79,80
 -303 -184 -303 -184 -303 -262 c 0,81,82
 -303 -302 -303 -302 -254 -324 c 0,83,84
 -239 -330 -239 -330 -214 -330 c 128,-1,85
 -189 -330 -189 -330 -154 -296 c 0,86,87
 -120 -262 -120 -262 -100 -170 c 1,88,-1
 -76 -51 l 1,77,78
EndSplineSet
Validated: 1
Ligature2: "'liga' Standard Ligatures in Latin lookup 4 subtable" f f l
EndChar

StartChar: f_f_t
Encoding: 371 -1 164
Width: 1597
Flags: W
LayerCount: 2
Fore
SplineSet
1683 367 m 1,0,1
 1550 -12 1550 -12 1242 -12 c 0,2,3
 1161 -12 1161 -12 1097 46 c 0,4,5
 1034 104 1034 104 1034 233 c 0,6,7
 1034 287 1034 287 1051 367 c 2,8,-1
 1171 942 l 1,9,-1
 895 942 l 1,10,-1
 659 -164 l 2,11,12
 619 -356 619 -356 505 -444 c 0,13,14
 417 -512 417 -512 299 -512 c 0,15,16
 138 -512 138 -512 76 -401 c 1,17,18
 -25 -512 -25 -512 -186 -512 c 0,19,20
 -281 -512 -281 -512 -354.5 -449.5 c 128,-1,21
 -428 -387 -428 -387 -428 -304 c 128,-1,22
 -428 -221 -428 -221 -400.5 -172.5 c 128,-1,23
 -373 -124 -373 -124 -312.5 -80.5 c 128,-1,24
 -252 -37 -252 -37 -74 16 c 1,25,-1
 172 1186 l 2,26,27
 214 1385 214 1385 330 1470 c 0,28,29
 419 1534 419 1534 557.5 1534 c 128,-1,30
 696 1534 696 1534 780 1448 c 1,31,32
 876 1534 876 1534 1018.5 1534 c 128,-1,33
 1161 1534 1161 1534 1259 1502 c 1,34,-1
 1425 1445 l 2,35,36
 1493 1421 1493 1421 1563 1393 c 1,37,-1
 1485 1024 l 1,38,-1
 1608 1024 l 1,39,-1
 1591 942 l 1,40,-1
 1466 942 l 1,41,-1
 1337 328 l 2,42,43
 1329 291 1329 291 1329 255 c 0,44,45
 1329 186 1329 186 1413 186 c 0,46,47
 1473 186 1473 186 1524 237 c 1,48,49
 1574 289 1574 289 1597 367 c 1,50,-1
 1683 367 l 1,0,1
596 942 m 1,51,-1
 422 942 l 1,52,-1
 238 74 l 1,53,-1
 418 104 l 1,54,-1
 596 942 l 1,51,-1
1264 1372 m 1,55,56
 1182 1405 1182 1405 1096 1405 c 0,57,58
 991 1405 991 1405 956 1243 c 1,59,-1
 911 1024 l 1,60,-1
 1190 1024 l 1,61,-1
 1264 1372 l 1,55,56
408 53 m 1,62,-1
 225 16 l 1,63,-1
 186 -164 l 1,64,65
 173 -229 173 -229 145 -291 c 1,66,67
 151 -358 151 -358 221 -358 c 0,68,69
 320 -358 320 -358 360 -170 c 2,70,-1
 408 53 l 1,62,-1
647 1186 m 1,71,72
 665 1284 665 1284 713 1364 c 1,73,74
 685 1384 685 1384 644 1384 c 0,75,76
 570 1384 570 1384 527.5 1329 c 128,-1,77
 485 1274 485 1274 471 1192 c 1,78,-1
 438 1024 l 1,79,-1
 612 1024 l 1,80,-1
 647 1186 l 1,71,72
-76 -51 m 1,81,82
 -186 -90 -186 -90 -227 -123 c 0,83,84
 -303 -184 -303 -184 -303 -262 c 0,85,86
 -303 -302 -303 -302 -254 -324 c 0,87,88
 -239 -330 -239 -330 -214 -330 c 128,-1,89
 -189 -330 -189 -330 -154 -296 c 0,90,91
 -120 -262 -120 -262 -100 -170 c 1,92,-1
 -76 -51 l 1,81,82
EndSplineSet
Validated: 1
Ligature2: "'liga' Standard Ligatures in Latin lookup 4 subtable" f f t
EndChar

StartChar: fi
Encoding: 372 64257 165
Width: 1094
Flags: W
LayerCount: 2
Fore
SplineSet
805 1341 m 1,0,1
 801 1423 801 1423 692 1423 c 0,2,3
 557 1423 557 1423 500 1278 c 0,4,5
 483 1236 483 1236 475 1192 c 1,6,-1
 440 1024 l 1,7,-1
 604 1024 l 1,8,-1
 588 942 l 1,9,-1
 424 942 l 1,10,-1
 190 -164 l 2,11,12
 150 -356 150 -356 36 -444 c 0,13,14
 -52 -512 -52 -512 -167 -512 c 128,-1,15
 -282 -512 -282 -512 -353 -450 c 256,16,17
 -424 -388 -424 -388 -424 -283 c 0,18,19
 -424 -111 -424 -111 -198 -28 c 0,20,21
 -135 -4 -135 -4 -70 16 c 1,22,-1
 158 1094 l 2,23,24
 252 1534 252 1534 637 1534 c 0,25,26
 923 1534 923 1534 988 1384 c 0,27,28
 1004 1347 1004 1347 1004 1298 c 0,29,30
 1004 1207 1004 1207 954 1170 c 128,-1,31
 904 1133 904 1133 842 1133 c 0,32,33
 719 1133 719 1133 719 1243 c 0,34,35
 719 1278 719 1278 737.5 1310.5 c 128,-1,36
 756 1343 756 1343 788 1343 c 2,37,-1
 798 1343 l 2,38,39
 803 1343 803 1343 805 1341 c 1,0,1
1180 367 m 1,40,41
 1048 -12 1048 -12 738 -12 c 0,42,43
 658 -12 658 -12 594 46 c 0,44,45
 531 104 531 104 531 233 c 0,46,47
 531 291 531 291 547 367 c 2,48,-1
 686 1024 l 1,49,-1
 981 1024 l 1,50,-1
 834 328 l 2,51,52
 826 291 826 291 826 255 c 0,53,54
 826 186 826 186 909 186 c 0,55,56
 969 186 969 186 1020.5 238 c 128,-1,57
 1072 290 1072 290 1094 367 c 1,58,-1
 1180 367 l 1,40,41
-84 -51 m 1,59,60
 -311 -125 -311 -125 -311 -248 c 0,61,62
 -311 -293 -311 -293 -283 -311.5 c 128,-1,63
 -255 -330 -255 -330 -226 -330 c 128,-1,64
 -197 -330 -197 -330 -162 -293.5 c 128,-1,65
 -127 -257 -127 -257 -109 -170 c 2,66,-1
 -84 -51 l 1,59,60
EndSplineSet
Validated: 1
Substitution2: "Single Substitution lookup 9 subtable" fi.end
Ligature2: "'liga' Standard Ligatures in Latin lookup 4 subtable" f i
Substitution2: "'aalt' Access All Alternates in Latin lookup 0 subtable" fi.end
EndChar

StartChar: fi.end
Encoding: 373 -1 166
Width: 981
Flags: W
LayerCount: 2
Fore
SplineSet
805 1341 m 1,0,1
 801 1423 801 1423 692 1423 c 0,2,3
 557 1423 557 1423 500 1278 c 0,4,5
 483 1236 483 1236 475 1192 c 1,6,-1
 440 1024 l 1,7,-1
 604 1024 l 1,8,-1
 588 942 l 1,9,-1
 424 942 l 1,10,-1
 190 -164 l 2,11,12
 150 -356 150 -356 36 -444 c 0,13,14
 -52 -512 -52 -512 -167 -512 c 128,-1,15
 -282 -512 -282 -512 -353 -450 c 256,16,17
 -424 -388 -424 -388 -424 -283 c 0,18,19
 -424 -111 -424 -111 -198 -28 c 0,20,21
 -135 -4 -135 -4 -70 16 c 1,22,-1
 158 1094 l 2,23,24
 252 1534 252 1534 637 1534 c 0,25,26
 923 1534 923 1534 988 1384 c 0,27,28
 1004 1347 1004 1347 1004 1298 c 0,29,30
 1004 1207 1004 1207 954 1170 c 128,-1,31
 904 1133 904 1133 842 1133 c 0,32,33
 719 1133 719 1133 719 1243 c 0,34,35
 719 1278 719 1278 737.5 1310.5 c 128,-1,36
 756 1343 756 1343 788 1343 c 2,37,-1
 798 1343 l 2,38,39
 803 1343 803 1343 805 1341 c 1,0,1
846 202.5 m 128,-1,41
 866 186 866 186 904 186 c 128,-1,42
 942 186 942 186 975 199 c 1,43,44
 967 96 967 96 903 42 c 128,-1,45
 839 -12 839 -12 748.5 -12 c 128,-1,46
 658 -12 658 -12 594 46 c 0,47,48
 531 104 531 104 531 233 c 0,49,50
 531 291 531 291 547 367 c 2,51,-1
 686 1024 l 1,52,-1
 981 1024 l 1,53,-1
 834 328 l 2,54,55
 826 291 826 291 826 255 c 128,-1,40
 826 219 826 219 846 202.5 c 128,-1,41
-84 -51 m 1,56,57
 -311 -125 -311 -125 -311 -248 c 0,58,59
 -311 -293 -311 -293 -283 -311.5 c 128,-1,60
 -255 -330 -255 -330 -226 -330 c 128,-1,61
 -197 -330 -197 -330 -162 -293.5 c 128,-1,62
 -127 -257 -127 -257 -109 -170 c 2,63,-1
 -84 -51 l 1,56,57
EndSplineSet
Validated: 1
EndChar

